<?xml version="1.0" encoding="UTF-8"?>
<svg id="Layer_1" data-name="Layer 1" xmlns="http://www.w3.org/2000/svg" viewBox="0 0 482.99 590.4">
  <defs>
    <style>
      .cls-1 {
        fill: #f6f5f9;
      }

      .cls-1, .cls-2, .cls-3, .cls-4, .cls-5, .cls-6, .cls-7, .cls-8, .cls-9, .cls-10, .cls-11, .cls-12, .cls-13, .cls-14, .cls-15, .cls-16, .cls-17, .cls-18, .cls-19, .cls-20, .cls-21, .cls-22, .cls-23, .cls-24, .cls-25, .cls-26 {
        stroke-width: 0px;
      }

      .cls-2 {
        fill: #4c7937;
      }

      .cls-3 {
        fill: #55873d;
      }

      .cls-4 {
        fill: #2b2729;
      }

      .cls-5 {
        fill: #54853c;
      }

      .cls-6 {
        fill: #52813a;
      }

      .cls-7 {
        fill: #3a5a29;
      }

      .cls-8 {
        fill: #57893e;
      }

      .cls-9 {
        fill: #2e2a2f;
      }

      .cls-10 {
        fill: #3b5b2a;
      }

      .cls-11 {
        fill: #181814;
      }

      .cls-12 {
        fill: #191d15;
      }

      .cls-13 {
        fill: #19150a;
      }

      .cls-14 {
        fill: #0f1509;
      }

      .cls-15 {
        fill: #1d1f19;
      }

      .cls-16 {
        fill: #d1c6e6;
      }

      .cls-17 {
        fill: #d0c7e7;
      }

      .cls-18 {
        fill: #ccc4e3;
      }

      .cls-19 {
        fill: #c8c0df;
      }

      .cls-20 {
        fill: #cec6e6;
      }

      .cls-21 {
        fill: #cdc5e4;
      }

      .cls-22 {
        fill: #fdfefe;
      }

      .cls-23 {
        fill: #995532;
      }

      .cls-24 {
        fill: #fbfbfc;
      }

      .cls-25 {
        fill: #fafbfb;
      }

      .cls-26 {
        fill: #fcfdfd;
      }
    </style>
  </defs>
  <path class="cls-4" d="m132.73,573.9c-25.57-10.65-51.01-21.52-74.61-36.15-12.58-7.8-24.95-16.08-38.16-22.7-17.66-8.84-21.18-28.8-17.12-42.02,2.96-9.65,8.52-17.54,16.97-22.93,18.7-11.92,39.08-17.27,61.43-13.82,2.66.41,5.41.35,8.12.3,11.51-.2,23,.16,34.53-1.31,5.77-.74,11.87,1.1,17.99,1.79,1.6-4.75,1.48-4.73-2.7-8.26-2.51-2.12-5-4.4-6.91-7.03-3.88-5.32-3.39-11.05,1.09-15.86,1.84-1.98,4.05-3.63,6.08-5.45,7.09-6.39,10.19-14.23,7.61-23.49-1.8-6.48-3.96-12.96-6.85-19.03-6.99-14.7-13.7-29.46-17.4-46.18-3.07-.12-6.17-.7-9.13-.3-21.12,2.9-37.35-5.23-50.29-21.2-1.67-2.06-3.87-3.75-5.97-5.42-5.47-4.37-11.19-8.45-16.51-12.98-7.94-6.77-16.63-12.27-26.62-15.43-6.4-2.03-10.44-6.12-12.08-12.28-1.17-4.42-1.46-9.07-2.14-13.62.68,0,1.35,0,2.03,0,.75,3.97,1.31,7.99,2.3,11.9,1.47,5.8,4.92,9.71,10.99,11.64,10.15,3.23,19.06,8.74,27.07,15.72,3.35,2.92,6.94,5.57,10.42,8.35.89.65,1.78,1.29,2.67,1.94.13-.19.27-.38.4-.58-.63-.87-1.25-1.74-1.88-2.61-.79-1.75-1.54-3.52-2.39-5.24-7.46-15.17-12.55-31.1-15.72-47.64-.31-1.64-1.27-3.45,1.17-4.37.56,1.82,1.24,3.62,1.66,5.48,2.8,12.6,5.92,25.09,11.76,36.74.36.8.72,1.59,1.08,2.39v-.02c.36.8.73,1.61,1.1,2.41h0c5.66,14.1,14.13,26.12,26.74,35.03,6.17,4.36,13.14,7.11,20.66,7.46,7.14.33,14.34-.39,21.68-.66-.97-6.72-1.89-13-2.77-19.28-.2-1.41-.66-3,1.95-3.83.4,2.29.86,4.31,1.09,6.36,1.45,12.9,4.17,25.56,8.66,37.73,3.07,8.32,7.22,16.24,10.56,24.47,3.11,7.67,6.4,15.36,8.49,23.33,2.36,8.98-.15,17.2-7.13,23.78-1.41,1.33-2.88,2.61-4.35,3.88-7.76,6.74-7.94,12.42-.41,19.38,1.51,1.4,3.48,2.32,5.24,3.46.8.03,1.61.06,2.41.09.13,3.37.27,6.74.4,10.11l.42.11.34-.26c1.79-.71,3.57-1.41,5.51-2.18.06-4.64,2.29-8.57,5.32-11.85,6.59-7.12,13.48-13.97,20.3-20.88.41-.41,1.3-.35,1.97-.51-.4,1.06-.51,2.4-1.24,3.14-3.4,3.46-7.16,6.6-10.45,10.16-3.81,4.13-7.39,8.48-10.79,12.94-1.58,2.07-3.24,4.49-1.79,6.99,6.43,2.33,12.46,4.54,18.5,6.7,13.14,4.7,25.42,3.06,36.61-5.2,3.9-2.88,7.71-5.99,11.09-9.44,7.19-7.36,14.16-14.95,21.07-22.57,11.75-12.97,24-25.43,37.48-36.67,11.75-9.8,21.49-21.34,29.73-34.13,1.03-1.59,1.74-3.38,2.61-5.08h0c.45-.74.9-1.48,1.35-2.22l-.02.03c.45-.74.89-1.48,1.34-2.22l-.3-.25s.29.26.29.26c.26-.48.53-.97.79-1.45,0,0,.02-.04.02-.04.41-.74.82-1.49,1.23-2.23h0c.41-.78.83-1.55,1.24-2.32,8.06-14.03,13.42-29.11,17.33-44.67,2.15-8.59,3.45-17.39,4.84-26.14.26-1.65-.24-4.21-1.39-5.16-7.09-5.83-15.47-8.28-24.5-8.83-5.12,22.53-14.82,44.99-25.95,60.44l-1.09,1.71v.39s-.35.18-.35.18c-.24.35-.48.7-.72,1.04l-.09.14c-.75,1.12-1.51,2.23-2.26,3.35-.83,1.2-1.66,2.41-2.49,3.61-.76,1.06-1.51,2.13-2.27,3.19l-.19.28c-.71.95-1.42,1.89-2.13,2.84-.45.61-.9,1.22-1.36,1.83-.69.81-1.39,1.62-2.08,2.44-.08.35-.07.7.02,1.04,0,0-.05.07-.05.07-.31.38-.62.77-.94,1.15,0,0-.14.21-.14.21-.48.64-.96,1.28-1.45,1.92v-.02c-.33.42-.68.84-1.02,1.27l-.02.03c-.34.4-.68.8-1.02,1.2l-.09.11-.93,1.08c-.46.54-.91,1.09-1.37,1.63-.19.23-.37.46-.56.68-.63.76-1.25,1.53-1.88,2.29-1.06,1.2-2.12,2.39-3.17,3.59-.55.65-1.11,1.31-1.66,1.96-2.69,2.9-5.39,5.8-8.08,8.7-.73.76-1.46,1.53-2.19,2.29-4.65,4.58-9.29,9.16-13.94,13.74l-.28.24c-.3.29-.61.58-.91.87,0,0-.23.22-.23.22-3.8,3.44-7.6,6.87-11.41,10.31l-.39.31c-.28.26-.56.52-.84.78,0,0-.29.24-.29.24-.66.37-1.38.66-1.96,1.13-12.03,9.73-24.03,19.48-36.08,29.18-.84.68-1.68,2.49-3.17.68,3.06-3.01,5.91-6.27,9.21-8.99,10.18-8.41,20.75-16.39,30.75-25,7.62-6.56,14.62-13.83,21.89-20.78.87-.87,1.74-1.74,2.61-2.61.24-.24.49-.49.73-.73.55-.57,1.11-1.14,1.66-1.71,0,0,.52-.1.52-.1l.09-.52c1.77-1.92,3.54-3.84,5.31-5.76,1.83-1.98,3.65-3.95,5.48-5.93,1.29-1.53,2.59-3.06,3.89-4.6.55-.6,1.09-1.21,1.64-1.81l-.3-.28s.33.25.33.25c.69-.87,1.38-1.74,2.08-2.61.71-.85,1.41-1.7,2.12-2.55.39-.48.77-.96,1.16-1.44,4.78-6.35,9.78-12.55,14.31-19.07,10.68-15.37,19.4-31.76,25.08-49.59,1.45-4.55,2.42-9.25,3.75-14.41-4.75-2.12-8.98-4-13.2-5.89,2.39-1.33-.01-3.31.68-4.87.34-.3.69-.61,1.03-.91,1.18,0,2.35,0,3.53,0-.85,1.02-1.7,2.04-2.55,3.06,3.85,3.06,9.72,5.47,13.61,5.82,9.94.91,19.15,3.66,26.89,10.26,3.66,3.13,7.94,5.7,11.05,9.28,3.51,4.05,6.02,8.94,8.96,13.47,6.9,10.62,12.48,21.82,15.72,34.12.7,2.67,2.26,5.31,4.04,7.47,14.49,17.57,24.6,37.08,27.81,59.75,2.17,15.33-1.51,28.74-13.22,39.54-1.43,1.32-2.83,2.67-4.25,4-3.92,3.68-7.32,7.49-10.03,12.4-3.29,5.95-8.74,10.75-13.35,15.97-1.22,1.38-2.77,2.47-4.14,3.67.58.65.79,1.11,1.04,1.13,9.75.63,19.5,1.29,29.25,1.76,1.65.08,3.48-.38,4.98-1.09,4.61-2.16,9.27-2.87,14.25-1.52,4.14,1.12,8.3,2.21,12.49,3.1,3.42.73,6.9,1.58,10.37,1.63,8.92.13,16.9,2.57,24.01,7.97,3.4,2.59,7.13,4.76,10.64,7.21,3.83,2.67,6.46,6.12,6.74,10.96-.44,1.01-.89,2.03-1.33,3.04-1.24-6.99-5.39-11.73-11.58-15.07-2.56-1.38-4.94-3.12-7.27-4.87-6-4.48-12.78-6.31-20.22-6.61-4.05-.17-8.11-.97-12.1-1.78-4.77-.97-9.42-2.53-14.22-3.3-2.58-.41-5.6-.34-7.98.6-8.67,3.42-14.66,10.19-20.66,16.97,5.82-.01,10.66-2.53,15.41-5.03,5.47-2.87,11.19-4.52,17.35-4.58,1.21-.01,2.42.41,3.62.64,0,.43.02.86.02,1.29-1.59.24-3.18.42-4.75.74-3.61.72-7.63.73-10.73,2.41-10.49,5.68-21.65,8.57-33.47,9.37-.39.03-.78.09-1.16.16-11.1,2.13-21.54,5.58-29.39,14.26-1.6,1.74-3.98,3.02-3.81,6.17,9.5,1.59,18.82,3.16,28.14,4.72-1.96.45-3.91.89-5.87,1.34-1.74-.17-3.51-.22-5.22-.52-8.65-1.52-17.33-2.93-25.93-4.72-5.37-1.12-9.71.14-13.07,4.29-2.66,3.29-5.05,6.8-7.56,10.21l-2.41,2.84c-.06.29-.18.55-.36.79-.78-.11-1.56-.21-2.34-.32,4.1-6.05,8.2-12.1,12.31-18.18-1.25-.89-3.08-2.18-5.19-3.68-7.19,7.96-14.16,15.77-21.24,23.48-7.48,8.16-14.99,16.3-25.08,21.52-.47.24-.73.87-1.09,1.31.68.13,1.36.26,2.04.39-3.2-.06-6.39-.13-9.59-.19,1.81-1.06,3.54-2.26,5.43-3.14,3.86-1.79,7.76-3.46,11-7.12-3.06,0-5.57-.04-8.08,0-7.52.15-14.82-1.04-21.78-3.87-5.68-2.31-10.72-5.6-14.5-10.49-.53-.68-.43-1.83-.62-2.76,1.5.17,2.23.71,2.8,1.39,5.08,6.05,11.8,9.42,19.3,11.44,8.05,2.16,16.27,2.04,24.47,1.26,1.61-.15,3.52-.95,4.6-2.09,10.65-11.27,21.15-22.69,31.12-33.45-.74-5.23-1.36-9.6-1.98-13.96.7,0,1.39-.01,2.09-.02.19.94.32,1.9.58,2.82,1.02,3.7,1.68,7.57,3.24,11.04,1.94,4.34,5.06,4.67,8.05.92,2.01-2.52,3.81-5.49,4.69-8.55,2.02-7.01,3.43-14.2,5.08-21.32.69,0,1.39.02,2.08.02-.06,9.26-3.14,17.93-5.45,27.01,5.92-4.09,11.32-8.49,16.57-13.04,10.34-8.96,14.51-20.29,13.02-33.73.24-1.16.49-2.32.73-3.48.69,0,1.39,0,2.08.01v13.51c2.92-2.24,5-3.82,7.07-5.43,12.95-10.07,20.61-22.45,17.7-39.46-.13-.76-.2-1.52-.3-2.28.14-2.61.27-5.21.41-7.82.26.04.52.08.78.11.52,1.41,1.04,2.83,1.56,4.24.2,6.08.4,12.16.63,19.23,7.14-6.35,13.88-11.87,17.66-19.9,3.43-7.29,4.9-14.95,3.08-22.98-.99-18.85-14.94-49.89-26.26-58.26-.13,6.26,2.52,12.37.34,18.65-1.79-7.51-2.47-15.21-4.22-22.66-1.8-7.66-4.2-15.26-7.16-22.57-2.94-7.26-6.86-14.14-12.56-20.08.13,1.46.27,2.92.4,4.38.14,1.78.29,3.56.43,5.34-.07,5.18-.15,10.35-.22,15.53-1.91,18.19-6.53,35.65-14.68,52.12-1.62,3.27-3.36,6.47-4.8,9.24,2.63,4.77,5.09,8.93,7.24,13.24,1.51,3.01,3.49,4.98,7.04,4.98,1.57-.86,3.03-1.9,4.65-2.52,5.15-1.98,10.39-2.99,15.67-.35-1.78.38-3.58,1.16-5.34,1.08-7.22-.34-12.7,2.69-17.16,7.68.57,1.16,1,2.04,1.67,3.39-2.41.22-4.13.42-5.85.53-4.85.29-9.16,1.96-12.72,5.2-6.59,6.01-13.05,12.14-19.62,18.27,1.32.76,2.43,1.4,3.53,2.04-2.42-.42-4.84-.84-7.26-1.26,1.92-2.08,3.89-4.11,5.73-6.25,1.1-1.27,2.61-2.62,2.85-4.11.77-4.79,1.04-9.66,1.62-15.74-10.54,11.11-18.17,23.09-30.22,31.32,2.57.75,4.39,1.28,6.21,1.81-3.38-.04-7.02,1.03-9.6-2.29,5.29-4.77,10.96-9.19,15.77-14.39,6.67-7.21,12.93-14.84,18.93-22.61,4.21-5.45,7.7-11.45,11.51-17.2,0,0-.26-.16-.26-.16l.28.12c1.14-1.96,2.27-3.92,3.41-5.89h0c.44-.75.87-1.5,1.31-2.26l-.28-.25.27.27c.41-.77.81-1.54,1.21-2.31.42-.79.84-1.59,1.27-2.39,2.42-5.47,5.19-10.83,7.21-16.44,7.72-21.54,10.03-43.55,5.59-66.15-.99-5.03-4.06-8.03-8.42-11.01-.49,1.88-.95,3.3-1.21,4.75-.64,3.61-.93,7.3-1.83,10.85-2.85,11.22-5.91,22.39-8.89,33.58l-.95,2.51c-.28.21-.38.49-.31.83-.33.88-.66,1.77-.98,2.65-.28.13-.39.35-.3.65-.35.9-.71,1.81-1.06,2.72l.02-.04-2.09,4.84c-.29.15-.4.38-.32.7-.77,1.31-1.64,2.58-2.29,3.95-10.99,22.98-25.95,42.88-45.72,59.36-8.93,7.44-17.12,15.79-25.22,24.14-9.99,10.3-19.54,21.02-29.27,31.57-.47.51-.82,1.11-2.06,2.83,9.34-.23,17.33-.35,24.66-4.58-.3,1-.6,2-.9,3.01-3.27,1.08-6.47,2.65-9.83,3.14-5.68.83-11.46.98-18.26,1.49,2.42.67,3.84,1.12,5.29,1.45,7.32,1.64,14.2,4.41,20,9.11,2.64,2.13,4.79,1.84,7.38.67.03.42.06.84.08,1.25l-.03-.03c-.39.53-.77,1.07-1.16,1.6-1.48.91-2.97,1.82-4.45,2.73-.25.21-.5.42-.75.63-1.24.29-2.47.58-3.71.87-1.37-.04-2.73-.09-4.1-.13,2.31-1.27,4.61-2.54,7.31-4.03-5.27-4.14-10.75-6.79-16.63-8.98-7.69-2.87-14.67-2.94-20.93,2.98-.12.11-.18.28-.46.72,3.65,2.67,7.33,5.37,11,8.07-.49.46-.98.91-1.47,1.37-3.3-2.04-6.64-4.01-9.87-6.15-2.22-1.47-4.22-2.07-7.05-1.17-5.24,1.66-10.72,1.99-16.2.8-.96-.21-1.97-.16-2.96-.23,20.41,16.07,39.61,33.19,62.87,46.22-3.63,1.72-5.53-.16-7.2-1.3-10.9-7.47-21.67-15.13-32.46-22.76-3.95-2.79-7.83-5.67-11.74-8.51l-.03-.03c-.4-.34-.81-.69-1.21-1.03-7-5.24-13.76-10.85-21.11-15.55-3.81-2.44-8.63-3.42-13.08-4.78-2.42-.74-4.86-.25-7.62,1.87,7.69,3.42,12.84,8.91,17.54,14.88,2.16,2.73,4.3,5.48,6.45,8.23.3.49.59.97.89,1.46l.05.08c6.57,9.52,12.87,19.24,19.8,28.49,4.24,5.66,10.2,9.76,15.96,13.92-.8.39-1.6.77-2.4,1.16-1.65-.55-3.32-1.06-4.95-1.66-6.05-2.21-12.04-4.56-18.14-6.62-1.74-.59-4.39-1.24-5.55-.41-6.23,4.47-13.41,4.75-20.59,5.75-15.61,2.19-30.13-.76-43.25-9.04-9.2-5.81-17.93-12.42-26.46-19.16-10.55-8.35-21.05-16.69-33.25-22.66-.73-.36-1.27-1.11-2.01-1.78,2.32-1.88,3.77-.21,5.09.53,5.77,3.25,11.42,6.69,17.12,10.06.49.32.98.65,1.47.97l.02.02c5.07,4.21,10.02,8.57,15.24,12.59,6.94,5.34,13.88,10.72,21.19,15.53,8.87,5.84,18.61,9.86,29.41,10.76,9.24.77,18.37-.29,27.36-2.31,2.29-.51,4.34-2.06,7.48-3.62-7.35-5.83-13.88-11.01-20.41-16.18-.39-.24-.79-.49-1.18-.73-1.18-.91-2.37-1.82-3.55-2.73-.9-.58-1.79-1.16-2.69-1.74-.7-.47-1.41-.93-2.11-1.4l-.03-.02c-1.17-.76-2.34-1.51-3.51-2.27h-.02c-.46-.31-.93-.6-1.39-.89-.07-.29-.25-.43-.55-.42-.55-.3-1.11-.6-1.66-.91l-.03-.02c-.75-.45-1.5-.91-2.25-1.36-8.6-5.45-17.94-9.36-27.65-12.3-9.88-2.99-19.92-5.46-29.87-8.2-1.71-.47-3.36-1.14-5.04-1.71.15-.45.29-.9.44-1.35,5.13-.17,9.89,1.95,14.81,3.02,5.2,1.14,10.33,2.62,16.74,4.27-1.33-1.77-1.67-2.46-2.22-2.92-7.77-6.56-16.66-10.73-26.86-11.83-18.53-1.98-35.63,2.66-51.71,11.44-6.06,3.31-11.1,7.89-14.84,13.71-4.16,6.48-6.82,13.41-5.84,21.28-.16,11.49,4.17,20.53,14.49,26.48,10.8,6.23,21.78,12.21,32.18,19.04,17.66,11.59,36.43,21,55.65,29.67,8.69,3.92,17.38,7.86,26.07,11.79-.54.14-1.08.28-1.68.44.61.65,1.13,1.2,1.65,1.75Zm35.2-108.91c-.32-.48-.64-.96-.96-1.43-9.52-17.83-29.32-26.72-38.32-25.39,2.1,3.76,4.3,7.69,6.5,11.63-.39.8-.79,1.6-1.18,2.4-.66-1.18-1.48-2.3-1.95-3.54-2.51-6.68-7.44-9.47-14.49-9.34-6.84.12-13.68-.03-20.53-.01-1.18,0-2.37.23-4.11.41,3.91,2.57,7.32,4.46,10.31,6.87,3.01,2.42,5.57,5.37,8.4,8.01.67.62,1.58,1.07,2.46,1.37,14.33,4.89,27.28,12.38,39.79,20.68.43.31.85.61,1.28.92l.16.11c.67.48,1.34.97,2.02,1.45.43.32.86.64,1.29.96,6.01,5.42,12.01,10.85,18.03,16.26.4.36.93.66,1.45.81,6.09,1.78,12.19,3.52,18.79,5.42-9.46-8.34-15.87-18.46-22.46-28.45-1.57-2.39-3.37-4.63-5.07-6.94h0c-.46-.7-.92-1.41-1.37-2.12l-.04-.06Zm201.08-19.67c-1.36-.05-2.72-.05-4.08-.15-4.79-.35-7.54,1.62-8.89,6.37-1.61,5.68-5.29,10.38-9.63,14.28-6.19,5.56-12.8,10.66-19.22,15.97-.91.75-1.76,1.56-3.07,2.73,3.23.5,5.69.88,8.3,1.29,6.72-10.45,16.46-16.5,27.88-20.22.56-.19,1.12-.39,1.67-.58,1.32-.28,2.65-.55,3.97-.83,2.51-.38,5.03-.69,7.52-1.16,1.68-.32,3.77-.39,4.89-1.42,5.07-4.64,9.85-9.57,15.72-15.36-9.2-.33-17.14-.62-25.07-.91Zm-32.73-91.95c-2.37,3.5-4.39,7.28-7.16,10.41-4.78,5.38-6.5,11.64-6.86,18.5-.12,2.32-.76,4.67.08,7.49,1.78-1.64,3.09-2.75,4.31-3.97,4.7-4.7,9.71-8.72,16.53-10.32,2.34-.55,4.25-2.91,6.69-4.69-8.17-3.66-7.62-12.67-13.59-17.41Z"/>
  <path class="cls-11" d="m205.61,509.03c.8-.39,1.6-.77,2.4-1.16,3.97,1.54,8.01,2.94,11.88,4.69,1.69.76,3.91,2.01,4.34,3.48.83,2.81,2.92,3.34,5.02,4.16,7.41,2.89,14.84,5.72,22.26,8.58.52.33,1.04.65,1.55.98.33-.08.57.03.73.32,3.2.06,6.39.13,9.59.19.4,0,.8,0,1.2,0,.79.33,1.59.67,2.38,1-2.08.37-4.14.95-6.24,1.08-11.79.75-23.35-.58-34.75-3.7-8.17-2.24-15.82-1.05-22.76,4.03-2.19,1.6-4.47,3.21-6.94,4.27-13.98,6.02-28.2,6.94-42.61,1.45-7.61-2.9-14.91-.43-19.05,6.41-3.25,1.85-3.61,4.78-2.64,7.88,1.01,3.23,3.78,3.91,6.91,4.08,2.47.14,5.22-.95,7.7.98-.87.98-1.49,1.67-2.11,2.37-1.69.05-3.41-.06-5.08.19-3.74.56-4.67,2.69-3.16,6.81,1.24,2.8,3.77,2.29,6.07,2.24,1.4-.03,2.79-.26,4.77-.46-1.1,3.7-4,2.91-5.84,3.89-1.26.67-3.43,1.73-3.35,2.39.21,1.69,1.06,3.87,2.39,4.71,1.38.88,3.63.43,5.5.53.97.05,1.94,0,2.91,0,.1.42.2.84.31,1.26-2.14,1.08-4.27,2.16-7.04,3.56,7.47,4.21,12.45-1.18,18.25-3.01.35,1.24.63,2.24,1.07,3.8,8.35-.49,16.71-1.25,25.07-1.43,15.52-.34,30.71-2.74,45.3-7.8,24.28-8.43,49.34-12.51,74.88-14.45,7.75-.59,15.47-1.72,23.19-2.66,8.11-.98,16.2-2.05,24.31-3.04,7.8-.95,15.61-1.85,24.47-2.9-1.8-1.17-2.68-1.83-3.62-2.35-12.94-7.16-26-14.13-38.8-21.52-7.57-4.37-14.73-9.41-22.1-14.11-1.91-1.22-3.72-3.07-6.3-1.18-3.42,2.5-6.9,4.92-10.35,7.38-1.99.72-3.98,1.46-5.98,2.14-5.84,2-11.69,3.98-17.54,5.96l-3.48.93c-.41.02-.83.04-1.24.06-.02-.41-.05-.82-.07-1.23.01-.3.04-.61.07-.91,6.83-2.29,13.65-4.64,20.51-6.85,4.05-1.31,6.38-3.83,7.6-7.95.91-3.06,2.91-5.81,4.42-8.7.78.11,1.56.21,2.34.32.5.33,1,.66,1.5,1,1.69.9,3.48,1.65,5.04,2.72,7.03,4.83,13.65,10.33,21.04,14.54,18.2,10.38,36.73,20.19,55.13,30.22-1.77.39-3.53.99-5.32,1.11-3.33.23-6.57.61-10.77,2.5,2.17.6,3.15.87,4.13,1.14,6.38,4.34,7.31,9.88,3.3,16.2-1.84,2.91-3.85,6-2.5,10.02.86,2.55-.57,4.42-3.54,4.83-2.87.4-5.93.58-8.75.04-16.95-3.25-33.94-1.59-50.87-.35-10.72.79-21.07.1-31.21-3.31-9.79-3.29-19.58-6.59-29.29-10.1-2.92-1.05-5.49-1.07-8.48-.2-10.48,3.05-20.93,6.34-31.61,8.51-16.72,3.4-33.78,3.57-50.8,3.64-3.65.02-7.3.88-10.96,1.16-2.28.18-4.61.18-6.87-.11-1.03-.13-2.34-.97-2.81-1.86-2.02-3.76-3.72-7.67-5.65-11.48-.41-.81-1.27-1.38-1.93-2.07-.52-.55-1.04-1.1-1.65-1.75.6-.16,1.14-.3,1.68-.44.71.05,1.43.09,3.57.23-5.39-4.25-4.18-8.51-2.17-12.57-5.58-4.68-6.64-8.12-4.37-13.62.43-1.05,1.01-2.03,1.52-3.05,8.26-8.26,15.34-9.9,25.91-5.64,6.2,2.5,12.55,2.63,19.03,1.92,9.15.12,17.35-2.43,23.85-8.94,5.32-5.34,10.26-11.05,15.38-16.6-.44-.18-1.98-.81-3.52-1.44-2.12-.99-4.24-1.98-6.36-2.96Zm4.75,16.34c2.39-.11,4.77-.22,7.16-.33,4.38.7,8.76,1.38,13.13,2.12,4.9.83,9.78,1.73,14.67,2.61l.21-.9c-7.42-2.74-14.84-5.48-22.27-8.21-.8-.28-1.6-.56-2.41-.83-.76-.08-1.53-.16-2.29-.24-.99-.28-2.53-1.09-2.87-.74-1.97,1.99-3.65,4.25-5.43,6.42-.39.3-.79.61-1.18.91l1.27-.8Zm156.24,33.99c-3.12.31-6.23.62-9.35.94-2.5-2.68-5.18-.15-7.66,0-8.16.48-16.28,1.57-24.41,2.51-8.7,1-17.39,2.1-26.08,3.16-9.86,1.2-19.74,2.22-29.56,3.67-5.06.75-10.01,2.28-16.15,3.72,1.78,1.05,2.36,1.53,3.03,1.76,8.11,2.81,16.25,5.53,24.36,8.36,14.45,5.05,29.27,3.36,44.09,2.73,10.12-.43,20.28-.05,30.42.25,4.46.13,8.89,1.06,13.35,1.39,2.47.19,4.14-.82,3.45-3.81-2.16-.5-4.19-.96-6.89-1.58,3.09-2.48,7.97-.28,8.25-5.22-9.85-3.26-12.93-5.08-14.6-9.1,3.66,1.66,6.68,3.31,9.91,4.43,7.28,2.52,9.36.73,8.3-6.85-.05-.36-.35-.68-.54-1.02-.83-3.17-3.38-4.13-6.22-4.71-1.23-.21-2.45-.42-3.68-.63Zm-57.47-49.01c-3.07-.56-5.15-1.62-6.33-1.01-2.6,1.35-3.18,4.19-3.69,7.97,3.48-2.42,6.1-4.23,10.02-6.96Z"/>
  <path class="cls-15" d="m299.62,223.32c-.69,1.56,1.71,3.54-.68,4.87-3.26-.09-4.76,1.33-5.35,4.67-.87,4.9-2.09,9.81-3.8,14.48-7.62,20.83-19.45,39.27-33.52,56.39-.52-.47-1.04-.94-1.56-1.41l.02-.02c1.11-.3,2.52-.4,1.42-2.14-1.06-2.89-1.96-5.84-3.21-8.65-9.63-21.58-24.93-38.73-43.85-52.64-10.45-7.68-21.92-14.02-32.93-20.96.08-.53.16-1.06.25-1.59,1.92.74,3.84,1.48,5.76,2.22.14-.27.27-.53.41-.8-2.07-1.88-4.14-3.76-6.21-5.64-14.05-16.7-20.72-35.71-17.95-57.47,1.35-10.6,6.06-19.97,12.8-28.21,2.7-3.3,4.15-6.74,4.85-10.83,1.28-7.51,4.2-14.46,8.41-20.85,13.78-20.94,34.36-20.19,49.47-10.99,3.58,2.18,6.92,3.08,10.9,2.87,2.73-.14,5.49.12,8.22-.09,1.45-.11,3.07-.55,4.25-1.35,13.26-8.99,26.62-7.41,39.74-.05,3.64,2.04,6.88,5.21,9.5,8.48,3.24,4.06,6.18,8.54,8.28,13.25,3.53,7.91,7.08,15.54,12.44,22.63,8.25,10.9,9.38,24.05,7.5,37.19-3.12,21.81-12.89,40.34-29.59,55.14-.28.25-.67.38-1.01.57-1.18,0-2.35,0-3.53,0,1.74-1.75,3.5-3.48,5.2-5.27,4.03-4.23,8.73-7.93,11.18-13.44,8.42-10.78,13.11-23.16,15-36.47,1.68-11.8.92-23.49-5.42-34.15-.81-1.37-2.25-2.38-3.4-3.56-.29-.41-.58-.81-.87-1.22.25.44.5.88.76,1.31-.46,1.4,1.03,3.48-1.81,4.54-.63-2.06-1.25-3.85-1.73-5.67-2.25-8.61-4.75-17.14-9.19-24.95-7.84-13.82-18.93-22.32-35.85-21.6-8.59.36-15.57,3.24-20.15,10.76-.7,1.15-1.74,2.1-2.62,3.14-.35-.2-.69-.4-1.04-.6.53-1.88,1.05-3.76,1.62-5.79h-9.99c1.12,1.79,2.02,3.01,2.68,4.35.58,1.19.89,2.51,1.32,3.77-.39.19-.79.38-1.18.57-.89-1.12-1.8-2.23-2.66-3.38-11.56-15.43-35.42-19.46-49.14-6.57-4.87,4.58-8.96,9.86-11.05,16.17-2.41,7.27-4.1,14.77-6.12,22.23-1.3.97-3.26,1.89-4.43,3.41-4.56,5.88-7.69,12.52-9.67,19.67-4,14.46-1.44,28.34,4.43,41.7,2.13,4.85,5.66,9.11,8.55,13.64.2.73.19,1.65.64,2.17,8.11,9.32,17.19,17.46,28.94,22.07,6.35,2.49,12.86,4.55,19.28,6.86,1.13.41,2.17,1.07,3.26,1.62l-.36,1.08c-5.2-1.18-10.4-2.36-16.11-3.65,9.45,9.41,18.87,17.98,27.3,27.41,8.63,9.65,15.04,20.9,20.44,33.68,1.65-2.03,2.82-3.25,3.75-4.63,3.99-5.95,8.21-11.77,11.79-17.96,6.41-11.07,12.24-22.45,15.54-34.88.45-1.71.43-3.54.71-5.95-4.05,1.43-7.1,2.71-10.26,3.56-2.97.8-5.79,3.08-9.34,1.08,1.48-1.19,3.16-1.85,4.8-2.58,6.04-2.68,12.09-5.33,18.08-8.11,2.1-.97,4.05-2.29,6.06-3.44Z"/>
  <path class="cls-12" d="m17.29,133.63c.24-.97.49-1.95.73-2.92.19-.48.38-.96.57-1.44.35-1.1.69-2.19,1.04-3.29.42-.8.83-1.6,1.25-2.4,0,0,0-.02,0-.02.52.55,1.04,1.11,1.55,1.66-.59,2.43-1.22,4.84-1.74,7.28-.77,3.59-1.46,7.21-2.18,10.81.2,0,.39.02.59.03,5.63-11.61,11.27-23.22,16.9-34.83.06-.33.12-.65.17-.98l-.25-.25.1-.33c.08-1,.15-1.99.23-2.99,0,0,.04-.02.04-.02.41-.3.82-.59,1.23-.89,0,0,.26-.13.25-.13.66-.48,1.33-.97,1.99-1.45-.01-.4.15-.7.49-.92.25-.41.5-.81.75-1.22,0,0-.01.02-.01.02.4-.77.81-1.53,1.21-2.3,0,0,0,0,0,0,.4-.75.81-1.5,1.21-2.26,0,0,.02-.04.02-.04.87-.49,1.75-.98,2.62-1.46-.71,1.96-1.25,4.01-2.17,5.88-4.16,8.46-8.59,16.79-12.6,25.33-1.94,4.14-3.15,8.62-4.69,12.94-3.25,1.92-2.96,5.64-4.33,8.5-3.74,7.78-5.44,16.01-4.7,24.68.23,2.68.45,5.24,2.46,7.71,4.92-3.51,7.89-8.26,11.21-12.72,8.3-11.16,16.02-22.87,27.75-31,6.74-4.67,9.73-10.96,9.49-18.93-.01-.69-.03-1.39-.04-2.08.76-.97,1.98-1.85,2.21-2.94.89-4.16,3.64-6.27,7.31-8.05,2.81-1.36,5.14-3.7,7.68-5.6,9.88-6.74,14.87-16.12,15.4-27.87.31-6.89-3.79-11.2-10.81-11.42-3.21-.1-6.26-.4-8.03-3.58,2.69.85,5.39,1.69,8.08,2.54.18-.42.37-.84.55-1.26-2.66-1.3-5.29-2.67-8.02-3.82-.32-.13-1.15.93-1.75,1.43-.7-.09-1.39-.17-2.35-.29.42,9.07,8.63,9.57,14.33,13.07-1.83,1.59-3.25,2.82-5.03,4.36,1.91,3.28,3.76,6.45,6.04,10.35-2-.97-3.04-1.91-4.03-1.85-1.13.06-2.22,1-3.32,1.56-2.9-4.61-3.03-4.85-7.73-2.95-2.82,1.14-5.37,2.99-7.88,4.74-1.49,1.03-2.68,2.49-4.55,4.28-1.05-4.12.57-6.06,2.77-7.77,4.37-1.98,8.73-3.96,13.1-5.93,3.3-.84,2.65-3.64,3.36-6.14-5.06-2.78-9.6-5.92-11.19-11.65-4.93,2.34-6.52,2.31-10.71.48-1.35-.59-2.9-.74-4.37-1.04-1.87-.38-3.75-.71-5.63-1.06-.52-.67-1.05-1.34-1.6-2.04-1.83,3.22-3.46,6.08-5.09,8.95l-.38-2.78c.86-2.55,1.8-5.08,2.56-7.67,1.3-4.42,2.5-8.88,3.71-13.33.41-1.49.62-3.04,1.1-4.51,2.24-6.92,6.43-8.91,14.08-6.78,6.38-4.22,8.76-4.12,15.9.78,1.99-4.19,3.81-8.42,5.98-12.47,1.73-3.23,3.54-6.5,5.9-9.28,5.24-6.18,9.7-5.28,12.96,2.62.77,0,1.72-.14,2.62.02,4.54.82,6.64,3.29,5.69,7.75-.79,3.73-2.25,7.39-3.85,10.88-4.83,10.55-9.86,21-14.94,31.76.65.81,1.28,1.74,2.07,2.53,2.66,2.69,3.36,5.89,3.17,9.57-.58,11.45-5.34,20.86-13.98,28.36-2.76,2.39-5.92,4.35-8.89,6.5-.33.21-.65.42-.98.64-.11.34-.35.47-.7.4-.55.29-1.09.58-1.64.87l-.25.3s-.39,0-.39,0c-.58.31-1.16.62-1.73.93-.12.54-.24,1.09-.37,1.63-.31,1.27-.62,2.55-.93,3.82-.76,2.91-1.53,5.82-2.29,8.74-.12.24-.24.47-.53,1.01.24-.58.35-.84.46-1.1,3.02-1.69,2.75-4.82,3.4-7.55.52-.54,1.04-1.07,1.56-1.61.04,2.01.09,4.02.13,6.04-.3.27-.39.6-.27.99-.1.4-.2.79-.31,1.19-.22.53-.44,1.06-.66,1.59-.42,1.4-.84,2.81-1.27,4.21-2.02.02-4.09-.06-4.72,2.5-2.68,2.5-5.15,5.25-8.07,7.45-7.86,5.91-14.36,13.05-20.19,20.84-2.79,3.72-5.36,7.62-8.32,11.19-3.57,4.3-7.5,8.3-11.16,12.53-.83.96-1.2,2.31-1.78,3.48-.71,0-1.41-.01-2.12-.02.06-1.16.12-2.32.18-3.48-.19-.34-.38-.68-.57-1.02-.75-2.48-2.06-4.94-2.15-7.44-.25-6.45.03-12.92.1-19.39,1.82-4.19,1.55-4.77-2.2-4.74.42-1.52.83-3.03,1.25-4.55.21-.56.41-1.12.62-1.69.56-2.14,1.12-4.29,1.67-6.43.22-.58.43-1.16.65-1.74ZM102.76,2.45c-5.44,1.89-7.62,6.4-10.26,11.74,1.1.51,2.29,1.05,3.47,1.59-.19.23-.38.46-.58.68-1.26-.08-2.53-.16-4.11-.26-1.8,5.58-6.54,10.07-4.93,16.72q-3.78,1.29-7.94,14.95c2.65.35,5.28.7,7.73,1.03,6.15-12.63,12.16-24.98,18.17-37.33.34-.7.71-1.39.92-2.13.71-2.59.66-4.99-2.46-7Zm-5.18,34.98c-5.72,2.97-4.96,9.33-8.73,13.5,2.64,1.77,4.65,3.13,6.92,4.66.92-1.44,1.63-2.34,2.11-3.35,4.7-9.93,9.38-19.86,14-29.82,1.05-2.27,1.94-4.62,2.69-7,.33-1.05.41-2.32.16-3.38-.59-2.49-2.85-3.19-4.91-1.58-.74.58-1.39,1.37-1.84,2.19-1.79,3.28-5.1,5.99-4.07,10.35-3.48,2.17-4.76,5.74-5.86,9.32-.48,1.55-.33,3.28-.48,5.1Zm-27.61,4.58c-4.95,1.51-5.61,2.41-5.4,6.61.15,3.05,1.99,5.52,4.2,5.26,2.75-.33,3.77-2.26,4.09-4.83.17-1.37.49-2.98,1.36-3.95,3.82-4.29,5.66-9.4,6.69-14.84.36-1.89.13-3.96-2.08-4.91-2.21-.95-4.54-1.55-6.61.16-1.16.96-2.35,2.18-2.86,3.52-1.42,3.7-2.49,7.53-3.75,11.47,1.69.58,2.74.94,4.39,1.51Zm-3.81-15.01c-8.11-.56-11.67,4.9-10.27,13.97h6.8c1.16-4.68,2.25-9.07,3.47-13.97Zm-4.31,20.03c.12-2.05-1.85-4.43-3.7-4.49-1.78-.06-3.66,1.88-3.66,3.78,0,2.6,1.81,5.2,3.66,5.24,1.78.03,3.57-2.15,3.7-4.53Z"/>
  <path class="cls-9" d="m374.72,558.98c-.98-.27-1.96-.54-4.13-1.14,4.2-1.89,7.44-2.27,10.77-2.5,1.79-.13,3.55-.73,5.32-1.11,3.22,1.3,6.35,1.01,9.64-.02,17.36-5.44,34.11-12.22,49.57-21.81,4.41-2.74,8.39-6.15,12.56-9.25,0,0-.01,0-.01,0,.48-.37.96-.74,1.44-1.11,6.53-4.71,11.96-10.46,16.36-17.14,3.57-5.42,4.91-11.22,3.33-17.64-.97-3.91-1.62-7.9-2.42-11.86.44-1.01.89-2.03,1.33-3.04,1.47,6.18,3.33,12.3,4.3,18.55.94,5.99-1.5,11.41-4.88,16.32-5.34,7.76-12.06,14.26-19.57,19.89-19.28,14.45-41.16,23.64-64.21,30.29-1.91.55-4.45.47-6.22-.34-4.34-1.99-8.46-.32-12.66.02-.22.02-.35,1.22-.52,1.88Z"/>
  <path class="cls-4" d="m72.86,194.59c7.5,2.4,13.45,6.57,16.83,13.92.49,1.07,2.38,2.11,3.65,2.14,4.64.11,9.35.19,13.92-.47,8.7-1.25,17.32-2.25,26.11-.84,2,.32,4.16-.31,6.24-.51,2.3-.22,4.61-.44,6.91-.65-.68.49-1.36.98-2.04,1.47-1.43,1.69.4,1.74,1.19,2.31,1.64,1,3.39,1.87,4.92,3.01,19.47,14.58,35.46,32.49,50.38,51.41-.67.43-1.34.86-2.01,1.29,0,0-.32-.08-.32-.08v-.33c-.83-1-1.65-2.01-2.46-3.01-.39-.46-.77-.92-1.16-1.39-.29-.33-.57-.66-.86-.99,0,0-.28-.34-.28-.34-.14-.35-.37-.63-.7-.82-.38-.05-.55-.26-.51-.64l-.14-.2c-1.13-1.32-2.26-2.63-3.4-3.95-.3-.34-.6-.68-.9-1.01l-.24-.28c-.27-.3-.53-.6-.8-.89l-.34-.12-.05-.36c-.13-.26-.31-.47-.55-.64-.39-.03-.57-.23-.56-.62-.47-.55-.93-1.1-1.4-1.65-1.53-1.69-3.07-3.38-4.6-5.07-.26-.28-.53-.56-.79-.84l-.3-.06-.02-.3c-.15-.35-.4-.61-.74-.79-.34,0-.49-.16-.45-.5-.14-.26-.34-.48-.6-.64-.41-.05-.62-.28-.62-.69l-.36-.4c-.43-.04-.67-.27-.7-.69-4.98-4.84-9.95-9.69-14.93-14.53l-.37-.04-.07-.36c-.18-.33-.44-.56-.79-.69h-.33s-.05-.33-.05-.33l-.94-.82-.25-.21c-.35-.31-.71-.62-1.06-.93l-.14-.11-1.18-1.02h-.02c-.58-.44-1.16-.88-1.74-1.31l-.44-.07-.15-.42c-.19-.3-.46-.49-.8-.59l-.29.04-.06-.29c-.37-.29-.74-.58-1.11-.86,0,0-.1-.07-.1-.06-2.58-2.95-5.58-5.42-9.63-5.72-7.9-.58-15.82-1.16-23.73-1.13-4.13.02-8.25,1.32-12.37,2.05-4.22.11-8.44.22-12.65.32-.94-.01-1.89-.03-2.83-.04l.03.05c-.21-.43-.42-.85-.63-1.28-1.31-2.41-2.61-4.82-3.92-7.23-.27-.32-.54-.65-.81-.97l-.32-.1-.03-.33c-.15-.3-.37-.54-.66-.71-.36,0-.54-.17-.54-.53-.18-.29-.42-.51-.73-.65l-.34-.03-.11-.32c-.33-.26-.67-.51-1-.77l-.2-.12c-.93-2.04-2.68-2.36-4.67-2.18-.72.01-1.44.03-2.15.04-.83-.03-1.66-.06-2.48-.09.04-1.16.07-2.32.1-3.48.75,0,1.5.02,2.25.02Z"/>
  <path class="cls-9" d="m72.86,194.59c-.75,0-1.5-.02-2.25-.02-.91-5.4-1.81-10.8-2.72-16.2-.95-3.59-1.99-7.13-5.1-9.88-3.07,8.51-6.17,16.6-8.84,24.82-1.1,3.39-1.26,7.07-1.85,10.62.43,1.52.86,3.04,1.29,4.56l-.7,2.2c-4.56-2.83-3.9-7.34-3.06-11.33,1.1-5.25,2.79-10.45,4.81-15.43,6.94-17.05,10.28-35.13,15.72-52.61.23-.75-.5-1.8-.78-2.71.63-2.56,2.71-2.48,4.72-2.5-2.88,10.78-5.75,21.57-8.63,32.35-.5,1.86-.97,3.72-1.51,5.81,6.35,9.04,9.4,19.18,8.9,30.32Z"/>
  <path class="cls-9" d="m0,220.08c1.3-11.22,2.52-22.46,3.94-33.67.41-3.21,1.4-6.36,2.12-9.53.7.09,1.39.18,2.09.27-2.02,14.37-4.05,28.74-6.07,43.11-.69-.06-1.38-.12-2.08-.18Z"/>
  <path class="cls-9" d="m22.44,125.23c-.52-.55-1.04-1.11-1.55-1.66,2.67-8.41,7.61-15.08,15.37-19.6-.08,1-.15,1.99-.23,2.99-6.6,4.59-10.4,11.21-13.59,18.27Z"/>
  <path class="cls-9" d="m145.68,211.96c-.79-.57-2.62-.62-1.19-2.31,2.49,0,4.99.06,7.47-.06.37-.02.69-.83,1.04-1.28,6.26-.04,11.98,1.88,17.44,4.74,0,0-.24.32-.24.32-.75.34-1.49.68-2.24,1.02-6.14-1.85-12.22-4.12-18.8-3.64-1.18.09-2.32.79-3.48,1.21Zm13.25-1.41c.01-.2.02-.4.03-.59-.61-.04-1.22-.07-1.83-.11l-.04.61c.61.03,1.22.06,1.83.1Z"/>
  <path class="cls-9" d="m13.09,148.04c3.75-.03,4.02.54,2.2,4.74-1.3,3.55-2.6,7.1-3.89,10.64-.7-.06-1.41-.13-2.11-.19,1.27-5.06,2.54-10.13,3.81-15.19Z"/>
  <path class="cls-12" d="m40.29,86.65c-2.14-4.21-2.06-8.47-.35-12.78.31-.83.62-1.67.92-2.5,0,0,0,.01,0,.01.52.12,1.04.23,1.56.35-1.36,5.3-1.28,10.6.02,15.9l-1.41.22s0-.01,0-.01c-.24-.39-.49-.79-.73-1.19Z"/>
  <path class="cls-5" d="m176.37,212.1c2.07,1.88,4.14,3.76,6.21,5.64-.14.27-.27.53-.41.8-1.92-.74-3.84-1.48-5.76-2.22-.07-.25-.11-.51-.12-.78,2.37-1.09.09-2.29.09-3.44Z"/>
  <path class="cls-15" d="m153,208.32c-.35.45-.67,1.27-1.04,1.28-2.49.11-4.98.06-7.47.06.68-.49,1.36-.98,2.04-1.47,2.16.04,4.31.09,6.47.13Z"/>
  <path class="cls-11" d="m0,220.08c.69.06,1.38.12,2.08.18,0,3.42,0,6.84,0,10.26-.68,0-1.35,0-2.03,0-.02-3.48-.03-6.97-.05-10.45Z"/>
  <path class="cls-12" d="m8.15,177.16c-.7-.09-1.39-.18-2.09-.27.4-1.85.81-3.69,1.21-5.54.19-.6.38-1.2.57-1.8.11-.55.21-1.11.32-1.66.7.07,1.41.13,2.11.2-.71,3.03-1.42,6.05-2.13,9.08Z"/>
  <path class="cls-9" d="m41.03,87.85c.47-.07.94-.15,1.41-.22,0,0-.15.12-.15.12.58.39,1.17.77,1.75,1.16,0,0,.44-.06.44-.06.46,1.41.92,2.82,1.38,4.22l.2.21c-.87.49-1.75.98-2.62,1.46.44-1.44,1.1-2.81-.51-4.12-.84-.68-1.28-1.84-1.9-2.78Z"/>
  <path class="cls-9" d="m176.28,215.54c.01.26.05.52.12.78-.08.53-.16,1.06-.24,1.59-1.88-.82-3.76-1.64-5.64-2.46l1.89-.94.44-.35c1.14.46,2.29.93,3.43,1.39Z"/>
  <path class="cls-9" d="m73.86,112.61c.31-1.27.62-2.55.93-3.82.56,1.1,1.12,2.21,1.68,3.31-.52.54-1.04,1.07-1.56,1.61-.35-.37-.7-.73-1.04-1.1Z"/>
  <path class="cls-9" d="m10.27,168.08c-.7-.07-1.41-.13-2.11-.2.32-1.29.64-2.58.96-3.87.46.9.92,1.81,1.38,2.71.04.16.15.33.12.47-.08.31-.23.6-.35.89Z"/>
  <path class="cls-9" d="m44.37,63.23c.44-1.12.89-2.23,1.33-3.35,0,0,.37.33.37.33-.08,1.08-.16,2.16-.23,3.25v.04c-.36-.07-.7-.04-1.04.12l-.43-.39Z"/>
  <path class="cls-9" d="m42.42,71.73c-.52-.12-1.04-.23-1.56-.35.46-1.11.92-2.21,1.38-3.32,0,0,.32.21.32.21-.08,1.1-.16,2.21-.24,3.31l.11.14Z"/>
  <path class="cls-12" d="m10.5,166.71c-.46-.9-.92-1.81-1.38-2.71-.17-.3-.12-.56.16-.78.7.06,1.41.13,2.11.19-.3,1.1-.6,2.2-.89,3.3Z"/>
  <path class="cls-9" d="m46.79,57.3c.13.93.25,1.85.38,2.78,0,0-.14-.06-.14-.06-.34-.04-.66.02-.95.2l-.37-.33c.36-.86.73-1.72,1.09-2.58Z"/>
  <path class="cls-9" d="m43.32,65.67c.35-.81.7-1.63,1.05-2.44,0,0,.43.39.43.39-.04.72-.09,1.45-.13,2.17v.03c-.34-.05-.67.02-.97.19,0,0-.38-.34-.38-.34Z"/>
  <path class="cls-9" d="m42.24,68.06l1.08-2.4s.38.34.38.34c-.38.76-.76,1.51-1.14,2.27l-.32-.21Z"/>
  <path class="cls-9" d="m40.87,71.37c-.31.83-.62,1.67-.92,2.5.31-.83.62-1.67.92-2.5Z"/>
  <path class="cls-9" d="m43.42,94.79c-.4.75-.81,1.5-1.21,2.26.4-.75.81-1.5,1.21-2.26Z"/>
  <path class="cls-9" d="m42.2,97.06c-.4.77-.81,1.53-1.21,2.3.4-.77.81-1.53,1.21-2.3Z"/>
  <path class="cls-9" d="m39.76,101.47c-.66.49-1.33.97-1.99,1.45.66-.49,1.33-.97,1.99-1.45Z"/>
  <path class="cls-9" d="m77.54,105.95c.55-.29,1.09-.58,1.64-.87-.55.29-1.09.58-1.64.87Z"/>
  <path class="cls-9" d="m75.16,107.17c.58-.31,1.16-.62,1.73-.93-.58.31-1.16.62-1.73.93Z"/>
  <path class="cls-9" d="m20.88,123.58c-.42.8-.83,1.6-1.25,2.4.42-.8.83-1.6,1.25-2.4Z"/>
  <path class="cls-9" d="m170.44,213.05c.8.37,1.61.73,2.41,1.1,0,0-.44.35-.43.35-.74-.38-1.48-.75-2.22-1.13l.24-.32Z"/>
  <path class="cls-9" d="m7.84,169.54c-.19.6-.38,1.2-.57,1.8.19-.6.38-1.2.57-1.8Z"/>
  <path class="cls-9" d="m14.96,141.8c-.21.56-.41,1.12-.62,1.69.21-.56.41-1.12.62-1.69Z"/>
  <path class="cls-9" d="m17.29,133.63c-.22.58-.43,1.16-.65,1.74.22-.58.43-1.16.65-1.74Z"/>
  <path class="cls-9" d="m18.59,129.27c-.19.48-.38.96-.57,1.44.19-.48.38-.96.57-1.44Z"/>
  <path class="cls-9" d="m75.37,121.91c.22-.53.44-1.06.66-1.59-.22.53-.44,1.06-.66,1.59Z"/>
  <path class="cls-9" d="m76.33,119.13c-.12-.39-.02-.71.27-.99-.09.33-.18.66-.27.99Z"/>
  <path class="cls-9" d="m79.88,104.68c.33-.21.65-.42.98-.64-.33.21-.65.42-.98.64Z"/>
  <path class="cls-9" d="m37.52,103.05c-.41.3-.82.59-1.23.89.41-.3.82-.59,1.23-.89Z"/>
  <path class="cls-9" d="m41,99.33c-.25.41-.5.81-.75,1.22.25-.41.5-.81.75-1.22Z"/>
  <path class="cls-9" d="m40.29,86.65c.24.4.49.79.73,1.19-.24-.4-.49-.79-.73-1.19Z"/>
  <path class="cls-26" d="m205.61,509.03c2.12.99,4.24,1.98,6.35,2.96-.3.49-.5,1.12-.92,1.45-11.37,8.81-21.97,18.65-34.79,25.54-6.48.71-12.83.57-19.03-1.92-10.56-4.25-17.65-2.62-25.91,5.64-13.31.32-25.73-3.78-38.01-7.98-19.55-6.69-38.2-15.38-56.38-25.19-12.27-6.61-23.64-14.05-32.56-24.8-.98-7.88,1.68-14.8,5.84-21.28,3.74-5.82,8.77-10.4,14.84-13.71,16.08-8.79,33.18-13.42,51.71-11.44,10.2,1.09,19.09,5.27,26.86,11.83.55.46.9,1.16,2.22,2.92-6.42-1.65-11.54-3.13-16.74-4.27-4.91-1.07-9.68-3.19-14.81-3.02-.15.45-.29.9-.44,1.35,1.68.57,3.33,1.24,5.04,1.71,9.96,2.74,20,5.22,29.87,8.2,9.71,2.94,19.05,6.85,27.65,12.3.75.45,1.5.91,2.25,1.36,0,0,.03.02.03.02.55.3,1.11.6,1.66.91.3,0,.48.13.55.42.46.29.93.58,1.39.87,0,0,.02.01.02.01.42,1.89,1.58,2.66,3.51,2.27,0,0,.03.02.03.02.7.47,1.41.93,2.11,1.4.9.58,1.79,1.16,2.69,1.74-.4,2.92,1.42,3.02,3.55,2.73.39.24.79.49,1.18.73-.87,2.64,1.29,3.8,2.7,5.28,1.99,2.09,4.15,4.04,3.65,8.12-4.51,0-8.91-.04-13.31,0-10.98.12-21.14-3.01-30.65-8.09-11.11-5.94-21.94-12.39-33.02-18.4-3-1.63-6.42-2.48-9.65-3.7,0,0-.02-.02-.02-.02-.49-.32-.98-.65-1.47-.97-5.7-3.37-11.35-6.82-17.12-10.06-1.32-.74-2.77-2.41-5.09-.53.74.67,1.28,1.42,2.01,1.78,12.2,5.97,22.69,14.32,33.25,22.66,8.53,6.75,17.26,13.36,26.46,19.16,13.12,8.28,27.64,11.22,43.25,9.04,7.18-1.01,14.36-1.28,20.59-5.75,1.16-.83,3.8-.18,5.55.41,6.1,2.06,12.1,4.41,18.14,6.62,1.63.6,3.3,1.11,4.95,1.66Z"/>
  <path class="cls-26" d="m477.16,475.41c.8,3.95,1.45,7.94,2.42,11.86,1.58,6.41.24,12.22-3.33,17.64-4.41,6.68-9.83,12.43-16.36,17.14-.48.37-.96.74-1.44,1.11,0,0,.01,0,.01,0-1.68.36-3.45.5-5.02,1.13-8.87,3.58-17.86,6.79-27.35,8.33-7.67,1.25-15.4,2.2-23.07,3.42-13.54,2.15-26.89.93-39.93-2.81-14.83-4.26-27.64-12.46-40.09-21.28-5.16-3.65-9.47-8.79-16.27-9.84,2.51-3.41,4.9-6.92,7.56-10.21,3.36-4.15,7.7-5.41,13.07-4.29,8.6,1.79,17.27,3.2,25.93,4.72,1.72.3,3.48.35,5.22.52,2.73.33,5.46.65,8.18.98,7.8.02,15.6.03,23.41.05,14.43-2.11,28.92-3.87,43.25-6.47,7.6-1.38,14.96-4.15,22.37-6.46,1.18-.37,3.34-.66,2.29-3.54-12.62,5.16-25.78,8.2-39.26,9.95-11.73-.1-23.46-.19-35.19-.31-2.15-.02-4.32,0-6.44-.26-8.29-1.02-16.65-1.79-24.83-3.4-4.07-.8-8.71.4-12.24-2.77,7.84-8.68,18.29-12.13,29.39-14.26.38-.07.77-.13,1.16-.16,11.82-.8,22.98-3.69,33.47-9.37,3.09-1.67,7.12-1.69,10.73-2.41,1.57-.31,3.17-.49,4.75-.74,0-.43-.02-.86-.02-1.29-1.21-.22-2.42-.65-3.62-.64-6.17.07-11.89,1.71-17.35,4.58-4.76,2.5-9.59,5.01-15.41,5.03,5.99-6.78,11.99-13.55,20.66-16.97,2.38-.94,5.4-1.02,7.98-.6,4.79.77,9.45,2.33,14.22,3.3,3.99.81,8.05,1.61,12.1,1.78,7.44.31,14.22,2.13,20.22,6.61,2.33,1.74,4.71,3.49,7.27,4.87,6.19,3.34,10.34,8.08,11.58,15.07Z"/>
  <path class="cls-22" d="m264.43,328.08c.63-.76,1.25-1.53,1.88-2.29,0,0,.48-.18.48-.18l.07-.51c.46-.54.91-1.09,1.37-1.63.31-.36.62-.72.93-1.08,0,0,.09-.11.09-.11.34-.4.68-.8,1.02-1.21,0,0,.02-.03.02-.03.35-.42.69-.84,1.04-1.27,0,0-.01.02-.01.02.48-.64.97-1.28,1.45-1.92,0,0,.14-.21.14-.21.31-.38.62-.77.94-1.15,0,0,.05-.07.05-.07.36-.43.71-.87,1.07-1.3.33-.73.66-1.45.99-2.18.45-.61.9-1.22,1.36-1.83.71-.95,1.42-1.89,2.13-2.84,0,0,.19-.28.19-.28.76-1.06,1.51-2.13,2.27-3.19.83-1.2,1.66-2.41,2.49-3.61.75-1.12,1.51-2.23,2.26-3.35,0,0,.09-.14.09-.14.24-.35.48-.7.72-1.04l.35-.18s0-.39,0-.39c.36-.57.73-1.14,1.09-1.71,11.13-15.46,20.82-37.92,25.95-60.44,9.03.54,17.41,3,24.5,8.83,1.15.95,1.65,3.51,1.39,5.16-1.39,8.75-2.69,17.56-4.84,26.14-3.9,15.56-9.27,30.65-17.33,44.67-.41.77-.83,1.54-1.24,2.32,0,0,0,0,0,0-.41.74-.82,1.49-1.23,2.23,0,0-.02.04-.02.04-.26.48-.53.97-.79,1.45l-.29-.26s.3.25.3.25c-.45.74-.89,1.48-1.34,2.22,0,0,.02-.03.02-.03-.45.74-.9,1.48-1.35,2.22,0,0,0,0,0,0-1.3,1-2.78,1.84-3.87,3.02-7.49,8.13-14.55,16.67-22.41,24.42-10.23,10.08-21.23,19.39-31.62,29.31-11.26,10.76-22.28,21.76-33.23,32.82-4.57,4.62-9.62,8.46-15.35,11.5-9.96,5.28-20.45,6.68-31.08,2.71-8.42-3.15-8.57-5.57-3.76-11.73.71-.91,1.29-1.96,2.09-2.78,13.35-13.58,27.04-26.81,41.63-39.13,2.53-2.14,6.11-3.86,6.04-8.04,0,0,.29-.24.29-.24.28-.26.56-.52.84-.78,0,0,.39-.31.39-.31,6.06-1,9.61-4.7,11.41-10.31,0,0,.23-.22.23-.22.3-.29.61-.58.91-.87,0,0,.28-.24.28-.24,1.13-.14,2.63.13,3.32-.49,3.81-3.42,7.47-7.01,11.03-10.68.37-.38-.25-1.69-.41-2.57.73-.76,1.46-1.53,2.19-2.3,4.03-.29,7.33-3.84,8.08-8.7.55-.65,1.11-1.31,1.66-1.96,2.56.1,3.43-1.26,3.17-3.59Z"/>
  <path class="cls-26" d="m356.25,428.97c-.24,1.16-.49,2.32-.73,3.48-1.01,2.28-1.86,4.63-3.04,6.81-3.39,6.24-6.89,12.41-10.39,18.59-1.2,2.11-2.91,3.43-5.79,3.03-.11-1.52-.09-2.86-.32-4.16-1.1-6.16-2.28-12.3-3.42-18.45-.3-2.28-.66-4.55-.89-6.83-.63-6.35-2.17-12.46-5.13-18.14-2.13-4.09-4.54-8.05-9.22-9.89-1.1-.64-2.21-1.28-3.53-2.04,6.57-6.13,13.04-12.26,19.62-18.27,3.55-3.24,7.86-4.91,12.72-5.2,1.72-.1,3.44-.31,5.85-.53-.67-1.35-1.1-2.24-1.67-3.39,4.46-4.99,9.94-8.02,17.16-7.68,1.76.08,3.56-.69,5.34-1.08,1.38-.47,2.76-.93,4.14-1.4-.54-1.55-.75-3.34-1.69-4.59-2.8-3.73-6.76-4.82-11.4-4.6-7.91.38-6.87.13-8.79-7.55-.37-1.46-.21-3.09-.09-4.62.32-4.02.52-8.08,1.19-12.05,2.03-12.03,2.52-24.14,2.28-36.3-.04-1.87-.5-3.73-.76-5.59.07-5.18.15-10.35.22-15.53-.14-1.78-.29-3.56-.43-5.34-.13-1.46-.27-2.92-.4-4.38,5.7,5.94,9.62,12.82,12.56,20.08,2.96,7.31,5.36,14.91,7.16,22.57,1.75,7.45,2.43,15.15,4.22,22.66,2.18-6.28-.46-12.39-.34-18.65,11.32,8.37,25.27,39.41,26.26,58.26-.48,2.26-1.02,4.5-1.41,6.77-1.21,7.08-4.12,13.24-9.82,17.9-4.35,3.55-6.38,3.33-10.13-1.02-.52-1.41-1.04-2.83-1.56-4.24-.26-.04-.52-.07-.78-.11-.14,2.61-.27,5.21-.41,7.82-.31.88-.71,1.74-.92,2.64-2,8.49-5.12,16.52-10.58,23.45-3.49,4.42-6.26,4.03-8.41-1.03-.97-2.27-1.45-4.74-2.15-7.13-.41-1.42-.82-2.84-1.22-4.27-.3,0-.6,0-.9.01-.36,1.78-.72,3.57-1.08,5.35-.12,1.4-.24,2.79-.36,4.19-.31,3.48-.62,6.95-.93,10.43Z"/>
  <path class="cls-17" d="m72.99,198.14c.72-.01,1.44-.03,2.15-.04.4.35.8.7,1.21,1.05-.57,5.35-.86,10.74-1.79,16.03-1.03,5.88-1.68,11.52-.92,17.66,1.54,12.49,5.96,23.06,15.9,31.12,10.14,8.22,21.1,12.35,34.03,6.6.71-.31,1.48-.48,2.23-.69,3.34-.94,5.3-.43,6.86,2.47,1.45,2.71,2.5,5.65,3.52,8.56,1.65,4.7,4.14,8.72,8.53,11.4-.77,2.48,1.33,3.43,2.69,4.62,5.99,5.23,12.01,10.44,18.14,15.53,9.53,7.91,12.94,17.49,8.89,29.4-.99,2.9-1.64,5.96-2.1,8.99-1.35,8.8,1.34,13.93,9.2,18.03,1.31.68,2.6,1.39,4.22,2.25-4,3.56-7.76,6.63-11.19,10.03-6.46,6.41-13.07,12.74-19,19.61-6.67,7.73-11.15,16.7-12.44,26.98-1.76-1.14-3.73-2.06-5.24-3.46-7.53-6.96-7.35-12.64.41-19.38,1.47-1.27,2.93-2.55,4.35-3.88,6.98-6.58,9.49-14.8,7.13-23.78-2.09-7.97-5.38-15.66-8.49-23.33-3.34-8.23-7.49-16.15-10.56-24.47-4.49-12.18-7.21-24.83-8.66-37.73-.23-2.04-.69-4.06-1.09-6.36-2.61.83-2.14,2.42-1.95,3.83.88,6.28,1.8,12.56,2.77,19.28-7.34.27-14.54.99-21.68.66-7.52-.35-14.49-3.11-20.66-7.46-12.61-8.91-21.08-20.93-26.74-35.03.93.55,2.06.92,2.76,1.68,3.54,3.84,6.73,8.02,10.49,11.62,7.12,6.84,15.67,11.33,25.34,13.65.96.23,2.64.07,3.03-.52.46-.69.2-2.26-.33-3.09-1.54-2.43-3.54-4.59-5.04-7.05-.93-1.53-1.28-3.41-1.89-5.13,3.64,1.22,6.21,5.12,11.62,4.48-1.19-1.2-1.69-2.03-2.42-2.38-10.12-4.73-16.27-12.97-20.32-22.86-6.27-15.34-8.33-31.14-4.71-47.49.83-3.75,1.19-7.6,1.77-11.4Z"/>
  <path class="cls-20" d="m251.51,528.78c-7.42-2.85-14.85-5.69-22.26-8.58-2.1-.82-4.2-1.35-5.02-4.16-.43-1.47-2.66-2.72-4.34-3.48-3.87-1.75-7.91-3.15-11.88-4.69-5.76-4.15-11.72-8.26-15.96-13.92-6.93-9.26-13.23-18.97-19.8-28.49,2.43-.99,3.51.99,4.92,2.21,2.78,2.41,5.37,5.07,8.35,7.21,4.02,2.88,6.04,1.84,5.99-3.13-.04-3.81-.74-7.61-1.14-11.42,3.91,2.84,7.79,5.72,11.74,8.51,10.79,7.63,21.56,15.28,32.46,22.76,1.66,1.14,3.57,3.01,7.2,1.3-23.26-13.02-42.47-30.15-62.87-46.22.99.07,2,.02,2.96.23,5.48,1.19,10.96.86,16.2-.8,2.83-.9,4.83-.3,7.05,1.17,3.23,2.14,6.57,4.11,9.87,6.15,1.6,1.14,3.2,2.28,4.8,3.42.95,1.12,1.41,2.13-.05,3.32-.67.55-.97,1.55-1.44,2.34l.03-.06c-.2.45-.41.9-.61,1.35.13.76.25,1.52.38,2.27.9.83,1.8,1.66,2.69,2.5.99,1.44,3.99.21,3.96,3.27-.04,3.67,2.79,4.91,5.91,4.81,4.21-.14,8.39-.8,12.59-1.24,1.74.74,3.52,1.4,5.21,2.24,3.28,1.63,6.44,3.53,9.78,5.02,7.79,3.46,15.37,2.62,21.85-2.68,5.02-4.11,9.27-9.13,13.86-13.75,3.24-3.63,6.48-7.27,10.15-11.39.54,4.63.99,8.53,1.45,12.43.62,4.37,1.24,8.73,1.98,13.96-9.98,10.76-20.48,22.17-31.12,33.45-1.08,1.14-2.99,1.94-4.6,2.09-8.2.78-16.42.9-24.47-1.26-7.5-2.01-14.22-5.39-19.3-11.44-.57-.68-1.3-1.22-2.8-1.39.19.93.1,2.08.62,2.76,3.77,4.89,8.82,8.18,14.5,10.49,6.96,2.83,14.25,4.01,21.78,3.87,2.51-.05,5.01,0,8.08,0-3.23,3.66-7.14,5.33-11,7.12-1.89.88-3.63,2.08-5.43,3.14-.16-.29-.41-.4-.73-.32-.52-.33-1.04-.65-1.55-.98Z"/>
  <path class="cls-24" d="m87.06,277.79c.61,1.72.96,3.6,1.89,5.13,1.5,2.46,3.49,4.62,5.04,7.05.53.83.78,2.4.33,3.09-.39.59-2.06.75-3.03.52-9.66-2.32-18.22-6.82-25.34-13.65-3.76-3.61-6.95-7.79-10.49-11.62-.7-.76-1.83-1.13-2.76-1.68,0,0,0,0,.01,0-.37-.8-.74-1.61-1.11-2.41v.02c-.35-.8-.71-1.59-1.07-2.39-5.84-11.65-8.96-24.14-11.76-36.74-.41-1.86-1.1-3.65-1.66-5.48.42-3.44-.15-6.6-2.65-9.82-3.35,4.87-2.01,11.57-7.54,14.98-1.19-.93-2.24-1.74-3.29-2.56-.79-2.2-1.59-4.4-2.38-6.6-.76-6.87-1.76-13.72-2.2-20.61-.23-3.61.51-7.28.81-10.92.58-1.17.95-2.52,1.78-3.48,3.66-4.23,7.59-8.23,11.16-12.53,2.97-3.58,5.54-7.47,8.32-11.19,5.83-7.79,12.33-14.93,20.19-20.84,2.91-2.19,5.39-4.95,8.07-7.45.28.91,1.02,1.96.78,2.71-5.43,17.48-8.78,35.56-15.72,52.61-2.03,4.98-3.72,10.18-4.81,15.43-.83,3.99-1.5,8.51,3.06,11.33,1.58-.32,1.68-1.09.7-2.2-.43-1.52-.86-3.04-1.29-4.57.53-.5,1.43-.93,1.54-1.51,1.55-7.74,5.98-14.15,9.89-20.76.85-1.44,2.87-2.21,4.35-3.29.91,5.4,1.81,10.8,2.72,16.2-.04,1.16-.07,2.32-.1,3.48-1.43,10.05-4.33,19.91-3.64,30.24,1.24,18.71,5.87,36.02,20.19,49.5Z"/>
  <path class="cls-25" d="m256.27,303.73c14.07-17.12,25.9-35.56,33.52-56.39,1.71-4.67,2.93-9.58,3.8-14.48.59-3.33,2.09-4.75,5.35-4.67,4.23,1.88,8.46,3.77,13.21,5.89-1.33,5.16-2.3,9.86-3.75,14.41-5.68,17.84-14.41,34.22-25.08,49.59-4.53,6.52-9.53,12.72-14.31,19.07-.39.48-.77.96-1.16,1.44-.71.85-1.41,1.7-2.12,2.55-.69.87-1.38,1.74-2.08,2.61l-.33-.25s.3.28.3.28c-.55.6-1.09,1.21-1.64,1.81-1.3,1.53-2.59,3.06-3.89,4.6-3.61.37-5.48,2.31-5.48,5.93-1.77,1.92-3.54,3.84-5.31,5.76,0,0-.5.12-.5.12,0,0-.12.49-.12.49-.55.57-1.11,1.14-1.66,1.71-.24.24-.49.49-.73.73-.87.87-1.74,1.74-2.61,2.61-2.69-1.83-3.8.65-5.31,1.93-9.58,8.15-18.94,16.57-28.75,24.44-16.33,13.09-32.84,25.94-47.25,41.18-1.59,1.68-3.3,3.33-5.23,4.57-2.22,1.43-4.64,3.13-7.5,1.15,2.06-8.54,6.93-15.61,12.82-21.82,7.35-7.75,15.2-15.04,23.08-22.28,13.76-12.64,27.96-24.82,41.5-37.68,11.41-10.84,22.03-22.48,31.22-35.3Z"/>
  <path class="cls-7" d="m317.03,203.7c-2.45,5.52-7.15,9.21-11.18,13.44-1.7,1.79-3.47,3.51-5.2,5.27-.35.3-.69.61-1.03.91-2.02,1.16-3.96,2.47-6.06,3.44-5.99,2.78-12.05,5.43-18.08,8.11-1.64.73-3.32,1.39-4.8,2.58,3.55,2,6.37-.28,9.34-1.08,3.16-.85,6.21-2.13,10.26-3.56-.27,2.41-.25,4.24-.71,5.95-3.3,12.44-9.13,23.81-15.54,34.88-3.58,6.18-7.8,12.01-11.79,17.96-.93,1.38-2.09,2.6-3.75,4.63-5.4-12.77-11.81-24.03-20.44-33.68-8.43-9.43-17.85-18-27.3-27.41,5.71,1.29,10.91,2.47,16.11,3.65l.36-1.08c-1.08-.55-2.12-1.21-3.26-1.62-6.42-2.31-12.94-4.37-19.28-6.86-11.75-4.61-20.83-12.76-28.94-22.07-.45-.52-.44-1.44-.64-2.17,1.59.66,3.23,1.2,4.75,2,4.6,2.4,9.16,4.89,13.71,7.38,1.32.72,2.57,1.56,3.85,2.35.19,2.03,1.54,2.8,3.34,3.48,13.91,5.26,28.34,8.37,43.16,8.99,13.15.55,25.95-1.9,37.96-7.47,2.34-1.09,5.17-1.9,5.9-4.97,8.87-1.76,16.81-5.56,24.24-10.57,1.53-1.03,3.35-1.66,5.03-2.47Z"/>
  <path class="cls-26" d="m332.5,295.4c2.98-11.19,6.04-22.36,8.89-33.58.9-3.54,1.18-7.24,1.83-10.85.26-1.45.72-2.87,1.21-4.75,4.36,2.98,7.43,5.98,8.42,11.01,4.45,22.6,2.13,44.61-5.59,66.15-2.01,5.62-4.78,10.97-7.21,16.44-.42.8-.85,1.59-1.27,2.39-.4.77-.81,1.54-1.21,2.31l-.27-.27s.28.25.28.25c-.44.75-.87,1.51-1.31,2.26,0,0,0,0,0,0-3.53.61-3.88,3.02-3.41,5.89l-.28-.12s.26.16.26.16c-1.25.67-2.86,1.04-3.68,2.05-3.67,4.5-6.89,9.35-10.67,13.75-7.34,8.54-15.03,16.78-24.81,22.73-2.32,1.41-4.79,2.66-7.34,3.61-2.7,1.02-4.27-.3-3.66-3.04.53-2.42,1.16-4.96,2.42-7.06,7.05-11.77,13.96-23.65,21.6-35.05,7.04-10.49,13.26-21.35,18.46-32.8.91-2,.9-4.41,1.32-6.63-.07-.31.03-.55.32-.7,2.87-.7,2.25-2.86,2.09-4.84,0,0-.02.04-.02.04.35-.91.71-1.81,1.06-2.71-.08-.3.02-.52.3-.65.33-.88.66-1.77.98-2.65-.07-.34.03-.62.31-.83.32-.84.63-1.67.95-2.51Z"/>
  <path class="cls-6" d="m244.72,451.93c1.48-.91,2.97-1.82,4.45-2.73.39-.53.77-1.06,1.16-1.59,0,0,.03.03.03.03,4.22-.38,7.36-2.5,9.75-5.86,1.25-.41,2.7-.55,3.71-1.28,2.33-1.68,4.09-.85,5.49,1,.99,1.31,1.52,2.96,2.22,4.48.73,1.56.57,3.66,3.25,4.93-.56-3.45,2.97-5.98.29-9.08.03-1.56.06-3.12.08-4.69.74,0,1.49-.02,2.23-.02,1.05,1.26,1.81,3.12,4.44,1.74-.39-1.43-.71-2.88-1.2-4.27-.55-1.59-1.25-3.12-1.88-4.69,2.43-1.15,4.61-2.03,6.63-3.16,6.64-3.74,7.48-6.77,4.01-13.64-.14-.28.05-.73.11-1.32,2.18-1.71,4.48-.26,6.45.43,2.87,1,5.28.7,7.81-.72,2.87-1.62,5.82-3.1,8.74-4.64,7.43,4.17,12.51,13.44,11.13,20.32-2.6.72-5.2,1.45-7.8,2.18-1.79-.68-3.57-1.36-6.03-2.29.54,1.52.59,2.17.93,2.55,4.15,4.52,3.33,9.12.01,13.54-1.58,2.11-3.48,4.11-5.6,5.67-7.38,5.4-13.15,12.29-18.88,19.23-1.91.97-3.76,2.11-5.76,2.83-1.6.58-3.41.96-5.09.85-2.54-.16-3.55-2.03-2.06-4.03,1.72-2.31,3.69-4.65,6.08-6.2,2.83-1.83,4.15-4.35,5.62-7.12,1.51-2.83,3.71-5.31,5.71-7.86.77-.98,1.82-1.75,3.71-3.52-2.19.29-3.18.19-3.92.56-4.01,2-6.67,5.21-8.4,9.3-2.65,6.24-7.89,10.1-13.87,12.38-7.8,2.97-15.94,5.14-24.06,7.21-4.11,1.05-8.47,1.26-12.74,1.52-1.05.06-3.12-1.22-3.09-1.82.05-1.25.9-2.88,1.95-3.57,1.56-1.02,3.58-1.36,5.4-2,.28.74.56,1.48.83,2.22.22-.05.45-.11.67-.16-.08-.84-.16-1.67-.24-2.51,4.2-1.22,8.49-5.05,12.93,1.49-.4-2.46-.62-3.84-.83-5.09,5.8-2.54,11.24-4.92,16.75-7.33-2.1-2.14-4.1-1.73-6.47-.63-4.04,1.89-8.21,3.53-12.41,5.06-6.57,2.39-13.19,4.63-19.82,6.84-1.05.35-2.31.49-3.38.27-3-.62-3.57-2.79-1.49-5.08,1.84-2.03,4.17-2.73,6.85-2.5.15.11.29.21.44.32-.16-.09-.32-.19-.48-.28,3.72-1.92,7.43-3.83,11.15-5.75,1.24-.29,2.47-.58,3.71-.87.43.39.85.78,1.27,1.17-.17-.6-.35-1.2-.52-1.8Zm50.21-25.27c2.78-.1,5.4-.57,7.95-3.14-3.86-.54-6.22.55-7.93,3.17-.09.16-.18.32-.28.47.08-.17.17-.33.25-.5Zm10.34-8.63c1.48,2.21,2.67,3.98,3.86,5.76.28-.11.56-.21.83-.32-.29-1.99-.58-3.99-.9-6.19-1.33.26-2.21.44-3.79.75Z"/>
  <path class="cls-20" d="m23.63,222.24c1.05.82,2.09,1.63,3.29,2.56,5.53-3.42,4.19-10.11,7.54-14.98,2.5,3.21,3.07,6.37,2.65,9.82-2.44.92-1.48,2.73-1.17,4.37,3.17,16.54,8.26,32.47,15.72,47.64.85,1.72,1.59,3.49,2.39,5.24-.39.41-.79.83-1.18,1.24-3.48-2.77-7.07-5.43-10.42-8.35-8.01-6.97-16.92-12.49-27.07-15.72-6.07-1.93-9.52-5.84-10.99-11.64-.99-3.91-1.55-7.93-2.3-11.9,0-3.42,0-6.84,0-10.26,2.02-14.37,4.05-28.74,6.07-43.11.71-3.03,1.42-6.05,2.13-9.08.12-.3.27-.59.35-.89.03-.14-.07-.31-.12-.47.3-1.1.6-2.2.89-3.3,1.3-3.55,2.6-7.1,3.89-10.64-.07,6.46-.35,12.94-.1,19.39.1,2.5,1.4,4.96,2.15,7.44.19.34.38.68.57,1.02-.06,1.16-.12,2.32-.18,3.48-2.51,11.47-2.04,22.71,2.7,33.61.63,1.81.77,3.95,3.19,4.54Z"/>
  <path class="cls-16" d="m4.36,484.73c8.92,10.75,20.29,18.19,32.56,24.8,18.18,9.8,36.84,18.5,56.38,25.19,12.28,4.2,24.7,8.3,38.01,7.98-.51,1.01-1.09,2-1.52,3.05-2.27,5.51-1.2,8.95,4.37,13.62-2.01,4.06-3.22,8.32,2.17,12.57-2.14-.14-2.86-.19-3.57-.23-8.69-3.93-17.37-7.87-26.07-11.79-19.22-8.67-37.99-18.08-55.65-29.67-10.4-6.83-21.38-12.81-32.18-19.04-10.33-5.95-14.65-14.99-14.49-26.48Z"/>
  <path class="cls-21" d="m326.49,310.24c-.42,2.22-.41,4.63-1.32,6.63-5.2,11.45-11.42,22.31-18.46,32.8-7.64,11.39-14.55,23.28-21.6,35.05-1.26,2.1-1.89,4.64-2.42,7.06-.61,2.74.97,4.06,3.66,3.04,2.54-.96,5.02-2.2,7.34-3.61,9.79-5.94,17.47-14.18,24.81-22.73,3.78-4.4,7.01-9.25,10.67-13.75.82-1.01,2.43-1.38,3.68-2.05-3.81,5.75-7.3,11.75-11.51,17.2-6,7.77-12.25,15.4-18.93,22.61-4.81,5.2-10.49,9.62-15.77,14.39-2.49-.27-5.12-1.18-7.46-.71-13.69,2.8-27.4,5.79-32.59,21.33-7.33,4.23-15.32,4.34-24.66,4.58,1.24-1.72,1.59-2.33,2.06-2.83,9.73-10.55,19.28-21.27,29.27-31.57,8.1-8.35,16.29-16.7,25.22-24.14,19.77-16.48,34.73-36.38,45.72-59.36.65-1.37,1.52-2.63,2.29-3.95Z"/>
  <path class="cls-18" d="m221.04,371.31c.07,4.19-3.51,5.9-6.04,8.04-14.58,12.32-28.28,25.54-41.63,39.13-.81.82-1.38,1.86-2.09,2.78-4.81,6.15-4.66,8.58,3.76,11.73,10.62,3.97,21.12,2.57,31.08-2.71,5.72-3.04,10.78-6.88,15.35-11.5,10.95-11.06,21.97-22.06,33.23-32.82,10.39-9.93,21.39-19.23,31.62-29.31,7.87-7.75,14.93-16.29,22.41-24.42,1.09-1.19,2.57-2.02,3.87-3.02-.86,1.7-1.58,3.49-2.61,5.08-8.24,12.79-17.98,24.33-29.73,34.13-13.48,11.25-25.72,23.71-37.48,36.67-6.91,7.62-13.88,15.21-21.07,22.57-3.38,3.46-7.18,6.56-11.09,9.44-11.2,8.27-23.48,9.9-36.61,5.2-6.04-2.16-12.07-4.37-18.5-6.7-1.46-2.51.21-4.92,1.79-6.99,3.4-4.46,6.98-8.81,10.79-12.94,3.28-3.56,7.04-6.7,10.45-10.16.73-.74.84-2.08,1.24-3.14,0,0,.06-.06.06-.06,1.49,1.81,2.33,0,3.17-.68,12.05-9.7,24.05-19.46,36.08-29.18.58-.47,1.3-.76,1.96-1.13Z"/>
  <path class="cls-25" d="m153.85,476.63c-12.51-8.3-25.46-15.78-39.79-20.68-.88-.3-1.79-.75-2.46-1.37-2.83-2.64-5.39-5.59-8.4-8.01-2.99-2.4-6.4-4.3-10.31-6.87,1.74-.18,2.92-.41,4.11-.41,6.84-.01,13.69.13,20.53.01,7.05-.12,11.99,2.67,14.49,9.34.47,1.25,1.29,2.37,1.95,3.54,1.13,2.79,1.36,6.12,5.18,8.28-.36-4.51-2.25-7.57-4-10.68-2.2-3.93-4.4-7.87-6.5-11.63,9.01-1.33,28.8,7.56,38.32,25.39.32.48.64.96.96,1.43,0,0,.04.06.04.06.46.71.92,1.42,1.37,2.12,0,0,0,0,0,0,.56,2.4,1.22,4.79,1.65,7.22.64,3.61,2.89,7.12.89,11.58-1.93-1.07-3.5-2.13-5.22-2.87-2.63-1.13-5.36-2.03-8.05-3.03-.43-.32-.86-.64-1.29-.96-.67-.48-1.34-.97-2.02-1.45,0,0-.16-.11-.16-.11-.43-.31-.85-.61-1.28-.92Z"/>
  <path class="cls-16" d="m306.74,502.1c6.8,1.05,11.11,6.18,16.27,9.84,12.45,8.82,25.25,17.02,40.09,21.28,13.03,3.74,26.39,4.96,39.93,2.81,7.68-1.22,15.4-2.17,23.07-3.42,9.49-1.54,18.48-4.75,27.35-8.33,1.57-.63,3.34-.77,5.02-1.13-4.18,3.1-8.15,6.51-12.56,9.25-15.46,9.59-32.21,16.38-49.57,21.81-3.29,1.03-6.42,1.32-9.64.02-18.4-10.04-36.94-19.84-55.13-30.22-7.38-4.21-14.01-9.71-21.04-14.54-1.56-1.07-3.35-1.82-5.04-2.72-.38-.6-.76-1.19-1.14-1.79l2.41-2.84Z"/>
  <path class="cls-9" d="m256.27,303.73c-9.18,12.82-19.8,24.46-31.22,35.3-13.54,12.86-27.74,25.04-41.5,37.68-7.88,7.23-15.73,14.53-23.08,22.28-5.89,6.21-10.76,13.28-12.82,21.82-.71,2.34-1.41,4.69-2.12,7.03-.8-.03-1.61-.06-2.41-.09,1.29-10.28,5.77-19.25,12.44-26.98,5.93-6.88,12.53-13.2,19-19.61,3.43-3.4,7.19-6.47,11.19-10.03-1.62-.87-2.91-1.57-4.22-2.25-7.86-4.1-10.55-9.23-9.2-18.03.47-3.04,1.12-6.09,2.1-8.99,4.05-11.92.64-21.5-8.89-29.4-6.13-5.08-12.15-10.29-18.14-15.53-1.36-1.19-3.46-2.14-2.69-4.62,2.17,1.5,4.49,2.84,6.49,4.54,6.63,5.64,13.3,11.25,19.66,17.19,6.72,6.26,9.07,14.13,7.39,23.13-.35,1.89-.7,3.78-1.05,5.66-.74,2.76-1.74,5.48-2.19,8.29-1.25,7.98,1.19,12.39,8.48,15.77,1.56.72,3.23,1.24,5.08,1.93,5.59-4.9,11.16-9.7,16.63-14.61,4.75-4.28,9.34-8.73,14.07-13.04,1.61-1.46,2.41-2.99,1.36-5.06-1.81-3.59-3.63-7.16-5.45-10.75-6.38-13.87-17.23-24.6-27.19-36.26,1.22-.42,1.8-.74,1.9-.63,6.73,7.41,13.42,14.86,20.12,22.3.51.7,1.01,1.39,1.52,2.09.32.45.64.9.96,1.35,3.82,7.22,7.64,14.43,11.73,22.17,4.88-5.13,9.6-10.09,14.58-15.31-2.63-3.45-4.93-6.47-7.23-9.49-.02-.36-.19-.64-.49-.85-.29-.37-.57-.75-.86-1.12-.32-.45-.64-.91-.96-1.36-.36-.52-.71-1.04-1.07-1.57-.03-.3-.18-.51-.46-.62-.32-.43-.63-.85-.95-1.28-.28-.42-.57-.84-.85-1.26-.52-.7-1.04-1.39-1.56-2.09l-.04-.06-.97-1.3v.02c-.46-.67-.94-1.33-1.41-2l-.09-.14c-.32-.41-.64-.83-.96-1.24v-.02c-.36-.48-.7-.95-1.04-1.43-1.21-1.72-2.37-3.49-3.65-5.17-5.73-7.48-11.49-14.94-17.25-22.4.67-.43,1.34-.86,2.01-1.29,10.71,13.9,21.44,27.77,32.1,41.71,2.54,3.32,4.8,6.84,7.4,10.58,4.91-5.65,9.57-11.01,14.22-16.37.52.47,1.04.94,1.56,1.41Z"/>
  <path class="cls-11" d="m246.59,427.52c5.19-15.54,18.9-18.53,32.59-21.33,2.34-.48,4.96.44,7.46.71,2.57,3.32,6.22,2.25,9.6,2.29,2.29.91,4.39.76,6.5-.71,1.56-1.09,3.38-1.84,5.08-2.74.42-.33.84-.65,1.25-.98l.12-.12c.3-.82.59-1.65.89-2.47h-.03c2.42.41,4.84.83,7.26,1.25,4.67,1.84,7.08,5.8,9.22,9.89,2.96,5.67,4.5,11.79,5.13,18.14.22,2.28.59,4.55.89,6.83-.39,4.65-.78,9.3-1.17,13.94-.69,0-1.39-.02-2.08-.02.12-6.85,1.45-13.74-.61-20.89-4.16.92-8.06,1.78-12.01,2.65-.16,6.81-3.06,11.81-7.51,16.23-1.19,1.19-1.97,3.29-2.02,4.99-.12,4.02.31,8.06.52,12.1-.7,0-1.39.01-2.09.02-.45-3.9-.91-7.8-1.45-12.43-3.67,4.12-6.91,7.75-10.15,11.39-2.37.78-4.74,1.56-7.1,2.34-.2-.19-.4-.38-.61-.57,5.74-6.94,11.5-13.83,18.88-19.23,2.13-1.56,4.02-3.56,5.6-5.67,3.32-4.42,4.14-9.02-.01-13.54-.35-.38-.39-1.03-.93-2.55,2.46.93,4.24,1.61,6.03,2.29.88.47,1.84,1.46,2.61,1.32,3.03-.53,5.99-1.42,8.86-2.14.81-6.06-1.24-12.3-6.31-18.8-1.27-1.63-3.03-2.92-4.71-4.18-1.75-1.3-2.85-.08-3.78,1.3-2.92,1.54-5.87,3.02-8.74,4.64-2.53,1.43-4.94,1.72-7.81.72-1.97-.69-4.27-2.13-6.45-.43-.06.6-.25,1.04-.11,1.32,3.47,6.87,2.62,9.91-4.01,13.64-2.02,1.14-4.19,2.01-6.63,3.16.64,1.57,1.33,3.11,1.88,4.69.48,1.39.8,2.84,1.2,4.27-2.63,1.38-3.39-.49-4.44-1.74-.67-1.82-1.34-3.65-2-5.48-.49.16-.98.32-1.46.48.41,1.67.82,3.35,1.23,5.02-.03,1.56-.06,3.12-.08,4.69-2.41-.01-3.47-1.32-3.67-3.59-.13-1.41-.45-2.8-.68-4.13-3.31.14-3.82,4.31-7.98,3.74.87-1.7,1.18-3.38,2.19-4.08,3.63-2.51,7.42-4.83,11.31-6.95,2.68-1.46,5.62-2.46,8.93-3.88-2.97-1.03-5.25-1.83-7.54-2.63,3.58-.77,7.16.68,10.02-2.77-1.87-2.22-3.9-2.68-6.37-1.98-2.36.66-5.66.46-6.92,1.97-1.93,2.32-4.51,1.39-6.44,2.66-4.53,2.98-9.06,5.98-13.6,8.94-1.25.81-2.54,1.56-3.82,2.33-.46-.8-.92-1.61-1.38-2.41-1.14.49-2.28.99-3.42,1.48.3-1,.6-2,.9-3.01Zm28.39-15.92c-1.7-.81-3.39-2.32-4.96.27-.31.52-1.12,1.15-1.63,1.09-7.42-.88-11.47,4.31-15.79,8.72-1.06,1.08-.94,3.3-1.68,6.25,7.69-5.76,14.32-10.4,22.05-13.28.92-.34,1.32-2.04,1.96-3.1,3.17,1.74,6.27,2.12,9.5-.24-3.89-3.19-6.7-3.02-9.46.3Z"/>
  <path class="cls-21" d="m307.65,467.27c-.21-4.03-.64-8.07-.52-12.1.05-1.71.83-3.81,2.02-4.99,4.44-4.42,7.35-9.43,7.51-16.23,3.96-.87,7.85-1.73,12.01-2.65,2.06,7.14.72,14.04.61,20.89-1.66,7.12-3.06,14.31-5.08,21.32-.88,3.06-2.68,6.03-4.69,8.55-2.99,3.75-6.11,3.42-8.05-.92-1.55-3.47-2.21-7.34-3.24-11.04-.26-.92-.39-1.88-.58-2.82Z"/>
  <path class="cls-21" d="m75.12,465.03c3.23,1.21,6.65,2.07,9.65,3.7,11.07,6.01,21.91,12.46,33.02,18.4,9.51,5.08,19.66,8.21,30.65,8.09,4.4-.05,8.8,0,13.31,0,.5-4.08-1.67-6.04-3.65-8.12-1.41-1.48-3.57-2.64-2.7-5.28,6.53,5.17,13.05,10.35,20.41,16.18-3.14,1.56-5.19,3.1-7.48,3.62-8.99,2.02-18.12,3.08-27.36,2.31-10.8-.9-20.53-4.92-29.41-10.76-7.31-4.81-14.25-10.19-21.19-15.53-5.22-4.02-10.17-8.38-15.24-12.59Z"/>
  <path class="cls-21" d="m357.68,288.53c.27,1.86.73,3.73.76,5.59.24,12.16-.25,24.27-2.28,36.3-.67,3.97-.87,8.03-1.19,12.05-.12,1.53-.28,3.16.09,4.62,1.92,7.68.88,7.93,8.79,7.55,4.64-.22,8.6.87,11.4,4.6.94,1.26,1.15,3.05,1.69,4.59-1.38.47-2.76.93-4.14,1.4-5.28-2.64-10.52-1.64-15.67.35-1.62.62-3.08,1.66-4.65,2.52-3.55,0-5.54-1.96-7.04-4.98-2.15-4.31-4.61-8.47-7.24-13.24,1.44-2.77,3.18-5.97,4.8-9.24,8.15-16.48,12.77-33.93,14.68-52.12Z"/>
  <path class="cls-1" d="m190.37,460.32c.4,3.81,1.1,7.61,1.14,11.42.05,4.96-1.97,6.01-5.99,3.13-2.98-2.14-5.57-4.8-8.35-7.21-1.41-1.22-2.49-3.2-4.92-2.21,0,0-.05-.08-.05-.08-.3-.49-.59-.97-.89-1.46-2.15-2.74-4.29-5.49-6.45-8.23-4.71-5.96-9.86-11.45-17.54-14.88,2.76-2.12,5.2-2.61,7.62-1.87,4.45,1.36,9.27,2.34,13.08,4.78,7.35,4.71,14.11,10.32,21.11,15.55.4.34.81.69,1.21,1.03l.03.03Z"/>
  <path class="cls-19" d="m301.63,505.41c-1.51,2.89-3.51,5.64-4.42,8.7-1.22,4.12-3.55,6.65-7.6,7.95-6.86,2.22-13.68,4.56-20.51,6.85-2.59.32-5.18.63-7.76.95.36-.45.62-1.07,1.09-1.31,10.09-5.21,17.6-13.36,25.08-21.52,7.08-7.71,14.05-15.52,21.24-23.48,2.12,1.5,3.94,2.79,5.19,3.68-4.11,6.07-8.21,12.13-12.31,18.18Z"/>
  <path class="cls-19" d="m145.52,427.84c.71-2.34,1.41-4.69,2.12-7.03,2.86,1.98,5.28.28,7.5-1.15,1.93-1.24,3.65-2.89,5.23-4.57,14.41-15.23,30.92-28.08,47.25-41.18,9.81-7.87,19.17-16.29,28.75-24.44,1.51-1.28,2.62-3.75,5.31-1.93-7.28,6.95-14.27,14.22-21.89,20.78-10.01,8.61-20.57,16.58-30.75,25-3.3,2.73-6.15,5.98-9.21,8.99,0,0-.06.06-.06.06-.67.16-1.56.1-1.97.51-6.82,6.91-13.71,13.76-20.3,20.88-3.04,3.28-5.26,7.21-5.32,11.85-1.94.77-3.72,1.47-5.51,2.18-.27-.04-.52.01-.75.16-.13-3.37-.27-6.74-.4-10.11Z"/>
  <path class="cls-11" d="m235.75,466.55c-1.82.63-3.84.97-5.4,2-1.05.69-1.9,2.32-1.95,3.57-.02.6,2.04,1.88,3.09,1.82,4.27-.26,8.63-.47,12.74-1.52,8.11-2.07,16.25-4.24,24.06-7.21,5.98-2.28,11.23-6.14,13.87-12.38,1.73-4.09,4.39-7.3,8.4-9.3.74-.37,1.72-.27,3.92-.56-1.89,1.77-2.94,2.54-3.71,3.52-2,2.55-4.21,5.03-5.71,7.86-1.48,2.76-2.79,5.28-5.62,7.12-2.39,1.55-4.36,3.89-6.08,6.2-1.49,2-.49,3.87,2.06,4.03,1.68.11,3.49-.27,5.09-.85,2-.72,3.85-1.87,5.76-2.83.2.19.4.38.6.57-.37,1.1-.73,2.21-1.1,3.31-1.56.71-3.12,1.42-4.68,2.14-7.97,1.92-9.78,1.1-11.82-5.44-6.65,1.92-13.31,3.84-19.96,5.75-2.02.36-4.03.71-6.05,1.07-4.2.44-8.38,1.09-12.59,1.24-3.12.1-5.95-1.14-5.91-4.81.03-3.06-2.97-1.83-3.95-3.27-.9-.83-1.8-1.66-2.69-2.5-.13-.76-.25-1.52-.38-2.27.2-.45.41-.9.61-1.35,0,0-.03.06-.03.06,2.79-1.93,5.58-3.87,8.37-5.8h0c1.17-.38,2.35-.78,3.52-1.17,0,0,0,0,0,0,1.97-.74,3.95-1.48,5.92-2.22l.04-.02c1.37.04,2.73.09,4.1.13-3.71,1.92-7.43,3.83-11.15,5.75l.03-.03c-2.68-.23-5.01.47-6.85,2.5-2.08,2.29-1.5,4.46,1.49,5.08,1.07.22,2.33.08,3.38-.27,6.63-2.21,13.25-4.45,19.82-6.84,4.2-1.53,8.37-3.17,12.41-5.06,2.37-1.11,4.37-1.51,6.47.63-5.51,2.41-10.95,4.79-16.75,7.33.2,1.25.43,2.63.83,5.09-4.44-6.55-8.73-2.72-12.92-1.49-.42.15-.85.3-1.27.44Z"/>
  <path class="cls-1" d="m336.28,353.37c5.97,4.75,5.42,13.75,13.59,17.41-2.44,1.78-4.35,4.14-6.69,4.69-6.82,1.6-11.83,5.62-16.53,10.32-1.21,1.21-2.52,2.33-4.31,3.97-.84-2.82-.2-5.17-.08-7.49.36-6.86,2.08-13.12,6.86-18.5,2.77-3.12,4.79-6.9,7.16-10.41Z"/>
  <path class="cls-1" d="m361.97,465c-.56.19-1.12.39-1.67.58-1.72-.45-3.44-.91-5.1-1.34,4.8-6.58,9.3-12.75,13.8-18.92,7.94.29,15.87.58,25.07.91-5.87,5.79-10.65,10.73-15.72,15.36-1.12,1.02-3.21,1.1-4.89,1.42-2.49.48-5.01.78-7.52,1.16-1.32.28-2.65.55-3.97.83Z"/>
  <path class="cls-19" d="m331.37,452.2c.39-4.65.78-9.3,1.17-13.94,1.15,6.15,2.32,12.3,3.42,18.45.23,1.3.21,2.64.32,4.16,2.89.41,4.59-.91,5.79-3.03,3.5-6.17,7-12.35,10.39-18.59,1.18-2.18,2.04-4.53,3.04-6.81,1.48,13.43-2.68,24.77-13.02,33.73-5.26,4.55-10.65,8.96-16.57,13.04,2.31-9.09,5.39-17.75,5.45-27.01Z"/>
  <path class="cls-18" d="m357.55,414.36l1.08-5.35c.3,0,.6,0,.9-.01.41,1.42.81,2.85,1.22,4.27.7,2.38,1.18,4.86,2.15,7.13,2.15,5.05,4.92,5.45,8.41,1.03,5.46-6.93,8.58-14.96,10.58-23.45.21-.9.61-1.76.92-2.64.1.76.17,1.52.3,2.28,2.91,17.01-4.75,29.39-17.7,39.46-2.07,1.61-4.16,3.19-7.07,5.43v-13.51c.02-3.48.04-6.95.06-10.43-.28-1.4-.57-2.8-.85-4.2Z"/>
  <path class="cls-18" d="m216.46,452.05c-3.68-2.7-7.36-5.39-11-8.07.27-.44.34-.61.46-.72,6.26-5.92,13.24-5.85,20.93-2.98,5.87,2.19,11.35,4.84,16.63,8.98-2.69,1.48-5,2.76-7.31,4.03,0,0-.04.02-.04.02-1.97.74-3.95,1.48-5.92,2.22,0,0,0,0,0,0-1.17.39-2.35.78-3.52,1.17,0,0,0,0,0,0-2.9,1.02-4.59-1.51-6.88-2.29-1.11-.79-2.23-1.57-3.34-2.36Z"/>
  <path class="cls-16" d="m340.05,480.61c3.53,3.16,8.16,1.97,12.24,2.77,8.18,1.6,16.53,2.37,24.83,3.4,2.13.26,4.29.24,6.44.26,11.73.12,23.46.21,35.19.31-.92.26-1.81.61-2.75.76-17.09,2.85-34.25,4.66-51.62,3.39-9.32-1.56-18.64-3.13-28.14-4.72-.18-3.15,2.21-4.42,3.81-6.17Z"/>
  <path class="cls-19" d="m307.81,405.73c-1.7.9-3.52,1.65-5.08,2.74-2.1,1.47-4.2,1.62-6.5.71-1.82-.53-3.64-1.06-6.21-1.81,12.06-8.24,19.68-20.22,30.22-31.32-.58,6.08-.85,10.95-1.62,15.74-.24,1.49-1.75,2.84-2.85,4.11-1.84,2.14-3.81,4.17-5.73,6.25,0,0,.03.01.03.02-.3.82-.59,1.65-.89,2.47,0,0-.12.12-.12.11-.42.33-.84.65-1.25.98Z"/>
  <path class="cls-19" d="m158.6,480.06c2.69,1,5.42,1.91,8.05,3.03,1.72.74,3.29,1.79,5.22,2.87,2.01-4.45-.25-7.96-.89-11.58-.43-2.43-1.09-4.81-1.65-7.22,1.7,2.31,3.5,4.55,5.07,6.94,6.59,9.99,13,20.11,22.46,28.45-6.6-1.9-12.7-3.64-18.79-5.42-.52-.15-1.04-.45-1.45-.81-6.02-5.41-12.02-10.84-18.03-16.26Z"/>
  <path class="cls-19" d="m369,445.32c-4.5,6.17-9,12.33-13.8,18.92,1.66.44,3.38.89,5.1,1.34-11.42,3.73-21.16,9.77-27.88,20.22-2.61-.41-5.07-.79-8.3-1.29,1.31-1.17,2.16-1.98,3.07-2.73,6.42-5.31,13.03-10.41,19.22-15.97,4.34-3.9,8.02-8.6,9.63-14.28,1.34-4.74,4.09-6.72,8.89-6.37,1.36.1,2.72.1,4.08.15Z"/>
  <path class="cls-9" d="m364.39,491.5c17.37,1.27,34.53-.54,51.62-3.39.93-.16,1.83-.51,2.75-.76,13.48-1.75,26.64-4.8,39.26-9.95,1.06,2.88-1.11,3.17-2.29,3.54-7.41,2.31-14.76,5.09-22.37,6.46-14.33,2.6-28.83,4.36-43.25,6.47-1.26-.35-2.51-.98-3.78-1.01-5.27-.12-10.55-.11-15.82,0-1.28.03-2.54.63-3.81.96-2.73-.33-5.46-.65-8.18-.98,1.96-.45,3.91-.89,5.87-1.34Z"/>
  <path class="cls-19" d="m385.55,391.85c3.75,4.35,5.79,4.57,10.13,1.02,5.7-4.66,8.61-10.82,9.82-17.9.39-2.27.94-4.51,1.41-6.77,1.82,8.03.35,15.69-3.08,22.98-3.78,8.03-10.51,13.55-17.66,19.9-.23-7.07-.43-13.15-.63-19.23Z"/>
  <path class="cls-19" d="m245.69,430.53c1.14-.49,2.28-.99,3.42-1.48.03.76.06,1.52.09,2.29-.44.74-.87,1.48-1.31,2.23-.17.39-.34.78-.51,1.18.2,1.35.37,2.71.7,4.03.02.09,1.36-.15,2.09-.24l-.09.19c-1.58,2.69.89,2.58,2.28,3.22.48.27.97.55,1.45.82l.25.15c-.53.75-1.06,1.5-1.59,2.25-.73.41-1.47.83-2.2,1.24-2.59,1.17-4.74,1.46-7.38-.67-5.8-4.69-12.67-7.47-20-9.11-1.45-.32-2.87-.78-5.29-1.45,6.8-.51,12.58-.66,18.26-1.49,3.36-.49,6.56-2.06,9.83-3.14Z"/>
  <path class="cls-18" d="m249.32,344.62c.16.88.78,2.19.41,2.57-3.56,3.67-7.22,7.26-11.03,10.68-.69.62-2.19.35-3.32.49,4.65-4.58,9.29-9.16,13.94-13.74Z"/>
  <path class="cls-11" d="m250.28,446.38c.73-.41,1.47-.83,2.2-1.24,1.38-.16,3.08-.1,1.59-2.25,0,0-.25-.15-.25-.15-.48-.27-.97-.55-1.45-.82-1.39-.64-3.86-.53-2.28-3.22,3.34,1.02,6.69,2.05,10.03,3.07-2.39,3.36-5.53,5.48-9.75,5.86-.03-.42-.06-.84-.09-1.25Z"/>
  <path class="cls-18" d="m233.96,359.68c-1.79,5.6-5.35,9.31-11.41,10.31,3.8-3.44,7.6-6.87,11.41-10.31Z"/>
  <path class="cls-9" d="m135.14,449.8c1.75,3.11,3.63,6.18,4,10.68-3.81-2.16-4.05-5.49-5.18-8.28.39-.8.79-1.6,1.18-2.4Z"/>
  <path class="cls-18" d="m259.59,333.62c-.75,4.86-4.05,8.42-8.08,8.7,2.69-2.9,5.39-5.8,8.08-8.7Z"/>
  <path class="cls-11" d="m358.39,418.55c-.02,3.48-.04,6.95-.06,10.43-.69,0-1.39,0-2.08-.01.31-3.48.62-6.95.93-10.43.4,0,.8,0,1.21.01Z"/>
  <path class="cls-19" d="m252.61,336.12c0-3.62,1.87-5.56,5.48-5.93-1.83,1.98-3.65,3.95-5.48,5.93Z"/>
  <path class="cls-11" d="m216.46,452.05c1.11.79,2.23,1.57,3.34,2.35,0,.81,0,1.62,0,2.43-1.6-1.14-3.2-2.28-4.8-3.42.49-.46.98-.91,1.47-1.37Z"/>
  <path class="cls-21" d="m332.88,352.65c-.47-2.87-.12-5.28,3.41-5.89-1.14,1.96-2.27,3.92-3.41,5.89Z"/>
  <path class="cls-9" d="m261.34,529.87c2.59-.32,5.18-.63,7.76-.95-.04.3-.06.6-.07.91-1.48.15-2.96.29-4.44.43-.4,0-.8,0-1.2,0-.68-.13-1.36-.26-2.04-.39Z"/>
  <path class="cls-18" d="m264.43,328.08c.25,2.33-.61,3.69-3.17,3.59,1.06-1.2,2.12-2.39,3.17-3.59Z"/>
  <path class="cls-21" d="m328.91,304.71c.16,1.97.78,4.14-2.09,4.84.7-1.61,1.4-3.22,2.09-4.84Z"/>
  <path class="cls-21" d="m154.21,481.07c-2.13.3-3.95.19-3.55-2.73,1.18.91,2.37,1.82,3.55,2.73Z"/>
  <path class="cls-19" d="m52.86,278.12c.39-.41.79-.83,1.18-1.24.63.87,1.26,1.74,1.88,2.61-.13.19-.27.38-.4.58-.89-.65-1.78-1.29-2.67-1.94Z"/>
  <path class="cls-9" d="m286.63,297.87c-.75,1.12-1.51,2.23-2.26,3.35.75-1.12,1.51-2.23,2.26-3.35Z"/>
  <path class="cls-21" d="m145.83,475.19c-1.93.38-3.09-.38-3.51-2.27,1.17.76,2.34,1.52,3.51,2.27Z"/>
  <path class="cls-9" d="m281.88,304.83c-.76,1.06-1.51,2.13-2.27,3.19.76-1.06,1.51-2.13,2.27-3.19Z"/>
  <path class="cls-9" d="m279.43,308.3c-.71.95-1.42,1.89-2.13,2.84.71-.95,1.42-1.89,2.13-2.84Z"/>
  <path class="cls-21" d="m357.46,267.65c.15,1.78.29,3.56.43,5.34-.15-1.78-.29-3.56-.43-5.34Z"/>
  <path class="cls-9" d="m275.94,312.97c-.33.73-.66,1.45-.99,2.18-.38,0-.75.08-1.09.26.69-.81,1.39-1.62,2.08-2.44Z"/>
  <path class="cls-19" d="m263.64,323.75l2.08-2.61c-.69.87-1.38,1.74-2.08,2.61Z"/>
  <path class="cls-19" d="m361.97,465c1.32-.28,2.65-.55,3.97-.83-1.32.28-2.65.55-3.97.83Z"/>
  <path class="cls-21" d="m331.24,298.74c-.33.88-.66,1.76-.98,2.65.33-.88.66-1.77.98-2.65Z"/>
  <path class="cls-18" d="m313.92,327.02c.45-.74.89-1.48,1.34-2.22-.45.74-.89,1.48-1.34,2.22Z"/>
  <path class="cls-18" d="m312.59,329.2c.45-.74.9-1.48,1.35-2.22-.45.74-.9,1.48-1.35,2.22Z"/>
  <path class="cls-19" d="m267.84,318.59c.39-.48.77-.96,1.16-1.44-.39.48-.77.96-1.16,1.44Z"/>
  <path class="cls-21" d="m332.5,295.4c-.32.84-.63,1.67-.95,2.51.32-.84.63-1.67.95-2.51Z"/>
  <path class="cls-9" d="m288.87,294.4c-.36.57-.73,1.14-1.09,1.71.36-.57.73-1.14,1.09-1.71Z"/>
  <path class="cls-21" d="m338.78,342.21c.42-.8.85-1.59,1.27-2.39-.42.8-.85,1.59-1.27,2.39Z"/>
  <path class="cls-21" d="m337.58,344.52c.41-.77.81-1.54,1.22-2.31-.4.77-.81,1.54-1.22,2.31Z"/>
  <path class="cls-21" d="m336.28,346.77c.44-.75.87-1.51,1.31-2.26-.44.75-.87,1.51-1.31,2.26Z"/>
  <path class="cls-17" d="m51.6,264.22c.37.8.74,1.61,1.11,2.41-.37-.8-.74-1.61-1.11-2.41Z"/>
  <path class="cls-18" d="m272.75,317.88c-.48.64-.96,1.28-1.45,1.92.48-.64.96-1.28,1.45-1.92Z"/>
  <path class="cls-17" d="m50.53,261.85c.36.8.72,1.59,1.08,2.39-.36-.8-.72-1.59-1.08-2.39Z"/>
  <path class="cls-18" d="m317.3,321.07c.41-.77.83-1.54,1.24-2.32-.41.77-.83,1.54-1.24,2.32Z"/>
  <path class="cls-21" d="m329.95,302.03c-.35.9-.71,1.81-1.06,2.71.35-.9.71-1.81,1.06-2.71Z"/>
  <path class="cls-9" d="m304.33,504.94c.38.6.76,1.19,1.14,1.79-.5-.33-1-.66-1.5-1,.18-.24.3-.5.36-.79Z"/>
  <path class="cls-19" d="m155.29,477.65c.67.48,1.34.97,2.02,1.45-.67-.48-1.34-.97-2.02-1.45Z"/>
  <path class="cls-21" d="m147.97,476.61c-.7-.47-1.41-.93-2.11-1.4.7.47,1.41.93,2.11,1.4Z"/>
  <path class="cls-21" d="m138.67,470.68c-.75-.45-1.5-.91-2.25-1.36.75.45,1.5.91,2.25,1.36Z"/>
  <path class="cls-18" d="m316.06,323.31c.41-.74.82-1.49,1.23-2.23-.41.74-.82,1.49-1.23,2.23Z"/>
  <path class="cls-19" d="m169.34,467.18c-.46-.71-.92-1.42-1.37-2.12.46.71.92,1.42,1.37,2.12Z"/>
  <path class="cls-19" d="m261.97,325.59c.55-.6,1.09-1.21,1.64-1.81-.55.6-1.09,1.21-1.64,1.81Z"/>
  <path class="cls-18" d="m315.24,324.81c.26-.48.53-.97.79-1.45-.26.48-.53.97-.79,1.45Z"/>
  <path class="cls-18" d="m266.86,325.1s-.07.51-.07.51c0,0-.48.18-.48.18.19-.23.37-.46.56-.68Z"/>
  <path class="cls-11" d="m250.33,447.61c-.39.53-.77,1.06-1.16,1.59.39-.53.77-1.06,1.16-1.59Z"/>
  <path class="cls-9" d="m145.92,437.95c.23-.15.48-.2.75-.16,0,0-.34.27-.34.27l-.42-.11Z"/>
  <path class="cls-20" d="m190.34,460.3c-.4-.34-.81-.69-1.21-1.03.4.34.81.69,1.21,1.03Z"/>
  <path class="cls-21" d="m73.63,464.04c.49.32.98.65,1.47.97-.49-.32-.98-.65-1.47-.97Z"/>
  <path class="cls-19" d="m167.93,464.99c-.32-.48-.64-.96-.96-1.43.32.48.64.96.96,1.43Z"/>
  <path class="cls-20" d="m171.31,463.91c.3.49.59.97.89,1.46-.3-.49-.59-.97-.89-1.46Z"/>
  <path class="cls-18" d="m269.16,322.39c-.31.36-.62.72-.93,1.08.31-.36.62-.72.93-1.08Z"/>
  <path class="cls-18" d="m270.26,321.08c-.34.4-.68.8-1.02,1.21.34-.4.68-.8,1.02-1.21Z"/>
  <path class="cls-21" d="m140.36,471.61c-.55-.3-1.11-.6-1.66-.91.55.3,1.11.6,1.66.91Z"/>
  <path class="cls-21" d="m142.3,472.9c-.46-.29-.93-.58-1.39-.87.46.29.93.58,1.39.87Z"/>
  <path class="cls-19" d="m153.85,476.63c.43.31.85.61,1.28.92-.43-.31-.85-.61-1.28-.92Z"/>
  <path class="cls-18" d="m222.17,370.3c-.28.26-.56.52-.84.78.28-.26.56-.52.84-.78Z"/>
  <path class="cls-18" d="m271.32,319.78c-.35.42-.69.84-1.04,1.27.35-.42.69-.84,1.04-1.27Z"/>
  <path class="cls-18" d="m235.1,358.6c-.3.29-.61.58-.91.87.3-.29.61-.58.91-.87Z"/>
  <path class="cls-19" d="m244.29,344.93c.24-.24.49-.49.73-.73-.24.24-.49.49-.73.73Z"/>
  <path class="cls-18" d="m273.83,316.52c-.31.38-.62.77-.94,1.15.31-.38.62-.77.94-1.15Z"/>
  <polygon class="cls-19" points="246.68 342.49 246.8 342 247.29 341.87 247.21 342.39 246.68 342.49"/>
  <path class="cls-18" d="m273.86,315.4c.34-.18.7-.26,1.09-.26-.36.43-.71.87-1.07,1.3-.09-.35-.09-.69-.02-1.04Z"/>
  <path class="cls-9" d="m287.43,296.68c-.24.35-.48.7-.72,1.04.24-.35.48-.7.72-1.04Z"/>
  <path class="cls-10" d="m297.33,521.97c3.45-2.46,6.93-4.88,10.35-7.38,2.58-1.88,4.39-.04,6.3,1.18,7.37,4.7,14.54,9.75,22.1,14.11,12.81,7.39,25.86,14.36,38.8,21.52.95.52,1.82,1.18,3.62,2.35-8.86,1.05-16.67,1.95-24.47,2.9-8.1.99-16.2,2.06-24.31,3.04-7.72.94-15.44,2.07-23.19,2.66-25.54,1.95-50.59,6.03-74.88,14.45-14.59,5.06-29.78,7.46-45.3,7.8-8.36.18-16.72.93-25.07,1.43-.44-1.56-.72-2.57-1.07-3.8-5.8,1.83-10.78,7.21-18.25,3.01,2.77-1.4,4.9-2.48,7.04-3.56-.1-.42-.2-.84-.31-1.26-.97,0-1.95.04-2.91,0-1.87-.09-4.12.35-5.5-.53-1.33-.85-2.18-3.02-2.39-4.71-.08-.66,2.09-1.72,3.35-2.39,1.83-.98,4.74-.19,5.84-3.89-1.98.2-3.37.42-4.77.46-2.3.06-4.83.57-6.07-2.24,9.63-.16,11.97-.97,13.83-4.86-1.87-.72-3.73-1.43-5.59-2.14.62-.7,1.24-1.39,2.11-2.37-2.49-1.93-5.23-.84-7.7-.98-3.13-.17-5.9-.85-6.91-4.08-.97-3.1-.61-6.03,2.65-7.88,1.48,4.75,2.63,5.92,7.19,6,14.84.26,29.61,0,44.29-2.92,12.4-2.46,24.89-4.42,37.68-4.07,17.37.48,34.72.34,51.87-3.35,8.84-1.9,17.47-3.96,25.01-9.23,2.36-1.65,4.1-3.47,4.61-6.82-1.21-.47-2.36-1.01-3.58-1.38-1.43-.43-2.91-.72-4.37-1.07Zm-96.5,45.64c-7.11.28-14.23.5-21.94,3.83,8.5.79,15.36-.78,21.94-3.83Zm-12-8.39c-6.64-.66-11.71.59-16.32,3.7,5.19-.81,10.78.23,16.32-3.7Z"/>
  <path class="cls-7" d="m376.5,564.7c.18.34.49.66.54,1.02,1.06,7.57-1.02,9.37-8.3,6.85-3.22-1.12-6.25-2.77-9.91-4.43,1.67,4.02,4.76,5.83,14.6,9.1-.28,4.93-5.17,2.74-8.25,5.22,2.7.62,4.73,1.09,6.89,1.58.69,2.99-.97,3.99-3.45,3.81-4.46-.33-8.89-1.26-13.35-1.39-10.13-.29-20.3-.68-30.42-.25-14.83.63-29.64,2.32-44.09-2.73-8.1-2.83-16.24-5.56-24.36-8.36-.67-.23-1.25-.72-3.03-1.76,6.14-1.44,11.09-2.97,16.15-3.72,9.82-1.46,19.71-2.48,29.56-3.67,8.69-1.06,17.38-2.15,26.08-3.16,8.13-.94,16.25-2.03,24.41-2.51,2.48-.15,5.16-2.67,7.66,0-.48,3.24,1.1,4.64,4.16,5.66,5.33,1.77,10.22,1.02,15.08-1.26Zm-56.54,4.94c6.13,2.66,11.63,2.18,18.02,1.89-6.08-2.72-11.57-2.37-18.02-1.89Zm-2.6,7.29c3.9,3.37,7.94,3.09,12.57,3.79q-4.37-3.17-12.57-3.79Z"/>
  <path class="cls-8" d="m297.33,521.97c1.46.35,2.94.63,4.37,1.07,1.21.37,2.37.91,3.58,1.38-.51,3.36-2.25,5.17-4.61,6.82-7.54,5.27-16.18,7.33-25.01,9.23-17.15,3.69-34.5,3.83-51.87,3.35-12.8-.35-25.28,1.61-37.68,4.07-14.67,2.92-29.45,3.18-44.29,2.92-4.55-.08-5.71-1.26-7.19-6,4.14-6.84,11.44-9.31,19.04-6.41,14.41,5.49,28.63,4.57,42.61-1.45,2.48-1.07,4.76-2.67,6.94-4.27,6.94-5.08,14.59-6.27,22.76-4.03,11.39,3.12,22.96,4.45,34.75,3.7,2.09-.13,4.16-.71,6.24-1.08.71-.07,1.42-.13,2.13-.2.41-.02.83-.04,1.24-.06,1.16-.31,2.32-.62,3.48-.93,5.85-1.99,11.7-3.96,17.54-5.96,2-.69,3.99-1.43,5.98-2.14Z"/>
  <path class="cls-18" d="m176.25,538.98c12.82-6.89,23.42-16.73,34.79-25.54.43-.33.62-.96.92-1.45,1.54.63,3.08,1.26,3.52,1.45-5.12,5.56-10.06,11.27-15.38,16.6-6.49,6.51-14.7,9.07-23.85,8.94Z"/>
  <path class="cls-3" d="m376.5,564.7c-4.87,2.28-9.76,3.03-15.08,1.26-3.06-1.02-4.65-2.43-4.16-5.66,3.12-.31,6.23-.62,9.35-.94,1.23.21,2.45.42,3.68.63,2.85.58,5.39,1.54,6.22,4.71Z"/>
  <path class="cls-6" d="m223.26,520.66c7.42,2.74,14.84,5.48,22.27,8.21l-.21.9c-4.89-.87-9.78-1.77-14.67-2.61-4.37-.74-8.75-1.42-13.13-2.12.35-1.82.7-3.64,1.05-5.46.76.08,1.53.16,2.29.24.8.28,1.6.56,2.41.83Z"/>
  <path class="cls-3" d="m144.49,560.11c1.86.71,3.72,1.43,5.59,2.14-1.86,3.89-4.19,4.69-13.83,4.86-1.51-4.13-.58-6.25,3.16-6.81,1.66-.25,3.38-.14,5.08-.19Z"/>
  <path class="cls-7" d="m218.56,519.58c-.35,1.82-.7,3.64-1.05,5.46-2.38.11-4.77.22-7.15.32l-.09-.11c1.78-2.17,3.46-4.43,5.43-6.42.34-.35,1.88.46,2.87.74Z"/>
  <path class="cls-19" d="m309.13,510.35c-3.92,2.72-6.54,4.54-10.02,6.96.5-3.78,1.08-6.61,3.69-7.97,1.18-.62,3.26.45,6.33,1.01Z"/>
  <path class="cls-14" d="m269.1,531.07c-.71.07-1.42.13-2.13.2-.79-.33-1.59-.67-2.38-1,1.48-.14,2.96-.29,4.44-.43.02.41.04.82.07,1.23Z"/>
  <path class="cls-7" d="m370.27,559.99c-1.23-.21-2.45-.42-3.68-.63,1.23.21,2.45.42,3.68.63Z"/>
  <path class="cls-9" d="m273.81,530.08c-1.16.31-2.32.62-3.48.93,1.16-.31,2.32-.62,3.48-.93Z"/>
  <path class="cls-7" d="m210.36,525.37c-.42.27-.85.54-1.27.8.39-.3.79-.61,1.18-.91,0,0,.09.11.09.11Z"/>
  <path class="cls-7" d="m223.26,520.66c-.8-.28-1.6-.56-2.41-.83.8.28,1.6.56,2.41.83Z"/>
  <path class="cls-4" d="m251.51,528.78c.52.33,1.04.65,1.55.98-.52-.33-1.04-.65-1.55-.98Z"/>
  <path class="cls-3" d="m197.41,216.71c-1.28-.79-2.53-1.63-3.85-2.35-4.55-2.49-9.11-4.97-13.71-7.38-1.51-.79-3.16-1.34-4.75-2-2.89-4.53-6.42-8.79-8.55-13.64-5.87-13.36-8.44-27.24-4.43-41.7,1.98-7.15,5.12-13.78,9.67-19.67,1.17-1.51,3.13-2.43,4.43-3.41,2.02-7.46,3.71-14.96,6.12-22.23,2.09-6.31,6.18-11.6,11.05-16.17,13.71-12.89,37.58-8.85,49.14,6.57.86,1.15,1.77,2.25,2.66,3.38.39-.19.79-.38,1.18-.57-.43-1.26-.74-2.58-1.32-3.77-.66-1.34-1.56-2.56-2.68-4.35h9.99c-.57,2.03-1.09,3.91-1.62,5.79.35.2.69.4,1.04.6.88-1.04,1.92-1.99,2.62-3.14,4.58-7.52,11.57-10.4,20.15-10.76,16.92-.72,28.01,7.78,35.85,21.6,4.43,7.82,6.93,16.34,9.19,24.95.48,1.82,1.1,3.61,1.73,5.67,2.83-1.06,1.35-3.14,1.81-4.54l.11-.09c1.15,1.18,2.58,2.19,3.4,3.56,6.33,10.66,7.1,22.35,5.42,34.15-1.89,13.3-6.58,25.69-15,36.47-1.69.81-3.5,1.44-5.03,2.47-7.43,5.01-15.37,8.81-24.24,10.57-1.82.53-3.77.81-5.45,1.63-10.35,4.99-21.21,7.5-32.76,7.69-14.06.24-27.55-2.51-40.88-6.52-3.7-1.12-7.51-1.89-11.27-2.83Zm-15.54-60.23c.4.77.8,1.53,1.2,2.3,2.3,5.68,7.27,7.65,12.63,9.05-4.08-3.13-8.15-6.27-12.23-9.4-.41-.75-.81-1.51-1.22-2.26-.38-1.75.51-3.95-1.98-5.5-.76,2.64-.29,4.42,1.6,5.81Zm83.67,11.52c-3.48-.31-7.08-1.32-10.43-.78-7.09,1.14-14.09,2.94-21.05,4.75-9.81,2.55-19.42,6.01-29.35,7.84-8.57,1.57-17.47,1.38-26.22,1.99-4.19.29-6.35,1.55-6.89,4.2-.67,3.32.12,6.47,3.3,7.96,4.36,2.05,8.94,4.66,13.56,4.95,14.6.92,29.31,1.29,43.77-1.74,12.76-2.67,25.36-3.5,38.21-.12,8.82,2.32,17.88,4,26.93,5.15,6.17.78,12.56.18,18.07-3.41,3.49-2.27,5.27-6.62,4.19-10.1-1.13-3.64-4.56-4.22-7.58-4.32-13.3-.42-25.12-5.16-36.45-11.52,1.19-.36,2.4-1.07,3.55-.98,1.5.12,2.92.97,4.41,1.35,6.12,1.56,12.58-1.28,14.9-6.49,7.32-4.74,12.26-11.28,14.57-19.58,4.23-15.17,2.1-29.52-6.95-42.51-10.14-14.56-29.97-17.88-43.2-7.15-3.67,2.98-6.11,7.42-9.12,11.19-2.41.06-4.81.12-7.22.18-1.31-1.67-2.77-3.25-3.91-5.04-9.35-14.7-29.16-17.26-42.69-7.51-12.81,9.23-16.12,22.57-14.92,37.41.55,6.85,3.57,12.96,6.47,19.07,1.3,12.31,18.46,21.01,29.03,18.03,7.27-2.05,14.39-4.73,21.38-7.6,8.79-3.6,14.89-3.9,23.62,4.77Zm52.51-16.15c-2.41,4.8-3.75,9.39-6.63,12.67-2.97,3.38-7.43,5.49-11.48,8.32,10.55-1.69,17.64-9.68,18.11-20.99Z"/>
  <path class="cls-1" d="m254.7,302.31c-4.66,5.36-9.32,10.72-14.22,16.37-2.61-3.74-4.87-7.27-7.4-10.58-10.65-13.94-21.39-27.81-32.1-41.71-14.93-18.92-30.92-36.83-50.38-51.41-1.53-1.15-3.27-2.01-4.92-3.01,1.16-.42,2.3-1.12,3.48-1.21,6.59-.48,12.66,1.79,18.8,3.64.85.35,1.7.7,2.56,1.05,1.88.82,3.76,1.64,5.64,2.46,11.01,6.94,22.48,13.28,32.93,20.96,18.92,13.91,34.22,31.06,43.85,52.64,1.25,2.8,2.15,5.76,3.21,8.65-.47.71-.95,1.42-1.42,2.14,0,0-.02.02-.02.02Z"/>
  <path class="cls-9" d="m254.72,302.29c.47-.71.95-1.42,1.42-2.14,1.1,1.73-.31,1.84-1.42,2.14Z"/>
  <path class="cls-3" d="m323.12,129.61c-.25-.44-.5-.88-.76-1.31.29.41.58.82.87,1.22,0,0-.11.09-.11.09Z"/>
  <path class="cls-5" d="m44.47,88.86s-.44.06-.44.06c-.58-.39-1.16-.77-1.75-1.16,0,0,.15-.12.15-.12-1.3-5.3-1.38-10.6-.02-15.9,0,0-.11-.14-.11-.14,2.35-1.3,2.63-3.43,2.36-5.77,0,0,0-.03,0-.03.39-.76.78-1.53,1.18-2.29,0,0,0-.04,0-.04.4-1.15.79-2.3,1.19-3.45,0,0,.14.06.14.06,1.63-2.87,3.26-5.73,5.09-8.95.55.71,1.08,1.37,1.6,2.04-.05,3.71,2.49,5.05,5.56,5.47,4.68.65,9.41.99,14.56,1.5,1.13,2.13,2.53,4.79,4.28,8.11-4.76-.37-8.76-.68-12.77-.99-2.44-.7-4.88-1.39-7.86-2.24,1.74,3.95,5.02,5.37,7.99,6.78,3.13,1.49,4.38,3.44,3.65,6.71-2.21,1.71-3.82,3.65-2.77,7.77,1.88-1.79,3.07-3.25,4.55-4.28,2.52-1.75,5.07-3.6,7.88-4.74,4.7-1.9,4.83-1.66,7.73,2.95,1.1-.56,2.19-1.5,3.32-1.56.99-.05,2.03.88,4.03,1.85-2.28-3.9-4.12-7.07-6.04-10.35,1.78-1.55,3.2-2.77,5.03-4.36-5.71-3.5-13.91-4-14.33-13.07.96.12,1.66.21,2.35.29,0,0-.05-.05-.05-.05.41.4.82.81,1.23,1.21l-.05-.05c1.77,3.19,4.82,3.49,8.03,3.58,7.02.22,11.12,4.53,10.81,11.42-.53,11.75-5.52,21.14-15.4,27.87-1.7.28-3.4.69-5.11.81-2.88.2-5.87.74-8.63.19-5.09-1-7.56-4.71-7.91-10.66-5.39,3.76-10.83,4.44-16.49,3.84-1-.77-2.01-1.55-3.01-2.32Z"/>
  <path class="cls-8" d="m46.06,93.29s-.2-.21-.2-.21c.35,0,.7-.03,1.06-.06,2.18.99,4.35,1.99,6.53,2.98.46.57.8,1.48,1.39,1.67,3.19,1.04,6.44,1.9,9.67,2.83,4.68,1.96,4.68,2.13,4.07,6.38-.32,2.2-.12,4.47-.15,6.71.01.69.03,1.39.04,2.08-4.92,4.58-9.67,9.34-14.8,13.68-8.36,7.09-18.18,12.53-24.6,21.79-.62.89-2.14,1.16-4.1,2.15,0-2.12-.13-3.38.02-4.6.48-3.76,1.06-7.51,1.6-11.26,1.54-4.32,2.75-8.8,4.69-12.94,4-8.53,8.43-16.87,12.6-25.33.92-1.87,1.46-3.91,2.17-5.88Z"/>
  <path class="cls-10" d="m26.6,137.43c-.54,3.75-1.13,7.5-1.6,11.26-.15,1.22-.02,2.48-.02,4.6,1.95-.99,3.48-1.26,4.1-2.15,6.41-9.26,16.24-14.71,24.6-21.79,5.12-4.34,9.87-9.11,14.8-13.68.25,7.97-2.74,14.26-9.48,18.93-11.73,8.13-19.45,19.84-27.75,31-3.32,4.47-6.29,9.22-11.21,12.72-2.01-2.47-2.23-5.03-2.46-7.71-.74-8.68.96-16.9,4.7-24.68,1.37-2.86,1.09-6.58,4.33-8.5Z"/>
  <path class="cls-2" d="m102.76,2.45c3.12,2,3.17,4.41,2.46,7-.2.74-.58,1.44-.92,2.13-6.01,12.35-12.02,24.7-18.17,37.33-2.45-.33-5.08-.68-7.73-1.03q4.16-13.66,7.94-14.95c-1.61-6.65,3.13-11.14,4.93-16.72,1.58.1,2.84.18,4.11.26.19-.23.38-.46.58-.68-1.18-.54-2.37-1.09-3.47-1.59,2.64-5.34,4.82-9.84,10.26-11.74Z"/>
  <path class="cls-6" d="m97.58,37.43c.15-1.82,0-3.56.48-5.1,1.1-3.58,2.38-7.15,5.86-9.32-1.03-4.36,2.28-7.07,4.07-10.35.45-.82,1.1-1.61,1.84-2.19,2.06-1.61,4.32-.91,4.91,1.58.25,1.06.17,2.33-.16,3.38-.76,2.38-1.64,4.73-2.69,7-4.62,9.96-9.3,19.9-14,29.82-.48,1.01-1.19,1.9-2.11,3.35-2.28-1.53-4.29-2.88-6.92-4.66,3.77-4.17,3.01-10.53,8.73-13.5Z"/>
  <path class="cls-2" d="m69.97,42.01c-1.65-.57-2.7-.93-4.39-1.51,1.26-3.94,2.33-7.77,3.75-11.47.52-1.35,1.71-2.57,2.86-3.52,2.07-1.71,4.4-1.11,6.61-.16,2.22.96,2.44,3.02,2.08,4.91-1.03,5.44-2.86,10.55-6.69,14.84-.87.97-1.19,2.58-1.36,3.95-.32,2.57-1.33,4.5-4.09,4.83-2.21.26-4.05-2.21-4.2-5.26-.2-4.2.45-5.1,5.4-6.61Z"/>
  <path class="cls-10" d="m68.42,113.58c.03-2.24-.17-4.51.15-6.71.62-4.24.62-4.42-4.07-6.38-1.96-4.91-5.57-6.38-11.06-4.5-2.18-.99-4.35-1.99-6.53-2.98.19-.62.38-1.23.57-1.84,5.67.59,11.11-.08,16.49-3.84.35,5.95,2.82,9.66,7.91,10.66,2.76.54,5.75,0,8.63-.19,1.71-.12,3.41-.53,5.11-.81-2.54,1.9-4.87,4.24-7.68,5.6-3.68,1.78-6.42,3.89-7.31,8.05-.23,1.08-1.45,1.96-2.21,2.94Z"/>
  <path class="cls-7" d="m65.5,67.27c4,.31,8.01.62,12.77.99-1.75-3.32-3.16-5.97-4.28-8.11-5.15-.51-9.88-.85-14.56-1.5-3.07-.43-5.61-1.77-5.56-5.47,1.88.35,3.76.68,5.63,1.07,1.47.3,3.02.45,4.37,1.04,4.19,1.83,5.78,1.86,10.71-.48,1.59,5.73,6.13,8.87,11.19,11.65-.72,2.5-.06,5.3-3.37,6.14-.99-.7-1.91-1.85-2.99-2.02-2.08-.34-4.25-.04-6.37-.17-2.85-.18-5.84-.15-7.52-3.12Z"/>
  <path class="cls-19" d="m22.44,125.23c3.19-7.06,6.99-13.68,13.59-18.27,0,0-.1.33-.1.33,0,0,.25.25.25.25-.22.3-.28.63-.17.98-5.63,11.61-11.27,23.22-16.9,34.83-.2,0-.39-.02-.59-.03.72-3.6,1.41-7.22,2.18-10.81.52-2.44,1.16-4.86,1.74-7.28Z"/>
  <path class="cls-2" d="m66.16,27.01c-1.22,4.9-2.31,9.3-3.47,13.97h-6.8c-1.4-9.07,2.17-14.53,10.27-13.97Z"/>
  <path class="cls-15" d="m65.5,67.27c1.68,2.97,4.67,2.94,7.52,3.12,2.12.13,4.29-.17,6.37.17,1.08.18,2,1.32,2.99,2.02-4.37,1.98-8.73,3.95-13.1,5.93.73-3.27-.53-5.22-3.65-6.71-2.97-1.41-6.25-2.83-7.99-6.78,2.98.85,5.42,1.55,7.86,2.24Z"/>
  <path class="cls-9" d="m20.45,217.7c-4.75-10.9-5.21-22.14-2.7-33.61.71,0,1.41.01,2.12.02-.3,3.64-1.04,7.31-.81,10.92.44,6.89,1.43,13.74,2.2,20.61-.27.68-.54,1.37-.8,2.06Z"/>
  <path class="cls-2" d="m61.85,47.03c-.13,2.38-1.92,4.56-3.7,4.53-1.85-.03-3.66-2.63-3.66-5.24,0-1.91,1.88-3.84,3.66-3.78,1.85.06,3.81,2.44,3.7,4.49Z"/>
  <path class="cls-5" d="m81.05,53.01c.6-.51,1.43-1.57,1.75-1.43,2.73,1.15,5.36,2.52,8.02,3.82-.18.42-.37.84-.55,1.26-2.69-.85-5.39-1.69-8.08-2.54,0,0,.05.05.05.05-.41-.4-.82-.81-1.23-1.21,0,0,.05.05.05.05Z"/>
  <path class="cls-19" d="m73.86,112.61c.35.37.7.73,1.04,1.1-.65,2.73-.37,5.86-3.4,7.55l.06.09c.76-2.91,1.53-5.82,2.29-8.73Z"/>
  <path class="cls-19" d="m71.51,121.26c-.11.26-.22.52-.46,1.1.28-.54.41-.77.53-1.01,0,0-.06-.1-.06-.1Z"/>
  <path class="cls-9" d="m17.92,180.62c-.19-.34-.38-.68-.57-1.02.19.34.38.68.57,1.02Z"/>
  <path class="cls-9" d="m36,108.52c-.1-.36-.04-.68.17-.98-.06.33-.12.65-.17.98Z"/>
  <path class="cls-16" d="m458.45,523.15c.48-.37.96-.74,1.44-1.11-.48.37-.96.74-1.44,1.11Z"/>
  <path class="cls-26" d="m210.03,310.75c-6.69-7.44-13.39-14.89-20.12-22.3-.1-.11-.68.22-1.9.63,9.97,11.66,20.81,22.4,27.2,36.26,1.57,9.76-3.91,15.47-11.63,20.02-4.18,2.47-8.14,5.31-12.26,7.88-1.63,1.02-3.36,1.97-5.17,2.63-5.06,1.83-8.37-.29-8.75-5.56-.18-2.49-.13-5-.19-7.51.35-1.89.7-3.78,1.05-5.66,1.68-9-.68-16.86-7.39-23.13-6.36-5.93-13.03-11.54-19.66-17.19-2-1.7-4.32-3.04-6.49-4.54-4.39-2.67-6.88-6.69-8.53-11.4-1.02-2.91-2.07-5.85-3.52-8.56-1.56-2.9-3.51-3.4-6.86-2.47-.75.21-1.53.38-2.23.69-12.93,5.75-23.88,1.62-34.03-6.6-9.95-8.06-14.37-18.63-15.9-31.12-.75-6.14-.11-11.78.92-17.66.92-5.29,1.22-10.68,1.79-16.03,1.15.38,2.31.75,3.47,1.13,0,0,.2.12.2.12.33.26.67.51,1,.77l.11.32s.34.03.34.03c.1.37.35.59.73.65,0,.36.18.53.54.53.06.38.28.62.66.71l.03.33s.32.1.32.1c.27.32.54.65.81.97,1.31,2.41,2.61,4.82,3.92,7.23.21.43.42.85.63,1.28,0,0-.03-.05-.03-.05.96,7.18,5.27,11.75,11.72,14.65,3.72,1.67,7.51,3.21,11.1,5.12,5.46,2.89,8.17,7.49,7.91,13.7-.08,1.98-.01,3.97-.01,6.47,1.2-.68,2.02-.87,2.08-1.21,1.89-9.84-.63-16.61-8.18-20.95-3.35-1.92-6.92-3.47-10.39-5.19-.72-.39-1.45-.78-2.17-1.17-.5-.26-1-.52-1.5-.78-.04-1.32.05-2.66-.13-3.96-.52-3.9-.26-4.35,3.62-5.6.89-.29,1.74-.7,2.61-1.05,4.62-.66,9.23-1.81,13.85-1.87,10.66-.15,21.39-.06,30.71,6.36,0,0,.1.07.1.06.37.29.74.58,1.11.86l.06.29s.29-.04.29-.05c.11.39.38.59.81.59l.15.42s.44.07.44.07c.58.43,1.16.87,1.74,1.31,0,0,.02,0,.02,0,.39.34.79.68,1.18,1.02,0,0,.14.11.14.11.35.31.71.62,1.06.93,0,0,.25.21.25.21.31.27.62.55.94.82l.05.32s.33,0,.33,0c.09.42.36.65.79.7l.07.36s.37.04.37.04c4.98,4.84,9.95,9.69,14.93,14.53.03.43.27.66.7.69,0,0,.04.33.04.33l.33.08c0,.41.21.64.62.69.03.37.23.58.6.64-.04.34.11.5.45.5.25.26.49.53.74.79,0,0,.02.3.02.3,0,0,.3.06.3.06.26.28.53.56.79.84,1.53,1.69,3.07,3.38,4.6,5.07.47.55.93,1.1,1.4,1.65-.02.38.17.59.56.62,0,.37.18.58.55.64l.05.36s.34.12.34.12c.27.3.53.6.8.89,0,0,.24.28.24.28.3.34.6.68.9,1.02,1.13,1.32,2.26,2.63,3.4,3.95,0,0-.14.16-.14.16l.28.04c-.04.38.13.59.51.64.23.27.47.55.7.82,0,0,.28.34.27.34.29.33.57.66.86.99.39.46.77.92,1.16,1.39.82,1,1.63,2.01,2.45,3.01v.33s.33.08.33.08c5.75,7.47,11.52,14.92,17.25,22.4,1.28,1.67,2.44,3.44,3.65,5.17.34.48.69.95,1.03,1.43,0,0,.01.02.01.02.32.41.64.83.96,1.24,0,0,.09.14.09.14.48.67.95,1.33,1.43,2,0,0-.01-.02-.01-.02.32.43.65.87.97,1.3,0,0,.04.06.04.06.52.7,1.04,1.39,1.56,2.09.28.42.57.84.85,1.26.32.43.63.85.95,1.28.28.11.44.32.46.62.36.52.71,1.04,1.07,1.57.32.45.64.91.96,1.36.29.37.57.75.86,1.12.3.2.47.49.49.85.19,1.31.3,2.64.59,3.93,1.32,5.87-.72,9.06-7.2,10.89-2.54-3.06-5-6.29-7.77-9.23-1.23-1.3-3.11-2-4.7-2.97-.32-.45-.64-.9-.96-1.35-.51-.7-1.01-1.39-1.52-2.09Z"/>
  <path class="cls-9" d="m87.06,277.79c-14.32-13.48-18.95-30.79-20.19-49.5-.68-10.32,2.21-20.19,3.64-30.24.83.03,1.66.06,2.48.09-.58,3.8-.94,7.65-1.77,11.4-3.62,16.35-1.56,32.15,4.71,47.49,4.04,9.9,10.19,18.13,20.32,22.86.73.34,1.23,1.18,2.42,2.38-5.41.64-7.98-3.26-11.62-4.48Z"/>
  <path class="cls-9" d="m103.32,225.86c3.47,1.72,7.04,3.26,10.39,5.19,7.55,4.34,10.07,11.11,8.18,20.95-.06.34-.88.53-2.08,1.21,0-2.5-.07-4.49.01-6.47.26-6.21-2.45-10.81-7.91-13.7-3.59-1.9-7.38-3.44-11.1-5.12-6.45-2.91-10.76-7.47-11.72-14.65.94.01,1.89.03,2.83.04.71,4.85,2.77,8.76,7.72,10.6.5.26,1,.52,1.5.78.72.39,1.45.78,2.17,1.17Z"/>
  <path class="cls-19" d="m99.65,223.9c-4.96-1.84-7.01-5.75-7.72-10.6,4.22-.11,8.43-.22,12.65-.32.39.1.78.21,1.17.31-.87.35-1.72.76-2.61,1.05-3.87,1.25-4.14,1.7-3.62,5.6.17,1.3.09,2.64.13,3.96Z"/>
  <path class="cls-9" d="m105.75,213.29c-.39-.1-.78-.21-1.17-.31,4.12-.72,8.25-2.03,12.37-2.05,7.91-.03,15.83.55,23.73,1.13,4.05.3,7.05,2.77,9.63,5.72-9.32-6.42-20.05-6.51-30.71-6.36-4.63.06-9.24,1.21-13.85,1.87Z"/>
  <path class="cls-9" d="m175.13,240.38c-4.98-4.84-9.95-9.69-14.93-14.53,4.98,4.84,9.95,9.69,14.93,14.53Z"/>
  <path class="cls-9" d="m79.81,200.27c-1.16-.38-2.31-.75-3.47-1.13-.4-.35-.8-.7-1.21-1.05,1.99-.18,3.74.13,4.67,2.18Z"/>
  <path class="cls-9" d="m198.64,267.27c-.82-1-1.63-2.01-2.45-3.01.82,1.01,1.63,2.01,2.45,3.01Z"/>
  <path class="cls-9" d="m185.72,252.01c-.47-.55-.93-1.1-1.4-1.65.47.55.93,1.1,1.4,1.65Z"/>
  <path class="cls-9" d="m155,221.33c-.58-.44-1.16-.87-1.74-1.31.58.44,1.16.87,1.74,1.31Z"/>
  <path class="cls-9" d="m84.57,204.8c-.27-.33-.54-.65-.81-.97.27.33.54.65.81.97Z"/>
  <path class="cls-9" d="m83.4,203.4c-.38-.09-.6-.33-.66-.71.29.17.51.41.66.71Z"/>
  <path class="cls-9" d="m81.02,201.16c-.33-.26-.67-.51-1-.77.33.26.67.51,1,.77Z"/>
  <path class="cls-9" d="m89.12,213.31c-.21-.43-.42-.85-.63-1.28.21.43.42.85.63,1.28Z"/>
  <path class="cls-9" d="m151.52,218.71c-.37-.29-.74-.58-1.11-.86.37.29.74.58,1.11.86Z"/>
  <path class="cls-9" d="m152.67,219.54c-.42,0-.69-.2-.81-.59.34.1.61.29.81.59Z"/>
  <path class="cls-9" d="m156.2,222.36c-.39-.34-.79-.68-1.18-1.02.39.34.79.68,1.18,1.02Z"/>
  <path class="cls-9" d="m157.4,223.39c-.35-.31-.71-.62-1.06-.93.35.31.71.62,1.06.93Z"/>
  <path class="cls-9" d="m158.59,224.42c-.31-.27-.62-.55-.94-.82.31.27.62.55.94.82Z"/>
  <path class="cls-9" d="m159.76,225.44c-.44-.04-.7-.28-.79-.7.35.13.62.37.79.7Z"/>
  <polygon class="cls-9" points="176.2 241.47 175.87 241.39 175.83 241.07 176.2 241.47"/>
  <path class="cls-9" d="m177.42,242.8c-.37-.06-.57-.27-.6-.64.26.16.46.37.6.64Z"/>
  <path class="cls-9" d="m178.61,244.09c-.25-.26-.5-.53-.74-.79.34.18.59.44.74.79Z"/>
  <path class="cls-9" d="m179.72,245.29c-.26-.28-.53-.56-.79-.84.26.28.53.56.79.84Z"/>
  <path class="cls-9" d="m186.83,253.27c-.37-.06-.55-.27-.55-.64.24.17.42.38.55.64Z"/>
  <path class="cls-9" d="m188.01,254.63c-.27-.3-.53-.6-.8-.89.27.3.53.6.8.89Z"/>
  <path class="cls-9" d="m189.15,255.93c-.3-.34-.6-.68-.9-1.02.3.34.6.68.9,1.02Z"/>
  <polygon class="cls-9" points="192.68 260.08 192.4 260.03 192.54 259.87 192.68 260.08"/>
  <path class="cls-9" d="m193.89,261.54c-.23-.28-.47-.55-.7-.82.33.19.57.47.7.82Z"/>
  <path class="cls-9" d="m195.03,262.87c-.29-.33-.57-.66-.86-.99.29.33.57.66.86.99Z"/>
  <path class="cls-9" d="m82.2,202.16c-.39-.06-.63-.28-.73-.65.31.14.56.36.73.65Z"/>
  <path class="cls-19" d="m67.9,178.37c-1.48,1.08-3.5,1.85-4.35,3.29-3.91,6.61-8.35,13.02-9.89,20.76-.12.58-1.01,1.01-1.54,1.51.59-3.55.75-7.23,1.85-10.62,2.67-8.22,5.78-16.31,8.84-24.82,3.11,2.75,4.15,6.29,5.1,9.88Z"/>
  <path class="cls-19" d="m53.39,208.5c.98,1.11.88,1.89-.7,2.2.23-.74.47-1.47.7-2.2Z"/>
  <path class="cls-15" d="m170.52,215.45c-.85-.35-1.7-.7-2.56-1.05.75-.34,1.49-.68,2.24-1.02.74.38,1.48.75,2.22,1.13-.63.32-1.26.63-1.9.94Z"/>
  <path class="cls-15" d="m158.93,210.55c-.61-.03-1.22-.06-1.83-.1l.04-.61c.61.04,1.22.07,1.83.11-.01.2-.02.4-.03.59Z"/>
  <path class="cls-12" d="m47.49,91.18c-.19.61-.38,1.23-.57,1.84-.35.03-.7.05-1.06.06-.46-1.41-.92-2.81-1.38-4.22,1,.77,2.01,1.55,3.01,2.32Z"/>
  <path class="cls-12" d="m42.29,87.75c.58.39,1.16.77,1.75,1.16-.58-.39-1.16-.77-1.75-1.16Z"/>
  <path class="cls-12" d="m47.02,60.01c-.4,1.15-.79,2.3-1.19,3.45.08-1.08.15-2.16.23-3.25.3-.18.61-.24.95-.2Z"/>
  <path class="cls-12" d="m45.84,63.5c-.39.76-.78,1.53-1.18,2.29.04-.72.08-1.45.13-2.17.34-.15.69-.19,1.05-.12Z"/>
  <path class="cls-12" d="m44.67,65.82c.27,2.35,0,4.47-2.36,5.77.08-1.1.16-2.21.24-3.31.38-.76.76-1.51,1.14-2.27.3-.17.63-.24.97-.19Z"/>
  <path class="cls-4" d="m366.7,493.82c1.27-.34,2.53-.94,3.81-.96,5.27-.11,10.55-.11,15.82,0,1.27.03,2.52.65,3.78,1.01-7.8-.02-15.6-.03-23.41-.05Z"/>
  <path class="cls-4" d="m358.39,418.55c-.4,0-.8,0-1.21-.01.12-1.4.24-2.79.36-4.19.28,1.4.57,2.8.85,4.2Z"/>
  <path class="cls-4" d="m285.76,471.89c.36-1.1.73-2.21,1.09-3.31,2.37-.78,4.74-1.56,7.11-2.34-4.59,4.62-8.84,9.64-13.86,13.75-6.48,5.31-14.07,6.15-21.85,2.68-3.35-1.49-6.5-3.39-9.78-5.02-1.69-.84-3.47-1.5-5.21-2.24,2.02-.36,4.03-.71,6.05-1.07.07.18.09.43.22.52,14.75,10.39,22.69,8.9,32.74.34,1.17-1.11,2.34-2.21,3.5-3.32Z"/>
  <path class="cls-4" d="m219.79,456.84c0-.81,0-1.62,0-2.43,2.29.78,3.98,3.31,6.88,2.29-2.79,1.94-5.58,3.87-8.37,5.8.47-.79.76-1.79,1.44-2.34,1.46-1.19,1-2.2.05-3.32Z"/>
  <path class="cls-4" d="m218.1,466.07c.9.83,1.8,1.67,2.69,2.5-.9-.83-1.8-1.67-2.69-2.5Z"/>
  <path class="cls-4" d="m218.34,462.44c-.2.45-.41.9-.61,1.35.2-.45.41-.9.61-1.35Z"/>
  <path class="cls-8" d="m20.45,217.7c.27-.69.54-1.38.8-2.06.8,2.2,1.59,4.4,2.38,6.6-2.42-.59-2.56-2.73-3.19-4.54Z"/>
  <path class="cls-14" d="m197.41,216.71c3.76.93,7.57,1.71,11.27,2.83,13.33,4.01,26.82,6.76,40.88,6.52,11.55-.2,22.41-2.7,32.76-7.69,1.68-.81,3.63-1.1,5.45-1.63-.73,3.07-3.56,3.89-5.9,4.97-12.01,5.57-24.81,8.02-37.96,7.47-14.82-.62-29.25-3.73-43.16-8.99-1.8-.68-3.15-1.44-3.34-3.48Z"/>
  <path class="cls-2" d="m260.11,441.78c-3.34-1.02-6.69-2.04-10.03-3.07,0,0,.09-.19.09-.19.06-2.38.12-4.75.19-7.13l.14.07c1.27-.78,2.57-1.52,3.82-2.33,4.54-2.97,9.07-5.96,13.6-8.94,1.92-1.27,4.5-.34,6.44-2.66,1.26-1.51,4.56-1.31,6.92-1.97,2.48-.69,4.5-.24,6.37,1.98-2.85,3.45-6.44,1.99-10.02,2.77,2.29.8,4.57,1.59,7.54,2.63-3.32,1.42-6.25,2.42-8.93,3.88-3.88,2.12-7.67,4.44-11.31,6.95-1.01.7-1.32,2.38-2.19,4.08,4.16.57,4.67-3.6,7.98-3.74.22,1.32.55,2.72.68,4.13.21,2.27,1.26,3.58,3.67,3.59,2.68,3.1-.86,5.63-.29,9.08-2.68-1.26-2.52-3.36-3.25-4.93-.7-1.51-1.23-3.17-2.22-4.48-1.39-1.85-3.16-2.69-5.49-1-1.01.73-2.46.87-3.71,1.28Z"/>
  <path class="cls-7" d="m312.49,406.81c.93-1.38,2.03-2.6,3.78-1.3,1.68,1.26,3.44,2.56,4.71,4.18,5.08,6.5,7.12,12.74,6.31,18.8-2.87.72-5.83,1.61-8.86,2.14-.76.13-1.73-.85-2.61-1.32,2.6-.72,5.21-1.45,7.8-2.17,1.38-6.88-3.71-16.16-11.13-20.32Z"/>
  <path class="cls-10" d="m305.28,418.03c1.58-.31,2.47-.49,3.79-.75.32,2.2.61,4.2.9,6.19-.28.11-.56.21-.83.32-1.19-1.78-2.38-3.55-3.86-5.76Z"/>
  <path class="cls-10" d="m294.96,426.68c1.71-2.62,4.06-3.7,7.93-3.17-2.55,2.57-5.17,3.05-7.95,3.14l.02.02Z"/>
  <path class="cls-2" d="m275.15,437.13c-.41-1.67-.82-3.35-1.23-5.02.49-.16.98-.32,1.46-.48.67,1.83,1.34,3.65,2,5.48-.74,0-1.49.02-2.23.02Z"/>
  <path class="cls-4" d="m235.75,466.55c.43-.15.85-.3,1.27-.44.08.84.15,1.67.23,2.51-.22.05-.45.11-.67.16-.28-.74-.56-1.48-.83-2.22Z"/>
  <path class="cls-4" d="m244.72,451.93c.17.6.35,1.2.52,1.8-.42-.39-.85-.78-1.27-1.17.25-.2.5-.41.75-.63Z"/>
  <path class="cls-11" d="m229.11,459.18c.16.09.32.19.48.28-.15-.11-.29-.21-.44-.32,0,0-.03.03-.03.03Z"/>
  <path class="cls-10" d="m294.94,426.66c-.08.17-.17.33-.25.5.09-.16.18-.32.28-.47,0,0-.02-.02-.02-.02Z"/>
  <path class="cls-21" d="m177.22,342.81c.06,2.5,0,5.01.19,7.51.38,5.27,3.69,7.39,8.75,5.56,1.81-.65,3.53-1.61,5.17-2.63,4.12-2.58,8.07-5.41,12.26-7.88,7.72-4.55,13.2-10.26,11.63-20.02,1.82,3.58,3.64,7.16,5.45,10.75,1.05,2.08.24,3.6-1.36,5.06-4.73,4.31-9.32,8.76-14.07,13.04-5.46,4.92-11.04,9.71-16.63,14.61-1.85-.7-3.52-1.21-5.08-1.93-7.3-3.38-9.74-7.8-8.48-15.77.44-2.81,1.44-5.53,2.19-8.29Z"/>
  <path class="cls-19" d="m212.51,314.19c1.59.97,3.47,1.67,4.7,2.97,2.78,2.94,5.23,6.17,7.77,9.23,6.47-1.84,8.52-5.02,7.2-10.89-.29-1.29-.4-2.62-.59-3.93,2.3,3.02,4.6,6.03,7.23,9.49-4.98,5.23-9.7,10.18-14.58,15.31-4.09-7.74-7.91-14.95-11.73-22.17Z"/>
  <path class="cls-19" d="m210.03,310.75c.51.7,1.01,1.39,1.52,2.09-.51-.7-1.01-1.39-1.52-2.09Z"/>
  <path class="cls-19" d="m225.95,303.5c-.52-.7-1.04-1.39-1.56-2.09.52.7,1.04,1.39,1.56,2.09Z"/>
  <path class="cls-19" d="m223.39,300.07c-.48-.67-.95-1.34-1.43-2,.48.67.95,1.34,1.43,2Z"/>
  <path class="cls-19" d="m229.28,308.23c-.36-.52-.71-1.04-1.07-1.57.36.52.71,1.04,1.07,1.57Z"/>
  <path class="cls-19" d="m224.35,301.36c-.32-.43-.65-.87-.97-1.3.32.43.65.87.97,1.3Z"/>
  <path class="cls-19" d="m227.74,306.04c-.32-.43-.63-.85-.95-1.28.32.43.63.85.95,1.28Z"/>
  <path class="cls-19" d="m231.1,310.71c-.29-.37-.57-.75-.86-1.12.29.37.57.75.86,1.12Z"/>
  <path class="cls-19" d="m220.9,296.67c-.34-.48-.69-.95-1.03-1.43.34.48.69.95,1.03,1.43Z"/>
  <path class="cls-19" d="m221.87,297.93c-.32-.41-.64-.83-.96-1.24.32.41.64.83.96,1.24Z"/>
  <path class="cls-2" d="m274.94,411.55c-.64,1.07-1.04,2.76-1.96,3.1-7.72,2.88-14.36,7.52-22.05,13.28.73-2.95.61-5.16,1.68-6.25,4.32-4.41,8.37-9.61,15.79-8.72.5.06,1.31-.57,1.63-1.09,1.56-2.59,3.26-1.08,4.96-.27l-.04-.06Z"/>
  <path class="cls-2" d="m274.98,411.6c2.76-3.32,5.57-3.48,9.46-.3-3.23,2.36-6.33,1.98-9.5.24,0,0,.04.06.04.06Z"/>
  <path class="cls-4" d="m309.19,404.64c.3-.82.59-1.65.89-2.47-.3.82-.59,1.65-.89,2.47Z"/>
  <path class="cls-4" d="m249.21,431.33c-.03-.76-.06-1.52-.09-2.29.46.8.92,1.61,1.38,2.41,0,0-.14-.07-.14-.07-.38-.02-.77-.04-1.15-.06Z"/>
  <path class="cls-4" d="m307.81,405.73c.42-.33.84-.65,1.25-.98-.42.33-.84.65-1.25.98Z"/>
  <path class="cls-19" d="m282.26,475.21c-10.05,8.56-17.99,10.05-32.74-.34-.13-.09-.15-.34-.22-.52,6.66-1.92,13.31-3.84,19.96-5.75,2.03,6.53,3.85,7.36,11.81,5.44.39.39.79.79,1.18,1.18Z"/>
  <path class="cls-4" d="m230.2,455.54c1.97-.74,3.95-1.48,5.92-2.22-1.97.74-3.95,1.48-5.92,2.22Z"/>
  <path class="cls-8" d="m282.26,475.21c-.39-.39-.79-.79-1.18-1.18,1.56-.71,3.12-1.43,4.68-2.14-1.17,1.11-2.33,2.21-3.5,3.32Z"/>
  <path class="cls-4" d="m226.68,456.7c1.17-.39,2.35-.78,3.52-1.17-1.17.39-2.35.78-3.52,1.17Z"/>
  <path class="cls-11" d="m249.21,431.33c.38.02.77.04,1.15.06-.06,2.38-.12,4.75-.19,7.13-.72.09-2.06.33-2.09.24-.33-1.32-.5-2.68-.7-4.03.17-.39.34-.78.51-1.18.44-.74.87-1.48,1.31-2.23Z"/>
  <path class="cls-4" d="m254.07,442.9c1.49,2.14-.21,2.09-1.59,2.25.53-.75,1.06-1.5,1.59-2.25Z"/>
  <path class="cls-4" d="m252.36,441.93c.48.27.97.55,1.45.82-.48-.27-.97-.55-1.45-.82Z"/>
  <path class="cls-4" d="m247.9,433.56c-.17.39-.34.78-.51,1.18.17-.39.34-.78.51-1.18Z"/>
  <path class="cls-14" d="m200.83,567.61c-6.58,3.04-13.44,4.61-21.94,3.83,7.71-3.33,14.83-3.55,21.94-3.83Z"/>
  <path class="cls-12" d="m188.83,559.22c-5.55,3.93-11.13,2.9-16.32,3.7,4.61-3.12,9.69-4.37,16.32-3.7Z"/>
  <path class="cls-14" d="m319.96,569.64c6.45-.47,11.94-.83,18.02,1.89-6.39.29-11.89.76-18.02-1.89Z"/>
  <path class="cls-14" d="m317.36,576.93q8.2.62,12.57,3.79c-4.63-.71-8.67-.42-12.57-3.79Z"/>
  <path class="cls-14" d="m191.52,152.79c-2.9-6.11-5.91-12.22-6.47-19.07-1.2-14.84,2.12-28.18,14.92-37.41,13.54-9.75,33.34-7.19,42.69,7.51,1.13,1.78,2.6,3.36,3.91,5.04.97,4.23,1.94,8.46,3.05,13.32,1.51-4.89,2.84-9.19,4.16-13.5,3.01-3.77,5.45-8.21,9.12-11.19,13.22-10.73,33.05-7.4,43.2,7.15,9.05,12.99,11.18,27.34,6.95,42.51-2.31,8.3-7.25,14.84-14.57,19.58-1.33.25-2.73.31-3.98.77-6.79,2.45-13.55,1.46-20.09-.57-11.04-3.43-17.94-11.18-21.79-21.77-.92-2.52-1.79-5.05-2.99-8.44-.77,3.1-1.1,5.22-1.81,7.2-2.38,6.64-5.58,12.8-11.64,16.96-9.77,6.7-20.12,6-30.76,2.34-5.83-2-9.23-7-13.89-10.42Zm120.44-13.04c-.31-.71-.61-1.42-.92-2.13.54-1.7,1.09-3.4,2.02-6.3-2.26,1.19-3.29,1.62-4.19,2.23-12.23,8.14-25.32,11.17-39.71,6.6-5.41-2.75-10.82-5.5-16.55-8.42.45,2.78.4,5.59,1.4,7.98,2.22,5.29,4.16,10.98,7.67,15.38,7.39,9.27,17.97,12.01,29.4,10.22,6.12-.96,12.03-3.47,14.56-10.1,4.36-4.25,5.51-9.79,6.33-15.45Zm-117.28,9.87c.63,1.37.95,3.04,1.95,4.05,8.11,8.19,17.97,11.45,29.29,8.77,11.14-2.63,16.52-11,19.4-21.14.88-3.09,2.59-6.41.63-10.21-2.24,1.16-4.29,2.22-6.34,3.27-2.17.85-4.28,2.04-6.53,2.47-5.88,1.14-11.86,2.87-17.75,2.68-9.28-.31-17.9-3.57-25.39-9.29-.37-.28-1.04-.2-2.44-.42.62,2.2,1.11,3.93,1.6,5.66-.08,1.09-.15,2.19-.23,3.28,1.23,3.98,2.16,8.13,5.79,10.87Zm69.65-49.1c-8.45,5.91-10.25,14.96-11.56,24.18-.13.94.52,2.43,1.3,2.98,3.77,2.66,7.71,5.08,11.58,7.59,2.13.94,4.18,2.12,6.39,2.8,10.5,3.22,20.51,1.61,29.92-3.65,11.07-6.19,11.64-5.73,7.11-18.49-3.31-9.31-9.19-16.64-18.89-20.15-9.48-3.44-18.41-3.1-25.84,4.75Zm-20.49,19.39c-.38-3.05-.33-6.22-1.21-9.12-3.76-12.32-15.16-19.82-31.2-16.75-12.61,2.41-21.91,14.68-23.52,28.03-.3,2.51.94,3.9,2.76,5.28,13.17,10.01,27.58,12.23,43.11,6.49,9.43-3.48,9.73-4.14,10.07-13.92Z"/>
  <path class="cls-13" d="m275.62,172.85c11.33,6.36,23.15,11.1,36.45,11.52,3.01.1,6.44.67,7.58,4.32,1.08,3.48-.7,7.83-4.19,10.1-5.51,3.59-11.9,4.19-18.07,3.41-9.06-1.15-18.11-2.83-26.93-5.15-12.85-3.38-25.44-2.55-38.21.12-14.46,3.03-29.17,2.66-43.77,1.74-4.62-.29-9.2-2.91-13.56-4.95-3.18-1.49-3.98-4.64-3.3-7.96.54-2.66,2.7-3.91,6.89-4.2,8.75-.61,17.65-.42,26.22-1.99,9.93-1.82,19.54-5.29,29.35-7.84,6.96-1.81,13.96-3.6,21.05-4.75,3.34-.54,6.94.47,10.43.78,0,0-.03-.08-.03-.08,1.98.78,3.95,1.57,5.93,2.35l-.06-.03c.8.58,1.6,1.16,2.39,1.74.61.29,1.23.59,1.84.88Zm-19.83-2.7c-7.99-.3-14.99,2.31-21.97,4.8-16.88,6.01-34.1,9.96-52.19,9.34-1.54-.05-3.15.09-4.64.48-3.42.9-4.29,3.58-1.64,5.97,1.79,1.62,4.23,3.08,6.57,3.47,6.53,1.09,13.19,2.38,19.74,2.13,12.85-.49,25.75-.92,38.39-3.89,8.88-2.08,17.74-1.58,26.69.55,9.85,2.34,19.88,4.03,29.88,5.7,5.88.98,11.75.32,17.11-2.45,2.31-1.19,4.05-3.2,3.46-6.14-.58-2.85-3.11-2.54-5.16-2.76-9.17-1.02-18.2-2.59-26.64-6.46-5.32-2.44-10.55-5.09-15.81-7.66-4.46-2.18-9.08-3.6-13.78-3.08Z"/>
  <path class="cls-7" d="m275.62,172.85c-.61-.29-1.23-.59-1.84-.88-.8-.58-1.6-1.16-2.39-1.74,0,0,.06.03.06.03-1.98-.78-3.95-1.57-5.93-2.35,0,0,.03.08.03.08-8.73-8.67-14.84-8.38-23.62-4.77-6.99,2.87-14.11,5.54-21.38,7.6-10.57,2.99-27.73-5.72-29.03-18.03,4.66,3.42,8.06,8.42,13.89,10.42,10.64,3.66,20.99,4.36,30.76-2.34,6.07-4.16,9.26-10.32,11.64-16.96.71-1.98,1.04-4.09,1.81-7.2,1.2,3.39,2.08,5.92,2.99,8.44,3.85,10.59,10.75,18.34,21.79,21.77,6.55,2.03,13.31,3.02,20.09.57,1.25-.45,2.65-.52,3.98-.77-2.32,5.21-8.77,8.05-14.9,6.49-1.49-.38-2.92-1.23-4.41-1.35-1.15-.09-2.37.63-3.55.98Z"/>
  <path class="cls-4" d="m318.05,151.85c-.47,11.31-7.56,19.31-18.11,20.99,4.06-2.84,8.52-4.94,11.48-8.32,2.88-3.28,4.22-7.87,6.63-12.67Z"/>
  <path class="cls-7" d="m253.79,108.68c-1.33,4.3-2.66,8.61-4.16,13.5-1.11-4.86-2.08-9.09-3.05-13.32,2.4-.06,4.81-.12,7.22-.18Z"/>
  <path class="cls-4" d="m183.47,158.42c4.08,3.13,8.15,6.27,12.23,9.4-5.36-1.4-10.33-3.37-12.63-9.05,0,0,.4-.35.4-.35Z"/>
  <path class="cls-4" d="m181.86,156.48c-1.88-1.4-2.35-3.18-1.6-5.82,2.5,1.55,1.6,3.75,1.98,5.5l-.39.32Z"/>
  <path class="cls-4" d="m182.25,156.16c.41.75.81,1.51,1.22,2.26,0,0-.4.35-.4.35-.4-.76-.8-1.53-1.2-2.3,0,0,.38-.32.38-.32Z"/>
  <path class="cls-12" d="m81,52.96c.41.4.82.81,1.23,1.21-.41-.4-.82-.81-1.23-1.21Z"/>
  <path class="cls-14" d="m53.45,96c5.48-1.88,9.09-.42,11.06,4.5-3.23-.93-6.48-1.79-9.67-2.83-.58-.19-.93-1.09-1.39-1.67Z"/>
  <path class="cls-19" d="m103.32,225.86c-.72-.39-1.45-.78-2.17-1.17.72.39,1.45.78,2.17,1.17Z"/>
  <path class="cls-8" d="m243.84,119.91c-.34,9.78-.64,10.43-10.07,13.92-15.53,5.74-29.94,3.53-43.11-6.49-1.82-1.38-3.06-2.76-2.76-5.28,1.61-13.35,10.92-25.61,23.52-28.03,16.04-3.07,27.44,4.43,31.2,16.75.88,2.9.83,6.07,1.21,9.12Z"/>
  <path class="cls-8" d="m264.33,100.51c7.43-7.85,16.36-8.18,25.84-4.75,9.7,3.52,15.58,10.84,18.89,20.15,4.53,12.76,3.97,12.3-7.11,18.49-9.41,5.26-19.42,6.87-29.92,3.65-2.21-.68-4.26-1.85-6.39-2.8-.22-1.12-.36-2.26-.67-3.35-1.78-6.45-3.76-12.9-2.91-19.68.5-3.93,1.48-7.81,2.25-11.71Z"/>
  <path class="cls-8" d="m189.13,135.46c-.49-1.73-.98-3.46-1.6-5.66,1.4.23,2.07.14,2.44.42,7.49,5.72,16.11,8.98,25.39,9.29,5.88.2,11.86-1.54,17.75-2.68,2.26-.44,4.36-1.63,6.53-2.48-1.46,3.28-2.56,6.77-4.43,9.8-9.16,14.76-27.97,15.46-38.46,6.37-.54-.47-1.37-.62-2.06-.91-3.63-2.74-4.56-6.88-5.79-10.86,4.05,1.75,8.07,3.56,12.16,5.2.77.31,1.81-.05,2.89-.11-5.23-2.96-10.03-5.67-14.82-8.38Z"/>
  <path class="cls-7" d="m305.63,155.2c-2.52,6.63-8.44,9.14-14.56,10.1-11.43,1.79-22.01-.95-29.4-10.22-3.51-4.4-5.45-10.1-7.67-15.38-1-2.38-.95-5.2-1.4-7.98,5.73,2.92,11.14,5.67,16.55,8.42,1.3,2.52,2.3,5.27,3.95,7.54,7.1,9.74,18.71,12.84,29.75,8.23.87-.36,1.85-.48,2.77-.7Z"/>
  <path class="cls-3" d="m305.63,155.2c-.93.23-1.9.34-2.77.7-11.04,4.62-22.65,1.51-29.75-8.23-1.66-2.27-2.65-5.01-3.95-7.54,14.39,4.58,27.48,1.54,39.71-6.6.91-.6,1.93-1.03,4.19-2.23-.93,2.9-1.47,4.6-2.02,6.3-2.86,1.92-5.57,4.12-8.61,5.69-2.92,1.51-6.19,2.37-9.3,3.51.9.84,1.63,1.01,2.32.9,6.33-.98,11.45-4.42,16.52-7.96-.82,5.67-1.97,11.2-6.33,15.45Z"/>
  <path class="cls-7" d="m194.69,149.62c.69.3,1.52.45,2.06.91,10.49,9.09,29.3,8.39,38.46-6.37,1.88-3.03,2.98-6.52,4.43-9.8,2.05-1.06,4.09-2.11,6.34-3.27,1.96,3.81.24,7.12-.63,10.21-2.88,10.14-8.26,18.51-19.4,21.14-11.33,2.67-21.18-.58-29.29-8.77-1-1.01-1.32-2.69-1.95-4.05Z"/>
  <path class="cls-7" d="m264.33,100.51c-.77,3.9-1.76,7.77-2.25,11.71-.85,6.79,1.12,13.24,2.91,19.68.3,1.1.45,2.24.67,3.35-3.88-2.51-7.81-4.93-11.58-7.59-.78-.55-1.44-2.04-1.3-2.98,1.32-9.22,3.11-18.27,11.56-24.18Z"/>
  <path class="cls-4" d="m311.96,139.75c-5.07,3.54-10.19,6.98-16.52,7.96-.69.11-1.42-.06-2.32-.9,3.11-1.14,6.38-2,9.3-3.51,3.04-1.57,5.76-3.76,8.61-5.69.3.71.61,1.42.92,2.13Z"/>
  <path class="cls-4" d="m189.13,135.46c4.79,2.71,9.59,5.42,14.82,8.38-1.08.06-2.12.42-2.89.11-4.09-1.64-8.11-3.45-12.16-5.2.08-1.1.15-2.19.23-3.29Z"/>
  <path class="cls-23" d="m255.79,170.15c4.7-.51,9.32.91,13.78,3.08,5.26,2.57,10.49,5.22,15.81,7.66,8.44,3.87,17.47,5.44,26.64,6.46,2.05.23,4.58-.09,5.16,2.76.59,2.94-1.15,4.95-3.46,6.14-5.36,2.77-11.23,3.44-17.11,2.45-10-1.67-20.02-3.36-29.88-5.7-8.95-2.13-17.81-2.63-26.69-.55-12.64,2.97-25.55,3.39-38.39,3.89-6.55.25-13.21-1.05-19.74-2.13-2.34-.39-4.78-1.85-6.57-3.47-2.65-2.39-1.79-5.07,1.64-5.97,1.49-.39,3.1-.54,4.64-.48,18.09.62,35.31-3.33,52.19-9.34,6.98-2.49,13.98-5.1,21.97-4.8Zm-74.2,18.77c-.03.55-.05,1.09-.08,1.64,5.23.88,10.44,1.71,15.87,1.26,9.42-.78,18.37-3.21,27.36-6.03,6.81-2.14,14.06-3.3,21.2-3.89,10.91-.9,21.22,2.49,31.48,5.79,7.24,2.33,14.55,4.5,21.93,6.31,3.79.93,7.84,1.15,11.63-.9-2.93-.82-5.98-.66-8.8-1.37-8.32-2.08-16.7-4.08-24.79-6.86-18.91-6.49-37.78-8.06-56.74-.64-10.6,4.15-21.55,5.28-32.8,4.7-2.09-.11-4.18-.02-6.27-.02Z"/>
  <path class="cls-3" d="m265.51,167.91c1.98.78,3.95,1.57,5.93,2.35-1.98-.78-3.95-1.57-5.93-2.35Z"/>
  <path class="cls-3" d="m271.38,170.23c.8.58,1.6,1.16,2.39,1.74-.8-.58-1.6-1.16-2.39-1.74Z"/>
  <path class="cls-13" d="m181.59,188.92c2.09,0,4.19-.09,6.27.02,11.25.58,22.2-.56,32.8-4.7,18.96-7.42,37.83-5.85,56.74.64,8.09,2.78,16.47,4.79,24.79,6.86,2.83.71,5.88.55,8.8,1.37-3.8,2.05-7.84,1.83-11.63.9-7.39-1.81-14.69-3.98-21.93-6.31-10.26-3.3-20.57-6.69-31.48-5.79-7.14.59-14.4,1.75-21.2,3.89-8.99,2.82-17.95,5.25-27.36,6.03-5.43.45-10.64-.37-15.87-1.26.03-.55.05-1.09.08-1.64Z"/>
</svg>