<?xml version="1.0" encoding="utf-8"?>
<!-- Generator: Adobe Illustrator 28.0.0, SVG Export Plug-In . SVG Version: 6.00 Build 0)  -->
<svg version="1.1" id="Layer_1" xmlns="http://www.w3.org/2000/svg" xmlns:xlink="http://www.w3.org/1999/xlink" x="0px" y="0px"
	 viewBox="0 0 8192 7870" style="enable-background:new 0 0 8192 7870;" xml:space="preserve">
<style type="text/css">
	.st0{fill:#FFFFFF;}
	.st1{fill:#A7CA5E;}
	.st2{fill:#B095C6;}
	.st3{fill:#01B6D6;}
	.st4{fill:#AF4785;}
	.st5{fill:#FFDB73;}
	.st6{fill:#FBBD0B;}
</style>
<g>
	<g id="Layer_3">
		<g id="_2a73j9">
			
				<image style="overflow:visible;opacity:0.75;enable-background:new    ;" width="8229" height="7870" xlink:href="57DF661E9279512B.png"  transform="matrix(0.5621 0 0 0.5129 -5544.2998 6617.9517)">
			</image>
			<path class="st0" d="M-1847.4,8404.4c-38.9-384-51.4-773.4-102.8-1157.1c-13-110.4-72.1-211.4-181.4-267.7
				c-158.1-95.3-237.1,40.8-298.7-38.7c-43.6-47.4-99-81.1-165.5-94c-126.9-24.6-232.3,13.3-319.6,97.9c-5.1,5-21.3,7.6-26.8,4.2
				c-79.2-49-168-60.4-259.1-47.3c-217.9,30.9-263.7,243.1-290.4,409.7c-62.3,350.9-110.7,703.7-138.7,1058.3
				c-0.3,3.5-1.6,6.9-2.7,11.5c-6.4-0.4-12.6,0.3-17.9-1.2c-62-17.6-124.9-23.8-189.9-16.7c-190.7,8.1-341.5,107-470.8,227
				c-78.1,67.1-162.4,178.9-162.4,276.1c13.6-0.7,29.6,2.6,40.4-2.6c185.2-85.3,469.7-105.4,587.8,80.3
				c123.7,179.6,239.8,363.8,367.6,541c87,128.8,228.3,200.1,380,255.9c-40.7,107.2-97.6,208.3-140.2,314.7
				c-31.4,76.7-86.5,231.5,13.5,282.4c96.9,47.3,205.5,30.7,238.9-74.6c57.6-148,67.7-304.8,103.2-457.3c9.7-41.5,56.6-22.1,93-25.7
				c-0.8,201.3-169.1,648.5,181.4,652.3c98.7-18.9,145.5-104.3,133.2-174.7c-28.1-162.4-67.2-323.1-95.8-485.5
				c70.2-0.6,86.4-41.1,103.6,29.5c63.4,146.9,91,549.3,324.3,514.6c92.5-9.4,170.4-109.9,128.8-189.9
				c-84.8-151.2-186.5-291.2-283.1-436.6c355.9-127.7,353.2-420.2,530.9-680.9c113.6-171.5,344.8-255,557.3-226
				c19.5,1.7,38.8,3.9,47.7-10.3c-34.7-103.2-146.7-180.6-232.5-253.4C-1522.5,8418.2-1680.4,8387.1-1847.4,8404.4z M-1263.4,9442.4
				l0.4,1.3l2-0.7L-1263.4,9442.4z"/>
			<path d="M-1847.4,8404.4c166.9-17.4,324.9,13.7,453.2,115.1c85.8,72.6,197.8,150.2,232.5,253.4c-8.9,14.2-28.2,12-47.7,10.3
				c-212.5-29-443.8,54.6-557.4,226c-178.5,261.7-173.9,552.1-530.9,680.9c96.5,145.4,198.3,285.4,283.1,436.6
				c41.6,79.9-36.3,180.5-128.8,189.8c-232.9,35.1-261.1-367.9-324.3-514.6c-17.2-70.7-33.5-30-103.6-29.5
				c28.6,162.4,67.7,323.1,95.8,485.5c12.3,70.5-34.5,155.8-133.2,174.7c-350.6-4.2-182.1-450.6-181.4-652.3
				c-36.2,3.6-83.4-15.8-93,25.7c-35.5,152.5-45.6,309.3-103.2,457.3c-33.5,104.9-142,122.2-238.9,74.5
				c-99.9-50.2-45-206.4-13.5-282.4c42.6-106.5,99.5-207.6,140.2-314.7c-151.6-55.7-293-127.1-380-255.9
				c-127.8-177.1-244-361.3-367.6-541c-118.3-185.8-402.4-165.4-587.8-80.3c-10.9,5.3-26.8,2-40.4,2.6
				c-0.2-97.6,84.8-209.3,162.3-276.1c129.5-120.1,280-218.7,470.9-226.9c64.9-7.1,127.8-0.9,189.9,16.7
				c14.1,1.6,19.5,4.9,20.7-10.3c28.1-354.6,76.4-707.4,138.7-1058.3c26.7-166.7,72.5-378.9,290.4-409.7
				c91.1-13.2,179.9-1.8,259.1,47.3c5.6,3.4,21.7,0.8,26.8-4.2c87.4-84.6,192.7-122.5,319.6-97.9c66.4,12.9,121.8,46.6,165.4,94
				c62.6,79.6,139.4-56.8,298.7,38.7c109.3,56.3,168.4,157.3,181.4,267.7C-1898.8,7631-1886.3,8020.5-1847.4,8404.4z
				 M-2627.7,9085.3l-1.4,0.1l2.1,0.4l-0.2,1.1C-2627.3,9086.8-2627.7,9085.2-2627.7,9085.3z M-2588.6,9109
				c-0.3,20.6-0.2,41.3-0.2,61.9c37.1-38.8-6.3-27.7,0.4-62.2l-1.9,1.4c0.2-1.1,0.3-2.2,0.5-3.3
				C-2589.3,9107.5-2588.8,9108.2-2588.6,9109L-2588.6,9109z M-2140,9065.1l-3.2,0.9c9.2-10,22.4-15.7,34.9-22.1l-0.8-1.2
				C-2106.1,9047.4-2135.6,9055.1-2140,9065.1L-2140,9065.1z M-2612.5,8995.8c13.3-17.8,85.3,6.3,109.5,5.2
				c-15.4-46.3-67.7-43-109.3-5.3c-2.5-0.3-5.1-0.7,1.3,0.2L-2612.5,8995.8z M-2616.6,9125.3l0.3-0.6c0.7,2.5,1.4,5,0.4,1.6
				C-2613.2,9129-2615,9127.2-2616.6,9125.3z M-2835.5,9149c-20,15.6-40.3,15.8-65.2,18.7c1,2.9,2,5.7,3,8.6
				c18.7-6.6,54.7-20.2,61.3-28.8L-2835.5,9149z M-2263.7,9131.7c7.6-7.2,15.2-14.5,23-21.7l-0.9-0.2c5.9,1,3.4,0.6,1,0.2
				c-7.5,7.4-15,14.7-22.8,22c-46.2,3.7-85.1,36.7-127.9,52.6C-2326.4,9190.5-2310.3,9132.5-2263.7,9131.7L-2263.7,9131.7z
				 M-2689.1,8850.9l30.4-15.8l-6-6.3c-8.3,8.5-19,17.7-26.5,25.2L-2689.1,8850.9z M-2827.9,8928l1.3,0.3
				c-14-7.7-24.7-26.3-37.5-37.7c-2.1-12.5-4.2-25-6.4-37.6l-9.6,2.9l16.7,34C-2863.6,8911.7-2848,8921.5-2827.9,8928L-2827.9,8928z
				 M-2931.6,8999.8l3.6,0.5c-17.2-5.1-29.7-24.1-44.9-34.2l-6.4,8.5C-2963.5,8983.1-2947.6,8991.5-2931.6,8999.8z M-2514,9052.8
				c1.9,0.3,3.9-0.2,5.4-1.4c-6.6-8.1-13.2-16.2-19.8-24.3c-11.5,3.8,0.9,13.7,2.8,21.1c6.5,14.9,13.1,29.7,19.6,44.6l8.4-2.8
				L-2514,9052.8z M-2599.8,8920.1l60.4-12.7C-2562.7,8900.5-2585.8,8894.4-2599.8,8920.1l1,0.2L-2599.8,8920.1z M-2666.1,8931.5
				l82.9-57.7c-42.3-2.6-57.9,7.1-82,58.4L-2666.1,8931.5z M-2507.7,8949l-0.8,0.7c-27.7-26.2-86.4-22.9-100.8-0.7
				C-2578.1,8949-2542.9,8949-2507.7,8949L-2507.7,8949z M-2689.8,8905c27.7-28.5,58.1-53.1,103.8-55.3
				c-60.2-15.2-85.9,25.4-114.1,67.4l7.7,3.1C-2691.5,8915.1-2690.6,8910-2689.8,8905L-2689.8,8905z M-2875.5,9026.4
				c-40-0.1-78.9-3.7-112.7-32.5c11.2,59,75.9,55.7,124,28.7l-3-4.8L-2875.5,9026.4z M-2851.6,8960.7c-42.2-5-73.2-23-85.4-62.5
				c-61,46.1,36.2,107.6,75.9,80.7c5.7-2.9,6-18.9,10.7-19.1L-2851.6,8960.7z M-2766.5,6997.1c-73.3,38.1-126.3,120.2-50.6,130.4
				c-8.3,9.2-15.6,19.3-25.8,26.9c0.5-2.1,1-4.1,1.4-6.1c-5.6,8.1,9.5,10.7,11.1,12.7l30.1-9.2c-6.5,14.5-5.2,30.2-0.8,44.4
				l33.6-14.5c-3.2,15.8-3.3,31.2,5.4,45.4l29.4-21.2c7.1,40.6,9.2,44.4,42.4,14c11.6,27,1.8,30,35.3,26.8
				c5.3-14.1,8.8-23.3,12.2-32.6c7.6,11.1,23.1,19.6,19.8,33.9c29.2-13.6,58.4-27.3,87.6-40.9l-1.4-1.3l1,1.9
				c-5.8-8.5-11.6-16.9-17.4-25.4l38.3,3.9c22.3-18,39-56.2,32-88.5c-11.9,18.9-19.9,29.8-32.2,46.4l0.9,0.7
				c-5.2-31,8.2-55.5,40.8-63.9l-42.2-63.6l-10.7,28.9c-12.8-9.1-30.4-19-34.1-34c0.1,1.5,0.3,3,0.4,4.5l-21.7-1.9
				c-3.8-11.2-7-20.8-10.6-31.4l-26.6,20.6l-8.7-23.7l8.8,9.3l-28,25.5c-4.9,30.9,15.6,56.1,63.7,60.1c7.8,0.7,20.6,19,19.3,27.7
				c-10,57.4-57.5,21.3-72.2,81.4c-15.8,31.6-59.6,29.5-71.8-2.3c-0.9-51.8-68.8-27.1-82.7-68.1c0.8-52.8,85.7-39.5,90.6-96.5
				c3-14.8,17.8-27.6,30.7-46.3c-44.6-0.2-34-4.5-47.5,26c-30.2-19.4-18.5-28.1-50.7,0.9L-2766.5,6997.1z M-2831.5,7277.6
				c-38,35.5-46.9,38.8-75-9.8c-39.2,234.8-24.7,462.4-22.4,692.9c43.4-35.7,78.5-77.9,124.6-111c56.3-37,36.4-158-2.6-204.4
				c-77.8-78.3-122.3-196.4-47.9-276.1c35.1-30.1,21.5-60.1,22.4-96.4L-2831.5,7277.6z M-2984.1,7178.1c-3.6-8.3-7.2-16.7-11.8-27.3
				c22.4,1.3,35.8,11.7,47.2,1.5c-29-19.4-20.5-32.5,4.3-40.9c-77.4-204.3-426.1-104.4-378.5,19.6l-25.4-1.6
				c-17.3,52.7,214.4,142.8,264.9,55.4l24.5,27.7c25.9-4.6,56.9-8,75.5-35.4L-2984.1,7178.1z M-2898.8,8813.9
				c-161.2,8.9-388.3,153.7-467.1,283.2c114.9,59.9,248.4,110.3,428.1,116.1c-83.5-67.8-121.3-137.4-93.4-241.9
				c-0.2-74.7,78.9-112.8,131.5-158l24.9-7.6l-5.8-8.4L-2898.8,8813.9z M-3123.8,8814l10.3,3.9c0.3-1.3,0.7-2.7,1-4
				c-104.1-97.9-61.9-310.1-23.7-437.8c65.3-135.7-240.1-365.8-350.2-446.5c-32,166.5-41,332.7-67,499.8
				c-6.6,55.8,125.4,118.4,152.2,186.2c43.2,74.4,89.3,147.5,134.1,221.1c15.8,26,44.5,28.1,64.6,4.2
				C-3182.3,8816.8-3160.2,8798.8-3123.8,8814L-3123.8,8814z M-2775.9,8722.5c17.5-87.7,8.9-173.4,15.4-261.5
				c0.3-7.4,9.6-14.4,14.6-21.6c5,11.6,15.4,22.1,10.3,35.1c-2.6,54.4-5.6,108.8-7,163.2c-0.3,10.7-6.1,27.6,17.3,28.3
				c22.8,0.6,19.1-14.7,19.1-26.7c-0.3-55.3-0.2-110.6-2.1-165.8c-2.4-68.8-7-137.6-9.6-206.5c-0.4-11,4.9-22.2,7.5-33.3l18.4,0.8
				c-5.9,161.1,25.5,320.3,11.4,484.6c81.9-34.2,112.5-24.5,118.4,35.9c27-24.7,56.1-39,93.9-21.2c23.4-82.4-84-98.1-89.1-172.6
				c-0.4-74.4,4.1-152.9-49.3-216.1c-4.2-5-1.8-14.4-2.4-21.8c5.4-0.3,13.8-2.9,15.7-0.7c62.2,57.4,71,143.1,66.4,220.5
				c-11.7,74.5,105.1,94.1,88.6,172c-1.8,11.3,2.4,23.4,3.3,35.2c1.5,19.2,13,22.1,31,16.7c21.1-6.4,35.8-56.3,24.1-81.8
				c-240.3-428.8,271.4-206.6-259.4-798c-114.7-148-447.7,324.8-434.3,423.7c15,80.1,91.8,154.5,69.1,238.2
				c-27.3,66.6-58.3,133.7-97.6,195.5c-4.2-2.6-8.3-5.3-12.5-7.9l15.8,36.6c45.4-25.2,56-27.1,87.1-17.9
				c-42-120.3,129.7-135.6,80.6-252.9c-19.2-38.5,31.6-161.6,75.8-169.2c26.7,39.7-65.2,69-43.8,167.3
				c25,130.9-63.4,123.1-96.2,222.4c24.3-3.4,40.4-9,55.1-6.7c15.9,2.5,30.3,12.3,45.4,18.9
				C-2853.5,8684.4-2831.5,8681-2775.9,8722.5z M-4305.9,8718.6c651.7-91.7,625.5,505.5,1002.1,826.9c4.7-10.8,3.9-18,3-25
				c-6.2-43.9-17.3-87.8-17.3-131.6c0-52.2,8.5-104.4,15.2-156.5c2.4-18.6,0.4-28.8-22.5-36.2c-38.8-14.6-91.4-43.1-101.9-81.6
				c-1.6-16.4-9.7-22.5-19.7-31.7c-41.3-33.6-17.4-101.5,42.1-89.8c49.9,6.7-8-87.4,104.4-74.5c36.5-122.5-132.3-266.6-221.9-345.2
				c-145-114.3-380.8-160.1-546.2-58.8C-4159,8572.8-4248.1,8628.3-4305.9,8718.6L-4305.9,8718.6z M-2125.1,9487.6
				c93.4-156.1,136.2-319.8,235.1-472.2c110.5-185.9,336.2-332.4,576.1-314.8c-119.6-111.8-260.3-234.6-444.5-204.9
				c-191.6,45.1-350.8,169.7-464,313.9c-45,73.9,27.4,43,64,60.3c16.7,9.2,24.4,31.8,36.7,49.5c26.5-27.1,92.9,3.5,89,35.3
				c-6.4,98.5-94,134.2-175.6,176.1C-2180.7,9249.6-2153.9,9364.2-2125.1,9487.6L-2125.1,9487.6z M-2321.1,8821
				c36.8,3.1,69.7-9.9,89-46.1c42.4-50.1,79.8-104.5,126-151.6c53.8-54.8,114.2-104.5,171-156.9c5.1-4.7,7.6-14,7.3-21
				c-10-160.5-19.6-311.4-37-473c-128.5,64.8-225.1,157-310.7,264c-97.8,129.8,0,343.4-74.9,512.3
				C-2355.8,8776.2-2333.9,8793.9-2321.1,8821z M-2458.2,8028c7.9-254.1,15.6-503,23.4-751.5c-25,5.8-37.6,20.5-46.6,42.6
				c-14.6,40.6-58.6,22.1-68.4-11.3c-15.4,29.5-16.1,65.3-47,73.9c-30.2-9.9-39.9-32.3-50.4-63.9c-7.2,42.2-28,106.3-75.6,59.7
				c-17.6-21.1-16.5-50.7-19.5-76.2c-16.5,32-23.9,69.3-71.1,62.9c-34.9,118.9,32.2,201.6,118.5,278.8
				c21.4-25.7,40.2-58.8,68.6-79.8c71.7-43,91-107.6,67.6-180.6c2.4-9.1,8.3-17.4,12.8-26.1c70.5,20.7,73.4,169.7,24.4,217.7
				c-44,62.8-125.8,113.6-109.2,196.5c0.6,36.3,10.6,64.7,45.9,85.2C-2536.5,7907.8-2504.2,7968.3-2458.2,8028L-2458.2,8028z
				 M-2785,10184c-1.9,98.3,28.8,138.1,119.8,190.4c78,44,156.2-56.8,146.2-124.5c-8.3-54.7-20.9-108.8-32.5-163.1
				c-20.8-97.5-41.9-194.9-64.4-292.1c-16.9-34.6-67.6-13.4-99.7-15.5c-17.5,0.6-25.2,7.8-25.7,23.5
				C-2750,9930.2-2771.2,10056.9-2785,10184z M-3241.8,10232.1c-8.2,88.9,154.3,127.9,202.2,50.7c62.6-155.6,74.5-325.4,106.1-488.1
				c-1.2-35.4-51.3-27.8-77.5-38c-32-9-45.3,4.5-57.2,29.7C-3133.7,9932-3233.3,10070.9-3241.8,10232.1z M-2334,9706.6
				c-159.9,47.1-82.2,36.7-47.7,212.1c37.1,112.5,47.3,260.9,158.9,334c106,62.7,211.3-66.7,149.5-151.6
				C-2165.6,9972-2258.2,9845.3-2334,9706.6z M-2044.4,7243.3c-13.3,33.9-27.6,53.5-33.5,82c24.1,141-154.1,249.6-60.3,334.3
				c186.2,199.3-84.5,349.2-31.8,401.2c45-7.5,80.8-61.1,121.3-81.9c77.1-47.6,77.6-49,69.6-133.9
				C-2002.9,7644.5-1997.2,7440.8-2044.4,7243.3L-2044.4,7243.3z M-2176.8,9529.4c-140.7-53.2-263-124.9-348.6-248.9
				c-37.3,145.2-64.6,282.7-149.7,404.4C-2556.4,9701.3-2265.3,9610.1-2176.8,9529.4z M-2940.7,9309.6
				c-85.6,103.4-181.5,200.8-299.4,278.5c67,70.9,393.5,121.5,500.3,103.3C-2847.6,9582.7-2879.6,9442-2940.7,9309.6z
				 M-3389.4,7263.5c-37.5,189.4-49.5,383.3-67.9,575.3c-5.5,53.9,15,87.9,72.4,111c-54.4-201.6,194.4-361.3,120-428.9
				C-3362.3,7427.3-3308.2,7277.9-3389.4,7263.5L-3389.4,7263.5z M-2434.9,9161.8c8.4-8.1,13-15.7,20-18.9
				c95.5-43.9,193.2-83.9,284.3-135.4c86.6-39.6-330.2-182.3-369-192.6c-11.3-1.3-53-18.6-54.2-5.7
				c48.9,33.1,110.5,63.7,116.4,125.4c11.4,80.6-14.5,160.4-40.5,235.5L-2434.9,9161.8z M-3080.1,8181c23.5-38.3,45.4-72.7,66-107.8
				c19.8-33.8,50.1-62.2,49.6-105.5c-1.1-193,7.1-383.8,9-577c-167.6,272.5-185.7,60.5-72.7,378.8c39.6,112.8-27.9,215-102.9,301.3
				c-7,9.7-17.5,26.3-13.3,32.4C-3126.4,8129.7-3103.5,8153.5-3080.1,8181z M-2867.8,9309c26.5,124.6,69.9,241.6,155.5,346.8
				c66.1-120.3,119.8-238,131-365.5L-2867.8,9309z M-3099.7,8230.2c0-9,3-17.6-0.5-21.9c-22.6-28.5-43.7-58.9-71.3-83.1
				c-19-16.6-22.6-26.7-6.2-44.7c178-166.3,146.5-298,44.9-491.2c-8-17.5-10.8-29.8,9-41.6c87.5-62.3,129.3-157.6,181.5-242.8
				c1-1.5-1.4-4.8-3.5-11c-49.2,21.5-63,62.4-80.9,105.1c-12.1,37.1-122.9,184.2-164.2,124.8c-43.7-54.3-61.3-119.1-81.4-182.7
				c-6.1-19.9-16.4-29.7-44.6-26.8c5.9,84.4,58.9,150.8,98.8,224c5.1,9.2,9.8,23.8,5.3,31.2c-81.6,131.8-224,296.9-110.1,446.6
				C-3246,8087-3173.3,8154.8-3099.7,8230.2z M-3259.6,9556c60.3-13.4,224.1-181.4,260.8-268.1c-74.6-19.8-148.6-39.9-223.2-58.5
				c-5.5-1.4-18.6,7.2-20.9,13.4C-3279.9,9343.3-3282.4,9452.1-3259.6,9556L-3259.6,9556z M-2484.4,9264.2
				c61.6,115.3,187.7,158.4,304.9,214c-13-110.6-32.5-217.4-68-319L-2484.4,9264.2z M-2113,7302.5l-8.7-2c-5.2,15.1-13,30-15.2,45.5
				c-1.9,37.4-76.8,280-134.6,191.6c-36-57.4-63.6-119.6-91.1-180.8l-12.5,1.5c-0.8,10.1-3.4,20.5-2,30.3
				c8.4,59.8,45.1,108,81.3,156c96.5,86.2-163.6,154-59.2,384.7c16,35.4,43.1,66.9,67.4,98.9c46.9,47.3-78.3,64.5-87.9,181.6
				l10.7,1.9c5.1-8.6,10.1-17.3,15.5-25.8c33.4-47.7,66.1-145.4,140.6-86.7c1.5,0.9,3.8,0.7,5.8,1.1c18.5-9.6,17.9-21.8,2.4-31.9
				c-67.3-37.4,167.4-170.9,78.5-331.6c-15.9-53.6-107.2-111.3-76.7-164.2C-2142.5,7490.9-2099.4,7401-2113,7302.5z M-2412.7,7410
				c-7.1,219.1-13.2,431.3-16.8,649c-5.9,37.8,20.9,62.4,36.7,96.2c14.6-22.1,24.7-39.7,37.3-55.8c13.6-17.4,40.6-32.9,41.4-50.1
				c0.9-17.7-23.4-36.1-35.5-54.8c-31.7-48.9-56.8-100.7-56.1-158.2c-9.4-164.9,135.2-221.9,92.2-270.2
				C-2346.3,7517-2377,7466.6-2412.7,7410z M-2289.9,7224.5c61.2-7.5,216.9-5.4,175.8-98.8c-67.7-140-381.8-106.2-271,69.2l27-16.6
				c0.9,15.5,1.6,26,2.4,39c7.6,1.7,16.6,3.8,18.5,4.2l25.4-27.2L-2289.9,7224.5z M-3245.8,7283.7c-20.8,37.7,43.8,201.3,86.6,224.1
				c71.8-42.5,106.1-107.6,126.7-161.6l-44.8-44.8c-34.1,40.1-41.5,40.6-83.7-1.4C-3205.8,7340.4-3216.8,7339-3245.8,7283.7z
				 M-3112.9,8706.2c113.4-190.2,94.8-164.9,24.3-356.1C-3129.5,8430.6-3143.7,8633.1-3112.9,8706.2z M-2517.7,7447.4
				c-14.2,122.8-142.5,136.7-164,252.4c-2.7,13.2-11.2,25.5-17,38.2l-9.8-2.6c-13.7-134-156.5-167.3-139.2-299.3
				c0.1-0.8-2.5-1.9-6.4-4.7c-58.9,159.4,141.1,172.8,110.3,370c31.2-25.9,58.3-20,86.2-4.3c0-18.4,1.5-32.8-0.3-46.9
				C-2677.4,7625.4-2478.4,7576.4-2517.7,7447.4z M-2191,7296.1c-70.4,96.3-50,5.1-147.9,36.2c38,114.5,59.8,157.8,96.2,189.5
				C-2198.6,7460.4-2135.8,7364-2191,7296.1L-2191,7296.1z M-2376.7,8646.2c51.9-71,26.8-192.5,8.3-279.7
				C-2459,8489.9-2417.6,8518.9-2376.7,8646.2z M-2592.5,7111.3c0.4-2.7,0.8-5.4,1.2-8.1c-14.2-3-28.4-8.3-42.7-8.5
				c-23-0.4-36.9-5-33.2-29.7c1.3-8.7-3.5-18.2-5.6-27.3l-8.4-0.5c-2.8,7.7-8.4,15.7-7.8,23.2c5.4,41.2-41.6,30.4-69,44.8
				c0.6,3,1.1,6.1,1.7,9.1c31.4,12.2,70.3-8.8,70,32.8c0.3,11.9,5.7,23.8,8.8,35.7c25.4,5.1,8.2-42,26.3-54.9
				C-2639.2,7116-2612.7,7116.3-2592.5,7111.3z M-2346.5,8276.8c34.9-42.5,68.6-83.4,102.2-124.5c8.1-9.9,27.7-19,10.4-33.3
				c-34.7-25.2-62.4,34.8-79.7,55c-11.5,17.9-17.5,39.1-31.1,55.3C-2358.6,8245.8-2358.9,8259.4-2346.5,8276.8z M-2997.2,9041.4
				c15.3,107.7,120.5,77.8,143.8,6.8C-2901.5,9072-2947.9,9073.9-2997.2,9041.4z M-2680.8,9099.2c-2.2,41.1-4.3,80.9-6.4,120
				C-2609.6,9211-2631.9,9117.6-2680.8,9099.2L-2680.8,9099.2z M-3371.6,9134.1c115.4,72.7,250.3,92.8,384.5,114.8
				C-3119.7,9222.8-3249.6,9189.2-3371.6,9134.1L-3371.6,9134.1z M-2787.7,9109.4c-12,39.1-30.6,74-79.5,88
				C-2791,9247.8-2731.6,9136.6-2787.7,9109.4L-2787.7,9109.4z M-2697.2,7366.8l11.4-0.2c4.9-19.7,11-39.1,14.3-59
				c5.5-32.5-3-38.6-44.1-30.9C-2708.6,7306.6-2721.5,7339.8-2697.2,7366.8L-2697.2,7366.8z M-2449.9,9207.3l-232.7,55
				C-2589.3,9269.3-2515.4,9241.5-2449.9,9207.3z M-2800.6,7239.4V7344C-2760.9,7310.4-2760.9,7256.7-2800.6,7239.4z
				 M-2866.5,7277.1c29.8-48.3,30.8-81.2,3.2-100.6C-2883.6,7208.1-2885,7252.7-2866.5,7277.1L-2866.5,7277.1z M-2509.5,7215.4
				c-12,13.8-26.7,23.2-26,31.4c2,23.2-1.7,50.4,25.8,66.9C-2494.8,7294.3-2494.2,7265.1-2509.5,7215.4z M-2804.4,8826.5
				c-70.6-2.8-20.9,96.5,20.4,90.2C-2806.9,8889.7-2808.6,8882.4-2804.4,8826.5L-2804.4,8826.5z M-2235.3,7319.3
				c2.9-21.2,26.2-61.2,9.8-74.9C-2271,7237.2-2265.4,7297.1-2235.3,7319.3z M-2606.9,7347.4l16.5-0.8c1.1-22.5,3.2-45,2.4-67.4
				c-0.2-4.7-10.7-11.7-17.3-12.5C-2633.2,7271.7-2607.2,7328.1-2606.9,7347.4z M-2537.6,9137.7c20.4-43.2-15.7-86.5-66.1-82.8
				C-2582.8,9081-2559.2,9110.5-2537.6,9137.7z M-2894,7157.5c14.3-51.1,5.1-109,57-148.6C-2881.4,7027.2-2908.1,7096-2894,7157.5z
				 M-3205.2,7297.4l14.4,3.3c6-13.8,14.3-27.2,17-41.5c1-5.4-11.1-12.7-17.2-19.1c-6.9,5.4-19,10.4-19.6,16.3
				C-3211.9,7269.8-3207.4,7283.6-3205.2,7297.4z M-2970.1,7272c25.1-28.2,27.2-49.2,8.5-69.5
				C-2993.7,7217.2-2989,7211.7-2970.1,7272L-2970.1,7272z M-3338.7,7191.7l-12.5,4c-2.1,18.3-4.3,36.6-6.4,55l14,4.8
				c8.4-10.6,22.2-20.8,23.5-32.1C-3319.1,7213.5-3332,7202.3-3338.7,7191.7L-3338.7,7191.7z M-3013.2,8801.4
				c-13.1-37.5-77.1-6.9-61.5,28.7L-3013.2,8801.4z M-3118.8,7302.2l8.8,0.6c6.4-17,21.7-43.1,7.7-58.5c-6.5-4.2-18.8-1-31.9-1
				C-3128.1,7266.4-3123.5,7284.3-3118.8,7302.2z M-2756.1,8915.3c38.2-18-5.5-57,82.8-110.8c-39.4-0.7-73.1,32.5-70.6,70
				C-2743.3,8886.7-2751,8899.2-2756.1,8915.3z M-3379.2,9033.3c-1.2-3.4-2.4-6.7-3.6-10.1c-49.6,14-56.1-0.2-44.2,49.6
				C-3405.1,9054.9-3390,9051.1-3379.2,9033.3L-3379.2,9033.3z M-2164.8,7295.9l12.7-0.7c2.1-15.6,5.2-31.2,5.6-46.9
				c0.1-5.2-6.9-10.5-10.6-15.8c-5.9,4.9-16.9,10.1-16.6,14.7C-2172.9,7263.5-2168.1,7279.6-2164.8,7295.9z M-2365.5,7239.3
				c-25.2,18.5-29.2,62.3-5.5,87.8C-2369.3,7299.2-2367.5,7271.4-2365.5,7239.3z M-2428.6,8811.3l63.1,12.5
				c0.3-7.6,3.8-20.2,0.4-22.1C-2382.9,8792.1-2402.2,8788.8-2428.6,8811.3z M-2081.4,7278.3c-3.3-23.2-6.6-46.4-10.3-72.6
				C-2115.3,7221.2-2112.1,7246.7-2081.4,7278.3z M-2830.5,9089.5l-86.1,50.3C-2884.5,9154-2851.7,9135.9-2830.5,9089.5z
				 M-3037.7,7289.1l12.4-0.9c1.8-13.7,4.8-27.3,4.6-40.9c-0.1-4.5-8.6-9-13.3-13.4c-5.3,5.3-15.4,11-14.9,15.8
				C-3047.5,7263-3041.7,7276-3037.7,7289.1z M-3301.2,8962.5c-0.5-2.8-1-5.6-1.6-8.5c-11.7,0-28.6-4.3-34,1
				c-9.3,9-11.4,24.1-16.5,36.6C-3342.7,9003.1-3314,8968.7-3301.2,8962.5z M-3216.8,8905.4c0.5-3,1-5.9,1.5-8.9
				c-10-2.2-24.7-9.1-29-5.6c-12.3,10-20.4,24.3-30.2,36.9l8.4,6C-3249.6,8924.3-3233.2,8914.9-3216.8,8905.4z M-3286.6,7281.5
				l12.5,3.2c6-13.6,12.8-27,17.1-41.1c0.8-2.5-7.8-9.4-13.2-10.8c-3.3-0.9-12,4.4-12.6,7.7
				C-3285.2,7253.9-3285.5,7267.8-3286.6,7281.5z M-2735.4,9213.7c26.3-17.6,36.5-66.6,20-89.8
				C-2721.7,9152.1-2728.5,9182.8-2735.4,9213.7z M-2921.6,8766.9l1.6-10c-38.7-9-41.1-13.6-58.2,25.9
				C-2951,8778.6-2944,8774.5-2921.6,8766.9z M-2459.6,7175.9l-14.1,1l6,71.6l14.3-1C-2455.5,7223.7-2457.5,7199.8-2459.6,7175.9
				L-2459.6,7175.9z M-3180,8882.6l59-32.2C-3158.4,8836.3-3171.3,8843-3180,8882.6z M-2705.9,8739.8c1.5-2.3,3-4.7,4.5-7
				c-8.2-5-16.8-14.4-24.5-13.8c-9.6,0.7-18.3,9.7-27.4,15.2C-2747,8745.5-2719.2,8737.6-2705.9,8739.8z M-2322.8,7297l16.5,1.8
				c1.6-15.9,3.2-31.7,4.8-47.6c-4.6-0.3-13.1-1.2-13.2-0.7C-2318,7265.9-2320.3,7281.5-2322.8,7297L-2322.8,7297z M-2864.5,8753
				l55.2-9.6C-2830.3,8719.1-2841.6,8720.6-2864.5,8753z M-2890.7,8927.7l12.7-5.1l-24.7-49.7l-10.6,3.9L-2890.7,8927.7z
				 M-2757.8,8815.7c-23.4,21.6-27.9,43.7-12.9,63C-2766.4,8857.7-2762.1,8836.7-2757.8,8815.7L-2757.8,8815.7z M-2165.2,8919.6
				c-5.8-30.6-12.3-33.3-41.7-20.3L-2165.2,8919.6z M-2068.5,8966.7c11.2-17.7-18.7-33.9-38.7-17.1L-2068.5,8966.7z M-2520.7,8771.8
				l42.4,11.2C-2488.2,8754.6-2501.6,8753.5-2520.7,8771.8z M-2637.2,8745.9l47.1,4.7C-2606.9,8722.9-2622.1,8730.6-2637.2,8745.9z
				 M-2298.3,8844.1l-3.8,9.3l32.8,11.7l4.5-9.9L-2298.3,8844.1z M-2440.1,7146.5l4.6-0.8c-1.3-8.2-2.7-16.3-4.1-24.5l-6.2,1
				C-2443.9,7130.3-2442,7138.4-2440.1,7146.5z M-2488.6,8956.2l-4.5,2.7l7.5,9.9l4.1-2.5
				C-2483.9,8962.9-2486.2,8959.5-2488.6,8956.2z M-2962.8,9251.1l-0.2,2.5c3.3-0.6,8.3,1.5,10.3-1.3L-2962.8,9251.1z M-2651,6976.2
				l-2-3.2C-2654.6,6975.2-2653.5,6975.2-2651,6976.2z M-2613,9022.6c-1.5-0.1-2.7-0.6-2.5,1.4
				C-2614,9024.1-2612.8,9024.6-2613,9022.6L-2613,9022.6z M-2574.7,9018.5l-3.8-1.8C-2578.9,9019.4-2577.6,9018.4-2574.7,9018.5
				L-2574.7,9018.5z M-3909.9,8394.6l1-1.4l-1.6-0.2L-3909.9,8394.6z M-2516.7,8913.9c2.7,0.9,5.1,3.6,7.1,0.2
				C-2512.3,8913.1-2514.7,8910.6-2516.7,8913.9z M-2704.8,8871.6l0.9,2.1l1-2L-2704.8,8871.6z"/>
			<polygon points="-1263.4,9442.4 -1261,9443 -1263,9443.8 			"/>
			<path class="st1" d="M-2775.9,8722.5c-55.6-41.5-77.6-38.1-119,13c-15.1-6.6-29.5-16.5-45.4-19c-14.6-2.3-30.8,3.4-55.1,6.7
				c32.7-99.1,121.2-91.6,96.2-222.4c-21.4-98.7,70.3-126.8,43.8-167.3c-44.2,7.7-94.9,130.3-75.8,169.2
				c49.1,117.2-122.6,132.6-80.6,252.9c-31-9.2-41.7-7.3-87.1,17.9l-15.8-36.6c4.2,2.6,8.3,5.2,12.5,7.9
				c140.4-255.3,120.8-186.7,28.5-433.7c30.2-169.3,176.5-334.4,323.9-438.8c38.7-27,82.3-19.2,110.4,15.1
				c91.2,113.1,201.3,216,244.3,354.7c39,215.5-158.2,123.4,15.1,443.2c24.6,68.9-63.9,135.7-58.4,30c16.6-78-100.3-97.6-88.6-172
				c4.6-77.5-4.2-163.1-66.4-220.5c-1.9-2.2-10.3,0.3-15.7,0.7c0.7,7.4-1.7,16.9,2.4,21.8c53.4,63.2,48.9,141.7,49.3,216.1
				c5.1,74.5,112.4,90.3,89.1,172.6c-37.9-17.8-67-3.5-93.9,21.2c-5.9-60.4-36.5-70.1-118.4-36c14.1-164.4-17.3-323.5-11.4-484.6
				l-18.4-0.8c-2.6,11.1-7.9,22.3-7.5,33.3c2.6,68.8,7.2,137.6,9.6,206.5c1.9,55.2,1.8,110.5,2.1,165.8c0.1,12,3.7,27.3-19.1,26.7
				c-23.3-0.6-17.5-17.6-17.3-28.2c1.4-54.4,4.4-108.8,7-163.2c5.2-13-5.3-23.4-10.3-35.1c-5.1,7.2-14.3,14.2-14.6,21.6
				C-2767,8549.2-2758.4,8634.7-2775.9,8722.5z M-2484.1,8280.2c64.6-10.1,26.6-81.6-24.8-86.4c-28.8,1.2-27.1,23-28.1,40.1
				C-2538.3,8255.7-2508.5,8280.3-2484.1,8280.2z M-2973.4,8256.1c10.4,47.5,68.2,5.3,80.7-19.9c5.1-10.1,1.8-26.9-4.6-37.3
				c-3.4-5.6-21.9-6.5-32.6-4.8C-2957.2,8198.6-2972.9,8219.9-2973.4,8256.1L-2973.4,8256.1z M-2608.7,8035.5
				c-21-32.2-45.5-60.8-69.5-90.9c-3.7-4.5-12.6-5.4-19.1-8c-22,46.3,38.3,79,64.9,110C-2621,8054-2614.1,8045-2608.7,8035.5z
				 M-2821.3,8069.6c23.9-8.6,59.1-89.9,77.1-114.8c1.9-3.4-5.6-11.2-8.8-16.9c-30.7,14.5-48.8,68.2-69.1,95.6
				C-2831.4,8047.5-2833.5,8056.2-2821.3,8069.6L-2821.3,8069.6z M-2745.2,8363c14.1-54.1,12-100.2,16.4-154
				c0.3-7.6-7-15.5-10.9-23.3c-5,7.7-14.1,15.2-14.3,23.1c-1.6,44.2-1.3,88.5-1.1,132.7C-2755,8346.2-2751,8350.8-2745.2,8363z
				 M-2690,8027.1c-0.5,1.4-0.8,2.3-1.1,3.3l2.2-0.7C-2689.2,8029-2689.5,8028.3-2690,8027.1L-2690,8027.1z"/>
			<path class="st2" d="M-4305.9,8718.6c57.7-90.3,147-145.8,237.2-204.1c165.3-101.4,401.2-55.5,546.2,58.8
				c89.5,78.3,258.5,222.9,222,345.2c-112.6-12.8-54.5,81.2-104.5,74.5c-59.5-11.7-83.3,56.2-42.1,89.8c9.9,9.2,18,15.3,19.7,31.7
				c10.6,38.6,63.1,66.9,101.9,81.6c22.8,7.4,24.9,17.6,22.5,36.2c-6.7,52-15.2,104.3-15.2,156.5c0,43.9,11.2,87.8,17.3,131.6
				c1,7.1,1.7,14.2-3,25C-3680.6,9223.9-3654.1,8627-4305.9,8718.6z M-3830.6,8701.5c-2.9,56.7,50.7,46.3,81.4,25.6
				c29.1-25.4,53.7-14.4,79.1,3.7c22,18.2,47.8,27,68,6.4c26.5-55.6-78-52.8-2.2-118.4c41.5-51-43.9-60.4-76.8-28.5
				c-44.5,40.3-41.7-16.4-105.2-36.5c-64.8-8.2-32.9,53.1-9.3,79.4c10.4,13.1,8,20.9-4.6,31.9
				C-3814.2,8677.6-3824.4,8693.9-3830.6,8701.5L-3830.6,8701.5z"/>
			<path class="st2" d="M-2125.1,9487.6c-28.8-123.4-55.6-238-83.3-356.8c81.7-41.9,169.3-77.7,175.6-176.1
				c3.9-31.7-62.4-62.5-89-35.3c-12.3-17.7-20-40.3-36.7-49.5c-36.2-17.3-109.2,13.7-64-60.3c113.2-144.2,272.5-268.8,464-313.9
				c184.2-29.6,324.8,93.1,444.5,204.9c-239.8-17.6-465.6,129-576.1,314.8C-1988.9,9167.8-2031.7,9331.4-2125.1,9487.6z
				 M-1829.5,8688.7c-22,21.3-40.6,69.2-9,82.2c13.8,4.2,33.2-6,49.9-10.4c27.8-25.5,48.8-53.9,94-30.8c9.5,4.5,23.7,0,35.6,1.3
				c25.5,2.9,37-13.8,38-29.7c-2.9-28.6-35.1-44.6-65-54.3c15.6-15.1,39.5-34.6,37.6-53.2c-5.1-8.7-19.3-14.4-31-18.2
				c-32.7-6.2-71.9,26.2-100.9,36.3c-21.5-6.5-42.8-13.8-64.7-19.4c-52.7-11.9-66.7,44.2-33.3,72
				C-1867.9,8675.2-1849.3,8679.4-1829.5,8688.7z"/>
			<path class="st2" d="M-3123.8,8814.1c-36.3-15.3-58.5,2.7-78.7,26.8c-20.1,23.9-48.8,21.8-64.6-4.2
				c-44.8-73.6-90.8-146.7-134.1-221.1c-27.4-68.3-158.7-130.2-152.2-186.2c26-167.1,35-333.3,67-499.8
				c133.8,88.9,235.5,193.9,331.4,314.4c93.3,110.5-115.4,332.7,30.7,570.7L-3123.8,8814.1z"/>
			<path class="st2" d="M-2321.1,8821c-12.9-27-34.8-44.8-29.3-72.3c75.1-170-23.2-381.6,74.9-512.4c85.7-107,182.2-199.1,310.7-264
				c17.4,161.6,27.1,312.6,37,473c0.3,7-2.2,16.3-7.3,21c-106,91.7-207.6,185.8-287.9,297.8C-2246.1,8800.4-2277,8827.4-2321.1,8821
				z"/>
			<path class="st3" d="M-2458.2,8028c-46-59.7-78.3-120.2-126.9-172.1c-35.3-20.5-45.4-48.9-45.9-85.2
				c-16.5-83,65.2-133.7,109.3-196.6c49.2-48,45.9-197.2-24.4-217.7c-4.4,8.7-10.4,17-12.8,26.1c23.4,73,4,137.6-67.6,180.6
				c-28.4,21.1-47.2,54.1-68.6,79.8c-86.3-77.2-153.4-159.9-118.5-278.8c47.3,6.4,54.6-30.9,71.2-62.9c3,25.5,2,55.1,19.5,76.2
				c47.6,46.6,68.4-17.4,75.6-59.7c10.5,31.6,20.3,54,50.4,63.9c31-8.7,31.6-44.2,47-73.9c9.8,33.4,53.8,51.9,68.4,11.3
				c9-22.1,21.6-36.8,46.6-42.6C-2442.6,7525-2450.3,7773.9-2458.2,8028z"/>
			<path class="st4" d="M-2785,10184c13.9-127.1,35.1-253.7,43.5-381.3c0.6-15.6,8.2-22.9,25.7-23.5c32,1.9,82.9-19.1,99.7,15.5
				c22.6,97.1,43.6,194.6,64.4,292.1c11.6,54.2,24.2,108.4,32.5,163.1c10.1,67.8-68.2,168.4-146.1,124.5
				C-2756.6,10321.6-2786.7,10282.8-2785,10184z"/>
			<path class="st4" d="M-3241.8,10232.1c8.6-161.2,108.2-300,173.5-445.7c19.8-55.4,76.3-23,121.1-15.1
				c7.1,2.4,14.7,15.9,13.6,23.3c-31.6,162.7-43.4,332.4-106,488.1C-3087.6,10360-3250,10320.9-3241.8,10232.1z"/>
			<path class="st4" d="M-2334,9706.6c75.8,138.6,168.4,265.4,260.8,394.4c61.7,84.8-43.5,214.5-149.5,151.6
				c-111.7-73.2-121.8-221.5-159-334C-2416.1,9743.5-2494,9753.8-2334,9706.6z"/>
			<path class="st0" d="M-2899.6,8813.2c-52.6,45.2-131.7,83.3-131.6,158c-27.9,104.5,9.9,174.2,93.4,241.9
				c-179.7-5.8-313.2-56.2-428.1-116.1c78.6-129.3,305.9-274.3,467.1-283.2L-2899.6,8813.2z"/>
			<path class="st3" d="M-2044.4,7243.3c47.2,197.4,41.5,401.1,65.4,601.6c8,85,7.4,86.3-69.7,133.9
				c-40.4,20.9-76.4,74.5-121.3,81.9c-52.8-51.1,217.9-203,31.8-401.2c-93.8-84.3,84.3-193.2,60.3-334.3
				C-2072,7296.8-2057.7,7277.2-2044.4,7243.3z"/>
			<path class="st2" d="M-2176.8,9529.4c-88.4,80.7-379.6,172-498.3,155.4c85.1-121.7,112.4-259.2,149.7-404.4
				C-2439.8,9404.4-2317.6,9476.2-2176.8,9529.4z M-2368.1,9539.5c2.5-88.4-149.6-87.8-143.6,6.3
				C-2507.1,9629.4-2364.7,9628.7-2368.1,9539.5z"/>
			<path class="st2" d="M-2940.7,9309.6c61.1,132.4,93.1,273.1,200.9,381.9c-106.9,18.1-433.3-32.4-500.3-103.3
				C-3122.1,9510.4-3026.3,9413-2940.7,9309.6z M-2960,9651.4c114.1-4.7,106.7-126.6-4.1-133.5
				C-3047.9,9518.8-3063.4,9653.6-2960,9651.4z"/>
			<path class="st3" d="M-3389.4,7263.5c80.4,13,27.7,164.4,124.6,257.4c74.6,66.7-174.5,228-120,428.9
				c-57.4-23.1-77.9-57.2-72.4-111C-3439,7646.9-3426.9,7453-3389.4,7263.5z"/>
			<path class="st2" d="M-2984.9,7177.3c-17,29.2-49.4,29.9-74.1,35.3l-24.5-27.7c-50.5,87.4-282.1-2.6-264.9-55.4l25.4,1.6
				c-47.5-124,301.2-223.9,378.5-19.6c-24.7,8.4-33.2,21.5-4.3,40.9c-11.4,10.2-24.8-0.2-47.2-1.5c4.6,10.6,8.2,19,11.8,27.3
				L-2984.9,7177.3z M-3051.6,7191.4l8.7,6.3l21.2-16.3l-16.9-11.3L-3051.6,7191.4z M-3209.7,7209c11.9-16.3,20.8-18-1-28.9
				C-3221.6,7194.9-3228.7,7193.5-3209.7,7209L-3209.7,7209z M-3313.2,7159.2l14.1,5.4c3.2-7.4,6.8-14.6,9.1-22.2
				c0.2-0.7-7.5-3.4-11.6-5.2C-3305.6,7144.5-3309.4,7151.8-3313.2,7159.2L-3313.2,7159.2z M-3276.5,7178.5l9.4,7.2l20.2-16.5
				C-3266.8,7155.2-3260.9,7160.1-3276.5,7178.5L-3276.5,7178.5z M-3160.6,7204.2l12.7,5.2l10.5-19.9c-4.2-1.7-11.9-5.4-12.2-4.9
				C-3153.9,7190.8-3157.1,7197.6-3160.6,7204.2L-3160.6,7204.2z"/>
			<path class="st0" d="M-2434.9,9161.8l-42.8,8.3c26-75.2,51.9-154.9,40.5-235.5c-5.9-61.7-67.5-92.3-116.4-125.4
				c0.6-13.1,43.6,4.7,54.2,5.7c38.2,10.1,455.2,152.7,369,192.5c-91.1,51.5-188.8,91.5-284.3,135.4
				C-2421.9,9146.1-2426.5,9153.7-2434.9,9161.8z"/>
			<path class="st3" d="M-3080.1,8181c-23.4-27.5-46.3-51.3-64.3-77.8c-4.2-6.2,6.3-22.6,13.3-32.4c75-86.2,142.5-188.4,102.9-301.2
				c-113.2-317.9-94.1-107.3,72.7-378.8c-1.8,193.2-10.1,384.1-9,577c0.5,43.3-29.8,71.7-49.6,105.5
				C-3034.7,8108.3-3056.6,8142.7-3080.1,8181z"/>
			<path class="st1" d="M-2867.8,9309l286.5-18.6c-11.1,127.5-64.9,245.2-131,365.5C-2797.9,9550.6-2841.3,9433.6-2867.8,9309z"/>
			<path class="st3" d="M-2832.2,7277.1c-0.4,35,11.3,63.1-22.6,92.3c-74.5,80.1-29.9,197.5,47.9,276.1c39,46.7,59,166.8,2.6,204.4
				c-46.1,33.1-81.1,75.3-124.6,111c-2.3-230.5-16.9-458.1,22.4-692.9c28.1,48.7,37,45.2,75,9.8L-2832.2,7277.1z"/>
			<path class="st4" d="M-3099.7,8230.2c-73.6-75.4-146.3-143.2-223.3-214.2c-113.8-149.8,28.5-314.7,110.2-446.5
				c4.5-7.4-0.3-22-5.3-31.2c-39.8-73.2-92.8-139.7-98.8-224c28.3-2.9,38.6,7,44.6,26.8c20.1,63.6,37.7,128.4,81.4,182.7
				c41.3,59.4,152-87.6,164.2-124.8c17.9-42.7,31.7-83.6,80.9-105.1c2.1,6.2,4.5,9.4,3.5,11c-52.1,85.1-94,180.5-181.5,242.8
				c-19.8,11.8-17,24.1-9,41.6c101.7,193.2,133,325.1-44.9,491.2c-16.4,17.9-12.7,28.1,6.2,44.7c27.6,24.2,48.6,54.5,71.3,83.1
				C-3096.7,8212.6-3099.7,8221.2-3099.7,8230.2z M-3324.4,7856.8c-5.1,56,54,234,109.7,208.7c171.2-89,170-306.6,67.4-442.9
				c-34.4-44.9-67.6,5.9-92,31C-3303.1,7716.2-3316.3,7794.7-3324.4,7856.8L-3324.4,7856.8z"/>
			<path class="st1" d="M-3259.6,9556c-22.8-103.9-20.3-212.8,16.7-313.2c2.2-6.2,15.4-14.7,20.9-13.4
				c74.6,18.6,148.7,38.7,223.2,58.5C-3035.5,9374.6-3199.3,9542.6-3259.6,9556z"/>
			<path class="st1" d="M-2484.4,9264.2l237-104.9c35.5,101.6,55,208.4,68,319C-2296.8,9422.6-2422.9,9379.5-2484.4,9264.2z"/>
			<path class="st4" d="M-2113,7302.5c13.6,98.6-29.4,188.3-85.7,270.1c-30.6,52.3,60.9,111.1,76.7,164.2
				c88.8,161.8-145.6,293.1-78.5,331.6c15.5,10.2,16.1,22.4-2.4,31.9c-2-0.3-4.3-0.2-5.8-1.1c-74.5-58.7-107.2,38.9-140.6,86.7
				c-5.4,8.5-10.3,17.2-15.4,25.8l-10.7-1.9c9.6-117,134.9-134.7,87.9-181.6c-24.3-31.9-51.5-63.5-67.5-98.9
				c-104.4-230.6,155.6-298,59.3-384.6c-36.2-48-72.9-96.2-81.3-156c-1.4-9.9,1.3-20.2,2-30.3l12.5-1.5
				c27.5,61.2,55.1,123.4,91.1,180.8c58.1,87.7,132.1-152.6,134.6-191.6c2.2-15.5,10-30.3,15.2-45.5L-2113,7302.5z M-2359.1,7833
				c6.7,39.6,85.4,246.2,130.5,183.1c29.2-54.4,100.4-126.1,103.5-184c-4.9-74.1-45.8-136-85.3-198
				C-2284.4,7569.1-2336.5,7796.3-2359.1,7833z"/>
			<path class="st3" d="M-2412.7,7410c35.8,56.6,66.5,106.9,99.3,156.1c43.5,46.7-101.6,106.2-92.2,270.2
				c-0.7,57.6,24.4,109.3,56.1,158.2c12.1,18.7,36.3,37,35.5,54.8c-0.8,17.1-27.8,32.7-41.4,50.1c-12.6,16.1-22.7,33.7-37.3,55.8
				c-15.8-33.8-42.6-58.4-36.7-96.2C-2425.9,7841.4-2419.8,7629.2-2412.7,7410z"/>
			<path class="st2" d="M-2560.3,7016.1c9.2,12.1,20.5,21.9,33.9,30.1l10.7-28.9l42.2,63.6c-32.6,8.4-46,32.9-40.8,63.9
				c-3.6,1.4-9,2-10.5,4.4c-2.9,5-3.9,10.9-4.7,16.6c-0.1,0.5,8.8,3.6,9.7,2.6c3.9-4.2,7.5-9.2,9.1-14.5c0.8-2.7-2.9-6.5-4.5-9.8
				c12.4-16.6,20.3-27.5,32.2-46.4c7,32.3-9.7,70.5-32,88.5l-38.3-3.9c5.8,8.5,11.6,16.9,17.4,25.4l0.5-0.5l-87.7,40.9
				c3.3-14.3-12.2-22.8-19.8-33.9c-3.5,9.3-6.9,18.5-12.2,32.6c-33.7,3.2-23.6,0.3-35.3-26.8c-33.3,30.5-35.3,26.4-42.4-14
				l-29.4,21.2c-8.7-14.2-8.6-29.6-5.4-45.4l-33.6,14.5c-4.4-14.2-5.7-29.9,0.8-44.4l-30.1,9.2l-12.8-6.7
				c10.4-6.5,17.7-17.9,26.1-26.8c-75.7-10.3-22.7-92.3,50.6-130.4c1.5,7,3.1,14,4.6,21.1l25.2-9l-30.6-11.3
				c32.2-29,20.6-20.2,50.7-0.9c13.5-30.6,2.9-26.2,47.5-26c-12.9,18.8-27.7,31.6-30.7,46.3c-4.9,56.9-89.8,43.7-90.6,96.5
				c13.9,41,81.7,16.3,82.7,68.1c12.1,31.7,55.9,34.1,71.8,2.3c14.8-60.3,62.2-23.9,72.2-81.4c1.4-8.7-11.5-27-19.3-27.7
				c-48.1-4-68.6-29.1-63.7-60.1l28-25.5l-8.8-9.3l8.7,23.7l26.6-20.6c3.6,10.6,6.8,20.1,10.6,31.4l21.7,1.9L-2560.3,7016.1z
				 M-2776,7033.5c-3-2.9-7.4-7.6-7.7-7.4c-11.6,7.9-23.6,15.6-33.7,24.9c-3.8,3.5-3.7,10.9-3.8,16.5c0,0.9,11,4,12.4,2.6
				C-2797.5,7058.7-2787.3,7046.4-2776,7033.5L-2776,7033.5z M-2504.2,7083.6c10.8-15.3,16-17.2-0.3-28.3
				C-2517.7,7068.4-2520,7067.7-2504.2,7083.6L-2504.2,7083.6z M-2585.2,7196.2c-13.1,12.3-14.4,13.7-3.7,26.4
				C-2574.8,7211.6-2570.6,7212.3-2585.2,7196.2z M-2836.6,7107.4l13.5,0.6c0-6.4,0.4-12.8-0.5-19.1c-0.1-0.9-6.8-0.9-10.5-1.4
				C-2834.9,7094.1-2835.8,7100.8-2836.6,7107.4L-2836.6,7107.4z"/>
			<path class="st2" d="M-2289.9,7224.5l-22-30.2l-25.4,27.2c-1.8-0.4-10.9-2.5-18.5-4.2c-0.8-12.9-1.4-23.5-2.4-39l-27,16.6
				c-110.7-175.5,203.3-209.2,271-69.2C-2073,7219.1-2228.6,7216.9-2289.9,7224.5z M-2148.9,7164.7c11.7,3.5,23.1-0.3,30-9.1
				c1.2-1.6-5.8-11.6-8.1-11.3c-11.9,1.8-20.8,9.3-21,21c-8.6,3.3-13.7,11.5-12.5,19.9c0.3,1.9,10,5,11.2,3.9
				c3.5-3.3,6.4-8.4,6.5-12.9C-2142.6,7172.5-2146.6,7168.6-2148.9,7164.7L-2148.9,7164.7z M-2196.4,7175.4
				c-16.5,14.8-13.4,14-0.1,26C-2179.7,7191.8-2186.5,7189.1-2196.4,7175.4L-2196.4,7175.4z M-2253.5,7182
				c-9.8,12.3-19.1,15.1-5.6,26.2C-2243.2,7198.5-2240.8,7200.2-2253.5,7182z"/>
			<path class="st3" d="M-3245.8,7283.7c29,55.2,40,56.6,84.9,16.3c43.1,42.3,48.7,41.8,83.7,1.4l44.8,44.8
				c-20.7,54-54.9,119.2-126.7,161.6C-3202,7485-3266.6,7321.4-3245.8,7283.7z"/>
			<path class="st1" d="M-3112.9,8706.2c-30.8-73.1-16.6-275.6,24.3-356.1C-3018,8541.7-2999.5,8515.8-3112.9,8706.2z"/>
			<path class="st4" d="M-2517.7,7447.4c39.3,129-159.6,178.1-140.1,302.8c1.8,14.1,0.3,28.5,0.3,46.9c-27.9-15.8-55-21.6-86.2,4.3
				c30.7-197.6-169.1-210.3-110.3-370c8.8,161.8,114,147.6,139.2,284.1c2.7,9.4,3.1,22,16.2,22.5c5.8-12.7,14.3-24.9,17-38.2
				C-2660.3,7584.2-2531.9,7570.1-2517.7,7447.4z"/>
			<path class="st3" d="M-2191,7296.1c55.1,67.8-7.5,164.3-51.7,225.7c-36.4-31.6-58.2-75-96.2-189.5
				C-2240.9,7301.1-2261.4,7392.4-2191,7296.1z"/>
			<path class="st1" d="M-2376.7,8646.2c-41-127.5-82.2-156.4,8.3-279.7C-2350,8453.5-2324.8,8575.3-2376.7,8646.2z"/>
			<path class="st5" d="M-2592.5,7111.3c-20.2,5-46.7,4.6-58.8,16.4s-9.9,35.6-13.9,54.2l-12.4,0.7c-3.1-11.9-8.5-23.7-8.8-35.7
				c0.3-41.6-38.6-20.6-70-32.8c-0.6-3-1.1-6.1-1.7-9.1c27.4-14.3,74.4-3.6,69-44.8c-0.6-7.5,5-15.4,7.8-23.2l8.4,0.5
				c2,9.1,6.9,18.6,5.6,27.3c-3.7,24.7,10.2,29.2,33.2,29.7c14.3,0.3,28.5,5.5,42.7,8.5C-2591.7,7105.9-2592.1,7108.6-2592.5,7111.3
				z"/>
			<path class="st3" d="M-2346.5,8276.8c-12.5-17.4-12.1-31,1.8-47.6c13.6-16.2,19.6-37.4,31.1-55.3c17.3-20.2,44.9-80.2,79.7-55
				c17.2,14.3-2.3,23.4-10.4,33.3C-2277.9,8193.4-2311.6,8234.3-2346.5,8276.8z"/>
			<path class="st3" d="M-2997.2,9041.4c49.3,32.4,95.7,30.6,143.8,6.8C-2876.7,9119.2-2981.9,9149.1-2997.2,9041.4z"/>
			<path class="st3" d="M-2680.8,9099.2c49,18.5,71.1,111.8-6.4,120C-2685.1,9180.1-2683,9140.3-2680.8,9099.2z"/>
			<path class="st6" d="M-3371.6,9134.1c122,55.1,251.9,88.7,384.5,114.8C-3121.2,9226.9-3256.1,9206.9-3371.6,9134.1z"/>
			<path class="st3" d="M-2787.7,9109.4c56.1,27.3-3.4,138.4-79.5,88C-2818.2,9183.4-2799.6,9148.4-2787.7,9109.4z"/>
			<path class="st3" d="M-2852.3,8959.9c-12.5,64.4-155.4-5.6-84.7-61.7c12.2,39.4,43.2,57.5,85.4,62.5L-2852.3,8959.9z"/>
			<path class="st6" d="M-2697.1,7366.8c-24.4-26.9-11.5-60.2-18.4-90c41.1-7.7,49.6-1.6,44.1,30.9c-3.4,19.9-9.5,39.3-14.3,59
				L-2697.1,7366.8z"/>
			<path class="st6" d="M-2449.9,9207.3c-65.5,34.2-139.4,61.9-232.7,55L-2449.9,9207.3z"/>
			<path class="st6" d="M-2800.6,7239.4c39.7,17.3,39.7,71,0,104.7V7239.4z"/>
			<path class="st6" d="M-2866.5,7277.1c-18.4-24.4-17-69.1,3.2-100.6C-2835.7,7195.9-2836.8,7228.8-2866.5,7277.1z"/>
			<path class="st6" d="M-2509.5,7215.4c15.3,49.7,14.7,78.8-0.3,98.3c-27.5-16.6-23.8-43.7-25.8-66.9
				C-2536.3,7238.6-2521.5,7229.3-2509.5,7215.4z"/>
			<path class="st3" d="M-2804.4,8826.4c-4.2,56-2.5,63.2,20.4,90.2C-2825.4,8922.9-2874.9,8823.6-2804.4,8826.4z"/>
			<path class="st6" d="M-2235.3,7319.3c-30.1-22.3-35.7-82.1,9.8-74.9C-2209.1,7258.1-2232.4,7298.1-2235.3,7319.3z"/>
			<path class="st6" d="M-2606.9,7347.4c-0.2-19.4-26.3-75.6,1.7-80.8c6.6,0.9,17.1,7.9,17.3,12.5c0.8,22.4-1.3,45-2.4,67.4
				L-2606.9,7347.4z"/>
			<path class="st3" d="M-2537.6,9137.7c-21.7-27.1-45.2-56.7-66.1-82.8C-2553.3,9051.2-2517.2,9094.5-2537.6,9137.7z"/>
			<path class="st3" d="M-2894,7157.5c-14.1-61.5,12.7-130.3,57-148.6C-2889,7048.4-2879.7,7106.4-2894,7157.5z"/>
			<path class="st6" d="M-3205.2,7297.4c-2.2-13.7-6.6-27.6-5.5-41c0.5-5.9,12.7-10.9,19.6-16.3c6.1,6.4,18.2,13.8,17.2,19.1
				c-2.6,14.3-10.9,27.7-17,41.5L-3205.2,7297.4z"/>
			<path class="st3" d="M-2876.2,9025.7c-43.7,31.7-103.6,17.2-112-31.8c33.7,28.8,72.7,32.4,112.7,32.5L-2876.2,9025.7z"/>
			<path class="st6" d="M-2970.1,7272c-18.9-60.3-23.5-54.8,8.5-69.5C-2943,7222.9-2945,7243.8-2970.1,7272z"/>
			<path class="st3" d="M-2603.2,8988.4c46.2-34,84.6-27.7,100.3,12.7l-100.9-13.3L-2603.2,8988.4z"/>
			<path class="st6" d="M-3338.7,7191.7c6.7,10.6,19.7,21.8,18.5,31.6c-1.3,11.3-15.1,21.4-23.5,32.1l-14-4.8
				c2.1-18.3,4.3-36.6,6.4-55L-3338.7,7191.7z"/>
			<path class="st6" d="M-3013.2,8801.4l-61.5,28.7C-3090.4,8794.6-3026.3,8763.9-3013.2,8801.4z"/>
			<path class="st6" d="M-3118.8,7302.2c-4.6-17.9-9.3-35.7-15.3-59c13.1,0,25.5-3.2,31.9,1c14,15.5-1.4,41.5-7.7,58.5
				L-3118.8,7302.2z"/>
			<path class="st3" d="M-2756.1,8915.3c5.1-16.1,12.8-28.6,12.2-40.8c-2.5-37.5,31.2-70.7,70.6-70
				C-2762,8858.7-2717.7,8897-2756.1,8915.3z"/>
			<path class="st6" d="M-3379.2,9033.3c-10.7,17.8-25.9,21.6-47.8,39.5c-11.9-49.8-5.5-35.6,44.2-49.6
				C-3381.6,9026.5-3380.4,9029.9-3379.2,9033.3z"/>
			<path class="st6" d="M-2164.8,7295.9c-3.3-16.2-8-32.4-8.9-48.7c-0.3-4.7,10.8-9.8,16.6-14.7c3.7,5.3,10.7,10.6,10.6,15.8
				c-0.4,15.6-3.6,31.2-5.6,46.9L-2164.8,7295.9z"/>
			<path class="st6" d="M-2365.5,7239.3c-2,32.1-3.8,59.9-5.5,87.8C-2394.8,7301.6-2390.8,7257.8-2365.5,7239.3z"/>
			<path class="st6" d="M-2428.6,8811.3c26.4-22.5,45.7-19.1,63.4-9.6c3.5,1.9-0.1,14.4-0.4,22.1L-2428.6,8811.3z"/>
			<path class="st6" d="M-2081.4,7278.3c-30.7-31.6-33.9-57.1-10.3-72.6C-2087.9,7231.9-2084.7,7255.1-2081.4,7278.3z"/>
			<path class="st3" d="M-2830.5,9089.5c-21.2,46.4-54.1,64.4-86.1,50.3L-2830.5,9089.5z"/>
			<path class="st6" d="M-3037.7,7289.1c-4-13.1-9.8-26.1-11.2-39.4c-0.5-4.8,9.6-10.5,14.9-15.8c4.7,4.5,13.2,8.9,13.3,13.4
				c0.2,13.6-2.8,27.3-4.6,40.9L-3037.7,7289.1z"/>
			<path class="st6" d="M-3301.2,8962.5c-13,6.2-41.4,40.5-52.1,29.1c5.1-12.5,7.2-27.6,16.5-36.6c5.4-5.3,22.3-1,34-1
				C-3302.2,8956.9-3301.7,8959.7-3301.2,8962.5z"/>
			<path class="st6" d="M-3216.8,8905.4c-16.4,9.5-32.8,18.9-49.2,28.4l-8.4-6c9.7-12.6,17.8-26.9,30.2-36.9c4.3-3.5,19,3.4,29,5.6
				C-3215.8,8899.5-3216.3,8902.4-3216.8,8905.4z"/>
			<path class="st6" d="M-3286.6,7281.5c1.1-13.7,1.3-27.5,3.8-41c0.6-3.3,9.3-8.6,12.6-7.7c5.4,1.4,14,8.3,13.2,10.8
				c-4.4,14-11.2,27.5-17.1,41.1L-3286.6,7281.5z"/>
			<path class="st6" d="M-2282.1,9132.5c-33.4,23.7-62.2,55.6-109.1,52C-2355.5,9167.2-2316.3,9149.7-2282.1,9132.5z"/>
			<path class="st3" d="M-2735.4,9213.7c6.9-31,13.7-61.6,20-89.8C-2698.9,9147.1-2709,9196.1-2735.4,9213.7z"/>
			<path class="st6" d="M-2921.6,8766.9c-22.5,7.6-29.4,11.7-56.6,15.9c17.1-39.6,19.6-34.9,58.2-25.9L-2921.6,8766.9z"/>
			<path class="st6" d="M-2459.6,7175.9c2.1,23.9,4.2,47.7,6.2,71.6l-14.3,1l-6-71.6L-2459.6,7175.9z"/>
			<path class="st6" d="M-3180,8882.6c8.7-39.5,21.6-46.2,59-32.2L-3180,8882.6z"/>
			<path class="st3" d="M-2689,8905.6c15.5-43.4,57.1-67.1,103-55.8c-45.7,2.2-76,26.8-103.8,55.3L-2689,8905.6z"/>
			<path class="st6" d="M-2705.9,8739.8c-13.3-2.2-41,5.7-47.4-5.6c9.1-5.4,17.8-14.5,27.4-15.2c7.7-0.6,16.3,8.8,24.5,13.8
				C-2703,8735.1-2704.5,8737.4-2705.9,8739.8z"/>
			<path class="st3" d="M-2507.7,8949h-101.6c14.4-22.2,73-25.5,100.8,0.7L-2507.7,8949z"/>
			<path class="st3" d="M-2665.4,8932.1c24.3-51.2,39.9-60.9,82.2-58.3C-2605.3,8890.3-2639.9,8911.2-2665.4,8932.1z"/>
			<path class="st6" d="M-2322.8,7297c2.5-15.5,4.9-31.1,8.1-46.5c0.1-0.5,8.6,0.5,13.2,0.7c-1.6,15.9-3.2,31.7-4.8,47.6
				L-2322.8,7297z"/>
			<path class="st6" d="M-2864.5,8753c22.9-32.3,34.2-33.9,55.2-9.6L-2864.5,8753z"/>
			<path class="st3" d="M-2890.7,8927.7l-22.7-50.9l10.6-3.9l24.7,49.7L-2890.7,8927.7z"/>
			<path class="st3" d="M-2757.8,8815.7c-4.3,21-8.6,42-13,63C-2785.7,8859.3-2781.2,8837.3-2757.8,8815.7z"/>
			<path class="st6" d="M-2165.2,8919.6l-41.7-20.3C-2177.5,8886.3-2170.9,8889-2165.2,8919.6z"/>
			<path class="st6" d="M-2068.4,8966.7l-38.7-17.1C-2087.2,8932.8-2057.2,8949-2068.4,8966.7z"/>
			<path class="st6" d="M-2520.7,8771.8c19.1-18.3,32.5-17.1,42.4,11.2L-2520.7,8771.8z"/>
			<path class="st6" d="M-2637.2,8745.9c15.1-15.4,30.3-23,47.1,4.7L-2637.2,8745.9z"/>
			<path class="st3" d="M-2599.6,8920c13.9-25.6,36.9-19.5,60.2-12.7l-60.4,12.7L-2599.6,8920z"/>
			<path class="st3" d="M-2514,9052.8l16.4,37.2l-8.4,2.8c-7.1-15-12.5-31-20.6-45.4l13.4,6.1L-2514,9052.8z"/>
			<path class="st3" d="M-2589,9127.9c25.2,13.3,14.4,28.1,0.2,43v-43.5L-2589,9127.9z"/>
			<path class="st3" d="M-2931.8,9000l-47.6-25.4l6.4-8.5C-2959.2,8976.8-2945.8,8990.8-2931.8,9000z"/>
			<path class="st6" d="M-2298.3,8844.1l33.4,11l-4.5,9.9l-32.8-11.7L-2298.3,8844.1z"/>
			<path class="st3" d="M-2864.2,8890.6l35.5,38.2l0.7-0.7c-20-6.5-35.6-16.3-35.4-38.2L-2864.2,8890.6z"/>
			<path class="st3" d="M-2525.5,9048.2c-2-7.4-14.3-17.2-2.8-21.1c6.6,8.1,13.2,16.2,19.8,24.3c-1.5,1.2-3.4,1.7-5.4,1.4
				c0.8,1.1-9.8-4.4-12.6-5.4L-2525.5,9048.2z"/>
			<path class="st3" d="M-2863.4,8889.9l-16.7-34l9.6-2.9C-2867.7,8864.1-2867.5,8882-2863.4,8889.9z"/>
			<path class="st3" d="M-2858.7,9161.7l-38.9,14.6c-1-2.9-2-5.7-3-8.6l42.6-5.4L-2858.7,9161.7z"/>
			<path class="st6" d="M-2440.1,7146.5c-1.9-8.1-3.7-16.2-5.6-24.3l6.2-1c1.3,8.2,2.7,16.3,4.1,24.5L-2440.1,7146.5z"/>
			<path class="st0" d="M-2898.8,8813.9l18.2-16.7l5.8,8.4l-24.9,7.6L-2898.8,8813.9z"/>
			<path class="st3" d="M-2688.3,8851.5l23.7-22.8l6,6.3l-30.4,15.8L-2688.3,8851.5z"/>
			<path class="st0" d="M-2240.8,9110l-22.9,21.7c8-5.1,15.3-15,23.1-21.8L-2240.8,9110z"/>
			<path class="st3" d="M-2488.6,8956.2c2.4,3.4,4.7,6.8,7.1,10.2l-4.1,2.5l-7.5-9.9L-2488.6,8956.2z"/>
			<path class="st0" d="M-2108.2,9044c-8.7,4.4-17.3,8.8-26,13.3l0.6,0.7C-2125.5,9053.1-2115.4,9049.5-2108.2,9044z"/>
			<path class="st0" d="M-2858,9162.3l22.5-13.3c-7.7,2.5-15.5,8.9-23.2,12.7C-2858.7,9161.7-2858,9162.3-2858,9162.3z"/>
			<path class="st6" d="M-2962.8,9251.1l10.2,1.1c-2,2.8-7.1,0.7-10.3,1.3L-2962.8,9251.1z"/>
			<path class="st3" d="M-2689.8,8905c-0.9,5.1-1.8,10.1-2.6,15.2l-7.7-3.1c3.7-3.8,7.4-7.7,11.1-11.5L-2689.8,8905z"/>
			<path class="st0" d="M-2875.5,9026.4l8.4-8.6l3,4.8C-2866.3,9023.7-2876.9,9024.7-2875.5,9026.4z"/>
			<path class="st0" d="M-2651,6976.2c-2.5-1-3.5-1-2-3.2L-2651,6976.2z"/>
			<path class="st0" d="M-2616.7,9125.4c1.8,1.8,3.5,3.7,0.9,0.9c0.9,3.4,0.2,0.9-0.4-1.6L-2616.7,9125.4z"/>
			<path class="st0" d="M-3124.5,8814.8l12-0.8c-0.3,1.3-0.6,2.7-1,4C-3116.9,8817.3-3121.6,8813.4-3124.5,8814.8z"/>
			<path class="st0" d="M-2613,9022.6c0.2,1.9-1,1.5-2.5,1.4C-2615.7,9022-2614.5,9022.5-2613,9022.6z"/>
			<path class="st0" d="M-2574.7,9018.5c-2.9-0.2-4.2,0.9-3.8-1.8L-2574.7,9018.5z"/>
			<path class="st0" d="M-2603.9,8987.8l-8.5,8C-2610.9,8994.7-2602.4,8989-2603.9,8987.8z"/>
			<path class="st0" d="M-2140.7,9064.4l-2.5,1.6C-2143.6,9065.8-2138.8,9065.4-2140.7,9064.4z"/>
			<path class="st0" d="M-2612.5,8995.8l1.4,0.1C-2618.4,8995-2613.3,8995.4-2612.5,8995.8z"/>
			<path class="st0" d="M-2560.1,7016.7c-0.1-1.5-0.3-3-0.4-4.5C-2560.4,7013.6-2560.7,7015.3-2560.1,7016.7z"/>
			<path class="st0" d="M-2843.2,7154.3c0.6-2,1.1-4,1.7-6C-2842.2,7150-2842.1,7153.6-2843.2,7154.3z"/>
			<path class="st0" d="M-2588.4,9108.7l-1.4-1.9c-0.2,1.1-0.3,2.2-0.5,3.3c0.6-0.5,1.3-0.9,1.8-1.2
				C-2588.6,9109-2588.4,9108.7-2588.4,9108.7z"/>
			<path class="st0" d="M-2831.5,7277.6l-0.8-4.7C-2832.1,7274.4-2833,7276.6-2831.5,7277.6z"/>
			<path class="st0" d="M-2240.6,9110c2.5,0.4,4.9,0.8-1-0.2C-2235.3,9111.3-2239.1,9110.6-2240.6,9110z"/>
			<path class="st0" d="M-2588.8,9127.4c0-6,0.2-13,0.3-18.5C-2588.4,9114.4-2589,9123-2588.8,9127.4z"/>
			<path class="st0" d="M-2932.5,9000.3h4.4C-2928.7,9000.4-2931.3,8999.4-2932.5,9000.3z"/>
			<polygon class="st0" points="-3909.9,8394.6 -3910.5,8393 -3908.8,8393.2 			"/>
			<path class="st0" d="M-2263.7,9131.7c-5.5,0.4-13.8,0.4-18,1C-2276.6,9132.1-2267.1,9132.7-2263.7,9131.7z"/>
			<path class="st0" d="M-2835.5,9149l-0.8-1.5C-2835.2,9142.3-2837.2,9148.3-2835.5,9149z"/>
			<path class="st0" d="M-2599.8,8920.1l1,0.2C-2605.1,8918.8-2601.6,8919.4-2599.8,8920.1z"/>
			<path class="st0" d="M-2516.7,8913.9c2-3.3,4.4-0.8,7.1,0.2C-2511.6,8917.5-2514.1,8914.8-2516.7,8913.9z"/>
			<polygon class="st0" points="-2704.8,8871.6 -2702.8,8871.7 -2703.8,8873.6 			"/>
			<path class="st0" d="M-2689.1,8850.9l-2.1,3c-0.4-2.1,1.1-2.1,2.8-2.4L-2689.1,8850.9z"/>
			<path class="st6" d="M-2108.4,9044.7l-0.8-2C-2108.9,9043.1-2108,9044.1-2108.4,9044.7z"/>
			<path class="st0" d="M-2828.7,8928.8l2-0.5C-2827.5,8927.9-2828.2,8928-2828.7,8928.8z"/>
			<path class="st0" d="M-2666.1,8931.5c0.3,0.2,0.6,0.5,0.8,0.6C-2665.4,8932.1-2666.1,8931.5-2666.1,8931.5z"/>
			<path class="st0" d="M-2616.3,9124.7c0,0-0.3,0.6-0.4,0.6S-2616.3,9124.7-2616.3,9124.7z"/>
			<path class="st0" d="M-2508.5,8949.7l0.8-0.7L-2508.5,8949.7z"/>
			<path class="st0" d="M-2535.8,7207.8l-1-1.9C-2536.6,7206.4-2534.8,7207.2-2535.8,7207.8z"/>
			<path class="st0" d="M-2984.1,7178.1l0.6-0.9C-2984.7,7177.4-2985.2,7177.1-2984.1,7178.1z"/>
			<path class="st0" d="M-2851.6,8960.7l1.1-0.8C-2851.2,8960.1-2853,8959.4-2851.6,8960.7z"/>
			<path class="st0" d="M-2627.7,9085.2l0.5,1.6C-2627.1,9086.1-2626.9,9085.6-2627.7,9085.2z"/>
			<path class="st0" d="M-2627,9085.7l-2.1-0.4C-2628.5,9085.3-2627.5,9085.2-2627,9085.7z"/>
			<path class="st0" d="M-2134.2,9057.3c-1.4,2.4-6.8,5.5-5.8,7.8C-2138.6,9062.6-2133.3,9059.7-2134.2,9057.3z"/>
			<path d="M-2484.1,8280.2c-24.3,0.1-54.1-24.5-52.9-46.3c1-17.1-0.7-38.8,28.1-40.1C-2457.5,8198.6-2419.5,8270.1-2484.1,8280.2z
				 M-2498.2,8224l-9.7,5.5l15.6,22.9l10.1-5.7C-2487.5,8239.1-2492.8,8231.6-2498.2,8224L-2498.2,8224z"/>
			<path d="M-2973.4,8256.1c0.5-36.2,16.2-57.6,43.5-61.9c10.7-1.7,29.2-0.8,32.6,4.8c6.4,10.4,9.8,27.2,4.6,37.3
				C-2905.2,8261.5-2963.1,8303.6-2973.4,8256.1z M-2916.8,8228.9l-9.6-9l-21.3,24.9l8.8,6.4
				C-2931.5,8243.8-2924.1,8236.4-2916.8,8228.9L-2916.8,8228.9z"/>
			<path d="M-2608.7,8035.5c-5.4,9.5-12.3,18.5-23.6,11.1c-26.7-31.1-87-63.7-64.9-110c6.5,2.6,15.3,3.6,19.1,8
				C-2654.2,7974.7-2629.7,8003.3-2608.7,8035.5z"/>
			<path d="M-2821.3,8069.6c-12.2-13.5-10.1-22-0.8-36.1c20.3-27.4,38.5-81.2,69.1-95.6c3.1,5.7,10.7,13.5,8.8,16.9
				C-2762.1,7979.6-2797.6,8061.3-2821.3,8069.6z"/>
			<path d="M-2745.2,8363c-5.8-12.3-9.8-16.9-9.9-21.5c-0.2-44.3-0.6-88.5,1.1-132.7c0.3-7.8,9.3-15.4,14.3-23.1
				c3.8,7.8,11.2,15.7,10.9,23.3C-2733.2,8262.9-2731.1,8308.9-2745.2,8363z"/>
			<path d="M-2690,8027.1c0.5,1.2,0.8,1.9,1.1,2.6l-2.2,0.7C-2690.8,8029.4-2690.4,8028.5-2690,8027.1z"/>
			<path d="M-3830.6,8701.5c6.1-7.5,16.3-23.9,30.6-36.4c12.6-11.1,15-18.9,4.6-31.9c-23.6-26.2-55.6-87.6,9.3-79.4
				c63.5,20,60.6,76.8,105.2,36.5c32.8-31.8,118.3-22.5,76.8,28.6c-75.9,65.8,28.7,62.6,2.2,118.4c-20.5,20.5-45.8,11.8-68.1-6.4
				c-25.4-18.1-50-29.1-79.1-3.7C-3779.8,8747.7-3833.5,8758.2-3830.6,8701.5z M-3778.4,8585.2l-6.4,5.1c4.6,7.9,8.2,16.4,13.9,23.5
				c49.1,47.6-7.1,54.2-27.4,100.6l9.8,8c11.7-7.1,24.9-12.8,34.8-21.5c38.4-46.3,75.9-7.9,118.1,13.2c1.1-6.2,0.1-9-2-10.6
				c-71.2-51.5-21.5-51,8.1-104.5l-7.1-4.9C-3708.9,8654.7-3717,8654.6-3778.4,8585.2z"/>
			<path d="M-1829.5,8688.7c-19.8-9.3-38.4-13.5-48.9-24.2c-33.4-27.8-19.4-83.9,33.3-72c21.9,5.6,43.2,12.9,64.7,19.4
				c29-10.2,68.1-42.5,100.9-36.3c11.6,3.8,25.8,9.5,31,18.3c1.8,18.6-22,38-37.6,53.2c29.9,9.7,62.2,25.7,65,54.3
				c-1.1,16-12.6,32.6-38,29.7c-11.8-1.3-26.1,3.1-35.6-1.3c-45.2-23-66.2,5.4-94,30.8c-16.7,4.4-36.1,14.6-49.9,10.4
				C-1870,8757.8-1851.5,8710.1-1829.5,8688.7z M-1687.2,8606.7l-4.3-7.1c-11.2,3.6-23.3,5.9-33.6,11.1
				c-26.3,13.4-49.8,48.5-81.9,22.5c-15-8.8-46.1-24.9-58.9-5c1.9,39.6,110.8,21.1,61.7,74.7c-9.7,12.2-17.1,25.8-25.5,38.8l13.4,9
				c15-15.1,32-28.9,44.4-45.5c31.2-50.6,75.7,18.9,119.7-10C-1726.4,8662.3-1761.6,8679.4-1687.2,8606.7z"/>
			<path d="M-2368.1,9539.5c3.4,89.2-139,89.9-143.6,6.3C-2517.7,9451.7-2365.6,9451.1-2368.1,9539.5z M-2439.6,9577
				c58.2,5.1,55-70.2,6.2-70.8C-2498.6,9498.9-2496.4,9577.8-2439.6,9577L-2439.6,9577z"/>
			<path d="M-2960,9651.4c-103.4,2.2-87.9-132.6-4.1-133.5C-2853.3,9524.8-2845.9,9646.7-2960,9651.4z M-2953.9,9623.8
				c72.2-7,58.1-69.4-7.9-73.7C-3020.7,9546.9-3012.4,9627.4-2953.9,9623.8L-2953.9,9623.8z"/>
			<path d="M-3051.6,7191.4l13-21.2l16.9,11.3l-21.2,16.3L-3051.6,7191.4z"/>
			<path d="M-3209.7,7208.9c-19.1-15.4-12-14.1-1-28.9C-3188.8,7191-3197.8,7192.7-3209.7,7208.9z"/>
			<path d="M-3313.2,7159.2c3.8-7.3,7.7-14.7,11.5-22.1c4.1,1.8,11.8,4.5,11.6,5.2c-2.3,7.6-5.9,14.9-9.1,22.2L-3313.2,7159.2z"/>
			<path d="M-3276.5,7178.5c15.6-18.5,9.7-23.3,29.5-9.3l-20.2,16.5L-3276.5,7178.5z"/>
			<path d="M-3160.6,7204.2c3.5-6.7,6.7-13.4,10.9-19.7c0.3-0.4,8,3.2,12.2,4.9l-10.5,19.9L-3160.6,7204.2z"/>
			<path d="M-3324.4,7856.8c8.1-62.1,21.3-140.6,85.1-203.2c24.4-25.1,57.6-76,92-31c102.6,136.3,103.8,353.9-67.4,442.9
				C-3270.1,8091.3-3329.6,7912.4-3324.4,7856.8z M-3173.9,7632.8c-115.5,88.6-160.1,245.5-87.8,368.7
				C-3194.6,8124.9-3002.3,7834.8-3173.9,7632.8z"/>
			<path d="M-2359.1,7833c22.6-36.7,74.7-263.8,148.6-198.9c39.5,61.9,80.5,123.9,85.3,198c-3.1,58-74.2,129.6-103.5,184
				C-2273.6,8079.4-2352.3,7872.4-2359.1,7833z M-2255.2,7994.3c23.3,11.2,63.1-90.5,84-109c51.4-73-20.6-173.3-65.6-235.7
				C-2335.7,7753.3-2352,7881.1-2255.2,7994.3z"/>
			<path d="M-2776,7033.5c-11.3,12.9-21.5,25.2-32.8,36.6c-1.5,1.5-12.4-1.7-12.4-2.6c0.1-5.6,0-13.1,3.8-16.5
				c10.1-9.3,22.1-17,33.7-24.9C-2783.4,7025.9-2779,7030.6-2776,7033.5z"/>
			<path d="M-2504.1,7083.6c-15.8-15.9-13.5-15.2-0.3-28.3C-2488.2,7066.4-2493.3,7068.3-2504.1,7083.6z"/>
			<path d="M-2585.2,7196.2c14.7,16.1,10.4,15.4-3.7,26.4C-2599.6,7209.9-2598.3,7208.4-2585.2,7196.2z"/>
			<path d="M-2515.1,7144.1c8.3,8.9,2.3,16.8-4.5,24.3c-1,1-9.8-2-9.7-2.6c1.4-9.7,2.2-19.5,15.2-21L-2515.1,7144.1z"/>
			<path d="M-2836.6,7107.4c0.8-6.6,1.7-13.2,2.5-19.9c3.7,0.4,10.3,0.5,10.5,1.4c0.9,6.3,0.5,12.7,0.5,19.1L-2836.6,7107.4z"/>
			<path d="M-2767.4,6997.9l30.6,11.3l-25.2,9C-2763.4,7014.8-2765.1,6996.8-2767.4,6997.9z"/>
			<path d="M-2196.4,7175.4c9.9,13.6,16.7,16.4-0.1,26C-2209.8,7189.4-2212.9,7190.2-2196.4,7175.4z"/>
			<path d="M-2148.1,7165.2c0.6-11.6,9.3-19.2,21.2-20.9c2.2-0.3,9.3,9.7,8.1,11.3c-6.9,8.8-18.3,12.6-30,9.1L-2148.1,7165.2z"/>
			<path d="M-2253.5,7182c12.7,18.2,10.2,16.5-5.6,26.2C-2272.6,7197.1-2263.2,7194.3-2253.5,7182z"/>
			<path d="M-2148.9,7164.7c7.5,8,8,17-0.3,24.4c-1.2,1.1-10.9-1.9-11.2-3.9c-1.2-8.4,3.8-16.6,12.4-20
				C-2148.1,7165.2-2148.9,7164.7-2148.9,7164.7z"/>
			<path d="M-2526.5,9047.4l13.4,6.1L-2526.5,9047.4z"/>
			<path class="st0" d="M-2498.2,8224c5.3,7.6,10.7,15.1,16,22.7l-10.1,5.7l-15.6-22.9L-2498.2,8224z"/>
			<path class="st0" d="M-2916.8,8228.9c-7.4,7.5-14.7,14.9-22.1,22.4l-8.8-6.4l21.3-24.9L-2916.8,8228.9z"/>
			<path class="st5" d="M-3778.4,8585.2c61.6,69.5,69.6,69.3,141.8,9l7.1,4.9c-29.7,53.5-79.3,53-8.1,104.5c2.1,1.7,3.1,4.4,2,10.6
				c-42.2-21.2-79.6-59.5-118.1-13.2c-9.9,8.7-23,14.4-34.8,21.5l-9.8-8c20.3-46.4,76.5-52.9,27.4-100.6
				c-5.8-7.1-9.3-15.6-13.9-23.5L-3778.4,8585.2z"/>
			<path class="st5" d="M-1687.2,8606.7c-74.7,72.8-39,55.6,35,88.4c-44,29-88.6-40.5-119.7,10c-12.4,16.6-29.4,30.4-44.4,45.5
				l-13.4-9c8.4-13,15.9-26.6,25.5-38.8c49.1-53.7-59.7-35.1-61.7-74.7c12.7-19.9,43.8-3.8,58.9,5c32.2,26,55.6-9.1,81.9-22.5
				c10.3-5.2,22.3-7.5,33.6-11.1L-1687.2,8606.7z"/>
			<path class="st3" d="M-2439.6,9577c-56.8,0.7-59-78.1,6.2-70.8C-2384.6,9506.9-2381.4,9582.1-2439.6,9577z"/>
			<path class="st3" d="M-2953.9,9623.8c-58.5,3.6-66.8-77-7.9-73.7C-2895.8,9554.5-2881.7,9616.9-2953.9,9623.8z"/>
			<path class="st3" d="M-3173.9,7632.8c171.4,201.7-20.4,492.1-87.9,368.7C-3334,7878.3-3289.4,7721.4-3173.9,7632.8z"/>
			<path class="st3" d="M-2255.2,7994.3c-96.8-113.1-80.4-241.2,18.4-344.8c44.9,62.4,117,162.8,65.6,235.7
				C-2192.4,7904.3-2231.7,8005.2-2255.2,7994.3z"/>
		</g>
		<g id="_9px72g.tif">
			
				<image style="overflow:visible;enable-background:new    ;" width="1921" height="1235" id="Layer_0" xlink:href="57DF661E92795129.png"  transform="matrix(0.5112 0 0 0.5337 -3235.2161 8686.2158)">
			</image>
		</g>
	</g>
</g>
</svg>
